SplineFontDB: 3.2
FontName: Kodito
FullName: Kodito
FamilyName: Kodito
Weight: Regular
Copyright: Copyright (c) 2025, W.F.Turnip
UComments: "2024-2-27: Created with FontForge (http://fontforge.org)"
Version: 001.000
ItalicAngle: 0
UnderlinePosition: -100
UnderlineWidth: 50
Ascent: 650
Descent: 200
InvalidEm: 0
LayerCount: 2
Layer: 0 1 "+gMyXYgAA" 1
Layer: 1 1 "+Uk2XYgAA" 0
XUID: [1021 352 -730677569 13050500]
StyleMap: 0x0000
FSType: 0
OS2Version: 0
OS2_WeightWidthSlopeOnly: 0
OS2_UseTypoMetrics: 1
CreationTime: 1709032616
ModificationTime: 1767727041
OS2TypoAscent: 0
OS2TypoAOffset: 1
OS2TypoDescent: 0
OS2TypoDOffset: 1
OS2TypoLinegap: 76
OS2WinAscent: 0
OS2WinAOffset: 1
OS2WinDescent: 0
OS2WinDOffset: 1
HheadAscent: 0
HheadAOffset: 1
HheadDescent: 0
HheadDOffset: 1
OS2Vendor: 'PfEd'
MarkAttachClasses: 1
DEI: 91125
Encoding: UnicodeBmp
UnicodeInterp: none
NameList: AGL For New Fonts
DisplaySize: -48
AntiAlias: 0
FitToEm: 0
WinInfo: 28 14 10
BeginPrivate: 0
EndPrivate
BeginChars: 65536 98

StartChar: exclam
Encoding: 33 33 1
Width: 500
Flags: W
LayerCount: 2
Fore
SplineSet
250 450 m 128,-1,1
 260 450 260 450 267.5 442.5 c 128,-1,2
 275 435 275 435 275 425 c 128,-1,3
 275 415 275 415 267.5 407.5 c 128,-1,4
 260 400 260 400 250 400 c 128,-1,5
 240 400 240 400 232.5 407.5 c 128,-1,6
 225 415 225 415 225 425 c 128,-1,7
 225 435 225 435 232.5 442.5 c 128,-1,0
 240 450 240 450 250 450 c 128,-1,1
250 50 m 128,-1,9
 260 50 260 50 267.5 42.5 c 128,-1,10
 275 35 275 35 275 25 c 128,-1,11
 275 15 275 15 267.5 7.5 c 128,-1,12
 260 0 260 0 250 0 c 128,-1,13
 240 0 240 0 232.5 7.5 c 128,-1,14
 225 15 225 15 225 25 c 128,-1,15
 225 35 225 35 232.5 42.5 c 128,-1,8
 240 50 240 50 250 50 c 128,-1,9
EndSplineSet
EndChar

StartChar: quotedbl
Encoding: 34 34 2
Width: 500
Flags: W
LayerCount: 2
Fore
SplineSet
50 250 m 128,-1,1
 60 250 60 250 67.5 242.5 c 128,-1,2
 75 235 75 235 75 225 c 128,-1,3
 75 215 75 215 67.5 207.5 c 128,-1,4
 60 200 60 200 50 200 c 128,-1,5
 40 200 40 200 32.5 207.5 c 128,-1,6
 25 215 25 215 25 225 c 128,-1,7
 25 235 25 235 32.5 242.5 c 128,-1,0
 40 250 40 250 50 250 c 128,-1,1
450 250 m 128,-1,9
 460 250 460 250 467.5 242.5 c 128,-1,10
 475 235 475 235 475 225 c 128,-1,11
 475 215 475 215 467.5 207.5 c 128,-1,12
 460 200 460 200 450 200 c 128,-1,13
 440 200 440 200 432.5 207.5 c 128,-1,14
 425 215 425 215 425 225 c 128,-1,15
 425 235 425 235 432.5 242.5 c 128,-1,8
 440 250 440 250 450 250 c 128,-1,9
EndSplineSet
EndChar

StartChar: numbersign
Encoding: 35 35 3
Width: 500
Flags: W
LayerCount: 2
Fore
SplineSet
387.51171875 391.11328125 m 0,0,1
 389.478210449 391.424804688 389.478210449 391.424804688 391.42578125 391.424804688 c 0,2,3
 401.772832971 391.424804688 401.772832971 391.424804688 409.099609375 384.099609375 c 128,-1,4
 416.42578125 376.7734375 416.42578125 376.7734375 416.42578125 366.41796875 c 128,-1,5
 416.42578125 356.0703125 416.42578125 356.0703125 409.099609375 348.744140625 c 2,6,-1
 338.387152778 278.033203125 l 0,7,8
 267.674696181 207.322265625 267.674696181 207.322265625 196.963758681 136.611328125 c 128,-1,9
 126.252821181 65.900390625 126.252821181 65.900390625 126.255859375 65.900390625 c 1,10,11
 118.9296875 58.57421875 118.9296875 58.57421875 108.57421875 58.57421875 c 128,-1,12
 98.2265625 58.57421875 98.2265625 58.57421875 90.900390625 65.900390625 c 128,-1,13
 83.57421875 73.2265625 83.57421875 73.2265625 83.57421875 83.58203125 c 128,-1,14
 83.57421875 93.9296875 83.57421875 93.9296875 90.900390625 101.255859375 c 2,15,-1
 161.617404514 171.966145833 l 0,16,17
 232.334418403 242.676432292 232.334418403 242.676432292 303.045355903 313.387369792 c 128,-1,18
 373.756293403 384.098307292 373.756293403 384.098307292 373.744140625 384.099609375 c 1,19,20
 379.489787968 389.843718392 379.489787968 389.843718392 387.51171875 391.11328125 c 0,0,1
104.66796875 391.11328125 m 0,21,22
 106.634460449 391.424804688 106.634460449 391.424804688 108.58203125 391.424804688 c 0,23,24
 118.929082971 391.424804688 118.929082971 391.424804688 126.255859375 384.099609375 c 2,25,-1
 409.099609375 101.255859375 l 1,26,27
 416.42578125 93.9296875 416.42578125 93.9296875 416.42578125 83.57421875 c 128,-1,28
 416.42578125 73.2265625 416.42578125 73.2265625 409.099609375 65.900390625 c 128,-1,29
 401.7734375 58.57421875 401.7734375 58.57421875 391.41796875 58.57421875 c 128,-1,30
 381.0703125 58.57421875 381.0703125 58.57421875 373.744140625 65.900390625 c 2,31,-1
 90.900390625 348.744140625 l 1,32,33
 83.57421875 356.0703125 83.57421875 356.0703125 83.57421875 366.42578125 c 128,-1,34
 83.57421875 376.7734375 83.57421875 376.7734375 90.900390625 384.099609375 c 0,35,36
 96.6460379679 389.843718392 96.6460379679 389.843718392 104.66796875 391.11328125 c 0,21,22
250 350 m 0,37,38
 301.238592177 349.673127357 301.238592177 349.673127357 338.388671875 313.388671875 c 0,39,40
 345.710693359 306.066650391 345.710693359 306.066650391 345.710693359 295.7109375 c 128,-1,41
 345.710693359 285.355224609 345.710693359 285.355224609 338.388671875 278.033203125 c 128,-1,42
 331.066650391 270.711181641 331.066650391 270.711181641 320.7109375 270.711181641 c 128,-1,43
 310.355224609 270.711181641 310.355224609 270.711181641 303.033203125 278.033203125 c 0,44,45
 281.06640625 300 281.06640625 300 250 300 c 128,-1,46
 218.932013291 300 218.932013291 300 196.966796875 278.033203125 c 0,47,48
 189.644775391 270.711181641 189.644775391 270.711181641 179.2890625 270.711181641 c 128,-1,49
 168.933349609 270.711181641 168.933349609 270.711181641 161.611328125 278.033203125 c 128,-1,50
 154.289306641 285.355224609 154.289306641 285.355224609 154.289306641 295.7109375 c 128,-1,51
 154.289306641 306.066650391 154.289306641 306.066650391 161.611328125 313.388671875 c 0,52,53
 198.754404448 349.673182595 198.754404448 349.673182595 250 350 c 0,37,38
179.2890625 179.2890625 m 0,54,-1
 179.325195312 179.29296875 l 0,55,56
 189.659600623 179.29296875 189.659600623 179.29296875 196.966796875 171.966796875 c 0,57,58
 218.93359375 150 218.93359375 150 250 150 c 128,-1,59
 281.067986709 150 281.067986709 150 303.033203125 171.966796875 c 0,60,61
 310.355224609 179.288818359 310.355224609 179.288818359 320.7109375 179.288818359 c 128,-1,62
 331.066650391 179.288818359 331.066650391 179.288818359 338.388671875 171.966796875 c 128,-1,63
 345.710693359 164.644775391 345.710693359 164.644775391 345.710693359 154.2890625 c 128,-1,64
 345.710693359 143.933349609 345.710693359 143.933349609 338.388671875 136.611328125 c 0,65,66
 301.245595552 100.326817405 301.245595552 100.326817405 250 100 c 0,67,68
 198.75689324 100.326901443 198.75689324 100.326901443 161.611328125 136.611328125 c 0,69,70
 154.289306641 143.933349609 154.289306641 143.933349609 154.289306641 154.2890625 c 128,-1,71
 154.289306641 164.644775391 154.289306641 164.644775391 161.611328125 171.966796875 c 128,-1,72
 168.914628244 179.2890625 168.914628244 179.2890625 179.254882812 179.2890625 c 0,73,-1
 179.2890625 179.2890625 l 0,54,-1
EndSplineSet
EndChar

StartChar: dollar
Encoding: 36 36 4
Width: 500
Flags: W
LayerCount: 2
Fore
SplineSet
108.578125 391.421875 m 128,-1,1
 118.926513672 391.421875 118.926513672 391.421875 126.252319336 384.096069336 c 128,-1,2
 133.578125 376.770263672 133.578125 376.770263672 133.578125 366.421875 c 128,-1,3
 133.578125 356.06640625 133.578125 356.06640625 126.255859375 348.744140625 c 0,4,5
 75 297.48828125 75 297.48828125 75 225 c 0,6,7
 75 153 75 153 126.5 101.5 c 128,-1,8
 178 50 178 50 250 50 c 128,-1,9
 322 50 322 50 373.5 101.5 c 128,-1,10
 425 153 425 153 425 225 c 0,11,12
 425 297.48828125 425 297.48828125 373.744140625 348.744140625 c 0,13,14
 366.421875 356.06640625 366.421875 356.06640625 366.421875 366.421875 c 128,-1,15
 366.421875 376.770263672 366.421875 376.770263672 373.747680664 384.096069336 c 128,-1,16
 381.073486328 391.421875 381.073486328 391.421875 391.421875 391.421875 c 128,-1,17
 401.77734375 391.421875 401.77734375 391.421875 409.099609375 384.099609375 c 0,18,19
 475 318.197638556 475 318.197638556 475 225 c 128,-1,20
 475 132 475 132 409 66 c 128,-1,21
 343 0 343 0 250 0 c 128,-1,22
 157 0 157 0 91 66 c 128,-1,23
 25 132 25 132 25 225 c 128,-1,24
 25 318.197638556 25 318.197638556 90.900390625 384.099609375 c 0,25,0
 98.22265625 391.421875 98.22265625 391.421875 108.578125 391.421875 c 128,-1,1
126.255859375 384.098632812 m 2,26,-1
 409.098632812 101.255859375 l 1,27,28
 416.424804688 93.9312684607 416.424804688 93.9312684607 416.424804688 83.5751953125 c 128,-1,29
 416.424804688 73.2259581018 416.424804688 73.2259581018 409.098632812 65.9013671875 c 128,-1,30
 401.774041898 58.5751953125 401.774041898 58.5751953125 391.41796875 58.5751953125 c 128,-1,31
 381.068731539 58.5751953125 381.068731539 58.5751953125 373.744140625 65.9013671875 c 2,32,-1
 90.9013671875 348.744140625 l 1,33,34
 83.5751953125 356.068731539 83.5751953125 356.068731539 83.5751953125 366.424804688 c 128,-1,35
 83.5751953125 376.774041898 83.5751953125 376.774041898 90.9013671875 384.098632812 c 128,-1,36
 98.2259581018 391.424804688 98.2259581018 391.424804688 108.58203125 391.424804688 c 128,-1,37
 118.931268461 391.424804688 118.931268461 391.424804688 126.255859375 384.098632812 c 2,26,-1
250 650 m 128,-1,39
 260 650 260 650 267.5 642.5 c 128,-1,40
 275 635 275 635 275 625 c 2,41,-1
 275 -175 l 2,42,43
 275 -185 275 -185 267.5 -192.5 c 128,-1,44
 260 -200 260 -200 250 -200 c 128,-1,45
 240 -200 240 -200 232.5 -192.5 c 128,-1,46
 225 -185 225 -185 225 -175 c 2,47,-1
 225 625 l 2,48,49
 225 635 225 635 232.5 642.5 c 128,-1,38
 240 650 240 650 250 650 c 128,-1,39
EndSplineSet
EndChar

StartChar: percent
Encoding: 37 37 5
Width: 500
Flags: W
LayerCount: 2
Fore
SplineSet
250 350 m 128,-1,1
 302 350 302 350 338.5 313.5 c 128,-1,2
 375 277 375 277 375 225 c 128,-1,3
 375 173 375 173 338.5 136.5 c 128,-1,4
 302 100 302 100 250 100 c 128,-1,5
 198 100 198 100 161.5 136.5 c 128,-1,6
 125 173 125 173 125 225 c 128,-1,7
 125 277 125 277 161.5 313.5 c 128,-1,0
 198 350 198 350 250 350 c 128,-1,1
250 300 m 128,-1,9
 219 300 219 300 197 278 c 128,-1,10
 175 256 175 256 175 225 c 128,-1,11
 175 194 175 194 197 172 c 128,-1,12
 219 150 219 150 250 150 c 128,-1,13
 281 150 281 150 303 172 c 128,-1,14
 325 194 325 194 325 225 c 128,-1,15
 325 256 325 256 303 278 c 128,-1,8
 281 300 281 300 250 300 c 128,-1,9
90.9013671875 101.255859375 m 2,16,-1
 161.613579644 171.966552734 l 0,17,18
 232.325792101 242.677246094 232.325792101 242.677246094 303.03648546 313.387939453 c 128,-1,19
 373.747178819 384.098632812 373.747178819 384.098632812 373.744140625 384.098632812 c 1,20,21
 381.068731539 391.424804688 381.068731539 391.424804688 391.424804688 391.424804688 c 128,-1,22
 401.774041898 391.424804688 401.774041898 391.424804688 409.098632812 384.098632812 c 128,-1,23
 416.424804688 376.774041898 416.424804688 376.774041898 416.424804688 366.41796875 c 128,-1,24
 416.424804688 356.068731539 416.424804688 356.068731539 409.098632812 348.744140625 c 2,25,-1
 338.386420356 278.033447266 l 0,26,27
 267.674207899 207.322753906 267.674207899 207.322753906 196.96351454 136.612060547 c 128,-1,28
 126.252821181 65.9013671875 126.252821181 65.9013671875 126.255859375 65.9013671875 c 1,29,30
 118.931268461 58.5751953125 118.931268461 58.5751953125 108.575195312 58.5751953125 c 128,-1,31
 98.2259581018 58.5751953125 98.2259581018 58.5751953125 90.9013671875 65.9013671875 c 128,-1,32
 83.5751953125 73.2259581018 83.5751953125 73.2259581018 83.5751953125 83.58203125 c 128,-1,33
 83.5751953125 93.9312684607 83.5751953125 93.9312684607 90.9013671875 101.255859375 c 2,16,-1
EndSplineSet
EndChar

StartChar: ampersand
Encoding: 38 38 6
Width: 500
Flags: W
LayerCount: 2
Fore
SplineSet
250 450 m 128,-1,1
 343 450 343 450 409 384 c 128,-1,2
 475 318 475 318 475 225 c 128,-1,3
 475 132 475 132 409 66 c 128,-1,4
 343 0 343 0 250 0 c 128,-1,5
 156.802361444 0 156.802361444 0 90.900390625 65.900390625 c 0,6,7
 83.578125 73.22265625 83.578125 73.22265625 83.578125 83.578125 c 128,-1,8
 83.578125 93.9265136719 83.578125 93.9265136719 90.9039306641 101.252319336 c 128,-1,9
 98.2297363281 108.578125 98.2297363281 108.578125 108.578125 108.578125 c 128,-1,10
 118.93359375 108.578125 118.93359375 108.578125 126.255859375 101.255859375 c 0,11,12
 177.51171875 50 177.51171875 50 250 50 c 0,13,14
 322 50 322 50 373.5 101.5 c 128,-1,15
 425 153 425 153 425 225 c 128,-1,16
 425 297 425 297 373.5 348.5 c 128,-1,17
 322 400 322 400 250 400 c 0,18,19
 177.51171875 400 177.51171875 400 126.255859375 348.744140625 c 0,20,21
 118.93359375 341.421875 118.93359375 341.421875 108.578125 341.421875 c 128,-1,22
 98.2297363281 341.421875 98.2297363281 341.421875 90.9039306641 348.747680664 c 128,-1,23
 83.578125 356.073486328 83.578125 356.073486328 83.578125 366.421875 c 128,-1,24
 83.578125 376.77734375 83.578125 376.77734375 90.900390625 384.099609375 c 0,25,0
 156.802361444 450 156.802361444 450 250 450 c 128,-1,1
250 350 m 0,26,27
 302 350 302 350 338.5 313.5 c 128,-1,28
 375 277 375 277 375 225 c 128,-1,29
 375 173 375 173 338.5 136.5 c 128,-1,30
 302 100 302 100 250 100 c 0,31,32
 198.22265625 100 198.22265625 100 161.611328125 136.611328125 c 0,33,34
 154.2890625 143.93359375 154.2890625 143.93359375 154.2890625 154.2890625 c 128,-1,35
 154.2890625 164.637451172 154.2890625 164.637451172 161.614868164 171.963256836 c 128,-1,36
 168.940673828 179.2890625 168.940673828 179.2890625 179.2890625 179.2890625 c 128,-1,37
 189.64453125 179.2890625 189.64453125 179.2890625 196.966796875 171.966796875 c 0,38,39
 218.935173981 150 218.935173981 150 250 150 c 128,-1,40
 281 150 281 150 303 172 c 128,-1,41
 325 194 325 194 325 225 c 128,-1,42
 325 256 325 256 303 278 c 128,-1,43
 281 300 281 300 250 300 c 128,-1,44
 218.935173981 300 218.935173981 300 196.966796875 278.033203125 c 0,45,46
 189.64453125 270.7109375 189.64453125 270.7109375 179.2890625 270.7109375 c 128,-1,47
 168.940673828 270.7109375 168.940673828 270.7109375 161.614868164 278.036743164 c 128,-1,48
 154.2890625 285.362548828 154.2890625 285.362548828 154.2890625 295.7109375 c 128,-1,49
 154.2890625 306.06640625 154.2890625 306.06640625 161.611328125 313.388671875 c 0,50,51
 198.22265625 350 198.22265625 350 250 350 c 0,26,27
250 250 m 128,-1,53
 260 250 260 250 267.5 242.5 c 128,-1,54
 275 235 275 235 275 225 c 128,-1,55
 275 215 275 215 267.5 207.5 c 128,-1,56
 260 200 260 200 250 200 c 128,-1,57
 240 200 240 200 232.5 207.5 c 128,-1,58
 225 215 225 215 225 225 c 128,-1,59
 225 235 225 235 232.5 242.5 c 128,-1,52
 240 250 240 250 250 250 c 128,-1,53
EndSplineSet
EndChar

StartChar: quotesingle
Encoding: 39 39 7
Width: 500
Flags: W
LayerCount: 2
Fore
SplineSet
250 250 m 128,-1,1
 260 250 260 250 267.5 242.5 c 128,-1,2
 275 235 275 235 275 225 c 128,-1,3
 275 215 275 215 267.5 207.5 c 128,-1,4
 260 200 260 200 250 200 c 128,-1,5
 240 200 240 200 232.5 207.5 c 128,-1,6
 225 215 225 215 225 225 c 128,-1,7
 225 235 225 235 232.5 242.5 c 128,-1,0
 240 250 240 250 250 250 c 128,-1,1
EndSplineSet
EndChar

StartChar: parenleft
Encoding: 40 40 8
Width: 500
Flags: W
LayerCount: 2
Fore
SplineSet
350 550 m 0,0,1
 360 550 360 550 367.5 542.5 c 128,-1,2
 375 535 375 535 375 525 c 128,-1,3
 375 515 375 515 367.5 507.5 c 128,-1,4
 360 500 360 500 350 500 c 1,5,-1
 350 499.716796875 l 1,6,-1
 349.703125 499.725585938 l 0,7,8
 318.893008723 499.725585938 318.893008723 499.725585938 296.966796875 478.033203125 c 0,9,10
 275 456.067871094 275 456.067871094 275 425 c 2,11,-1
 275 25 l 2,12,13
 275 -6.06640625 275 -6.06640625 296.966796875 -28.033203125 c 0,14,15
 318.88511201 -49.7177734375 318.88511201 -49.7177734375 349.709960938 -49.7177734375 c 0,16,-1
 350 -49.716796875 l 1,17,-1
 350 -50 l 1,18,19
 360.354625616 -50 360.354625616 -50 367.677312808 -57.3236750888 c 128,-1,20
 375 -64.6473501777 375 -64.6473501777 375 -75.001953125 c 128,-1,21
 375 -85.3563698082 375 -85.3563698082 367.677405918 -92.6791614666 c 128,-1,22
 360.354811837 -100.001953125 360.354811837 -100.001953125 350 -100.001953125 c 0,23,24
 298.08038125 -99.3951529751 298.08038125 -99.3951529751 261.611328125 -63.388671875 c 0,25,26
 225 -26.7758789453 225 -26.7758789453 225 25 c 2,27,-1
 225 425 l 2,28,29
 225 476.775878945 225 476.775878945 261.611328125 513.388671875 c 0,30,31
 298.078814947 549.394492054 298.078814947 549.394492054 350 550 c 0,0,1
253.400390625 449.748046875 m 1,32,33
 254.575518533 449.588334977 254.575518533 449.588334977 255.724609375 449.3203125 c 1,34,35
 254.575518533 449.588334977 254.575518533 449.588334977 253.400390625 449.748046875 c 1,32,33
256.048828125 449.251953125 m 1,36,37
 257.346177314 448.922444163 257.346177314 448.922444163 258.5859375 448.462890625 c 1,38,39
 257.346177314 448.922444163 257.346177314 448.922444163 256.048828125 449.251953125 c 1,36,37
273.4609375 433.587890625 m 1,40,41
 273.926695205 432.331393152 273.926695205 432.331393152 274.251953125 431.05078125 c 1,42,43
 273.922829192 432.3451386 273.922829192 432.3451386 273.462890625 433.5859375 c 2,44,-1
 273.4609375 433.587890625 l 1,40,41
EndSplineSet
EndChar

StartChar: parenright
Encoding: 41 41 9
Width: 500
Flags: W
LayerCount: 2
Fore
SplineSet
150 550.001953125 m 0,0,1
 201.91961875 549.395152975 201.91961875 549.395152975 238.388671875 513.388671875 c 0,2,3
 275 476.775878945 275 476.775878945 275 425 c 2,4,-1
 275 25 l 2,5,6
 275 -26.7758789453 275 -26.7758789453 238.388671875 -63.388671875 c 0,7,8
 201.921185053 -99.3944920541 201.921185053 -99.3944920541 150 -100 c 0,9,10
 140 -100 140 -100 132.5 -92.5 c 128,-1,11
 125 -85 125 -85 125 -75 c 128,-1,12
 125 -65 125 -65 132.5 -57.5 c 128,-1,13
 140 -50 140 -50 150 -50 c 1,14,-1
 150 -49.716796875 l 1,15,-1
 150.296875 -49.7255859375 l 0,16,17
 181.106991277 -49.7255859375 181.106991277 -49.7255859375 203.033203125 -28.033203125 c 0,18,19
 225 -6.06787109375 225 -6.06787109375 225 25 c 2,20,-1
 225 425 l 2,21,22
 225 456.06640625 225 456.06640625 203.033203125 478.033203125 c 0,23,24
 181.11488799 499.717773438 181.11488799 499.717773438 150.290039062 499.717773438 c 0,25,-1
 150 499.716796875 l 1,26,-1
 150 500 l 1,27,28
 139.645374384 500 139.645374384 500 132.322687192 507.323675089 c 128,-1,29
 125 514.647350178 125 514.647350178 125 525.001953125 c 128,-1,30
 125 535.356369808 125 535.356369808 132.322594082 542.679161467 c 128,-1,31
 139.645188163 550.001953125 139.645188163 550.001953125 150 550.001953125 c 0,0,1
253.400390625 449.748046875 m 1,32,33
 254.575518533 449.588334977 254.575518533 449.588334977 255.724609375 449.3203125 c 1,34,35
 254.575518533 449.588334977 254.575518533 449.588334977 253.400390625 449.748046875 c 1,32,33
256.048828125 449.251953125 m 1,36,37
 257.346177314 448.922444163 257.346177314 448.922444163 258.5859375 448.462890625 c 1,38,39
 257.346177314 448.922444163 257.346177314 448.922444163 256.048828125 449.251953125 c 1,36,37
273.4609375 433.587890625 m 1,40,41
 273.926695205 432.331393152 273.926695205 432.331393152 274.251953125 431.05078125 c 1,42,43
 273.922829192 432.3451386 273.922829192 432.3451386 273.462890625 433.5859375 c 2,44,-1
 273.4609375 433.587890625 l 1,40,41
EndSplineSet
EndChar

StartChar: asterisk
Encoding: 42 42 10
Width: 500
Flags: W
LayerCount: 2
Fore
SplineSet
250 450 m 128,-1,1
 260 450 260 450 267.5 442.5 c 128,-1,2
 275 435 275 435 275 425 c 2,3,-1
 275 285.35546875 l 1,4,-1
 299.687554253 310.041503906 l 0,5,6
 324.375108507 334.727539062 324.375108507 334.727539062 349.061143663 359.413574219 c 128,-1,7
 373.747178819 384.099609375 373.747178819 384.099609375 373.744140625 384.099609375 c 1,8,9
 381.0703125 391.42578125 381.0703125 391.42578125 391.42578125 391.42578125 c 128,-1,10
 401.7734375 391.42578125 401.7734375 391.42578125 409.099609375 384.099609375 c 128,-1,11
 416.42578125 376.7734375 416.42578125 376.7734375 416.42578125 366.41796875 c 128,-1,12
 416.42578125 356.0703125 416.42578125 356.0703125 409.099609375 348.744140625 c 2,13,-1
 285.35546875 225 l 1,14,-1
 409.099609375 101.255859375 l 1,15,16
 416.42578125 93.9296875 416.42578125 93.9296875 416.42578125 83.57421875 c 128,-1,17
 416.42578125 73.2265625 416.42578125 73.2265625 409.099609375 65.900390625 c 128,-1,18
 401.7734375 58.57421875 401.7734375 58.57421875 391.41796875 58.57421875 c 128,-1,19
 381.0703125 58.57421875 381.0703125 58.57421875 373.744140625 65.900390625 c 2,20,-1
 275 164.64453125 l 1,21,-1
 275 25 l 2,22,23
 275 15 275 15 267.5 7.5 c 128,-1,24
 260 0 260 0 250 0 c 128,-1,25
 240 0 240 0 232.5 7.5 c 128,-1,26
 225 15 225 15 225 25 c 2,27,-1
 225 164.64453125 l 1,28,-1
 200.312445747 139.958496094 l 0,29,30
 175.624891493 115.272460938 175.624891493 115.272460938 150.938856337 90.5864257812 c 128,-1,31
 126.252821181 65.900390625 126.252821181 65.900390625 126.255859375 65.900390625 c 1,32,33
 118.9296875 58.57421875 118.9296875 58.57421875 108.57421875 58.57421875 c 128,-1,34
 98.2265625 58.57421875 98.2265625 58.57421875 90.900390625 65.900390625 c 128,-1,35
 83.57421875 73.2265625 83.57421875 73.2265625 83.57421875 83.58203125 c 128,-1,36
 83.57421875 93.9296875 83.57421875 93.9296875 90.900390625 101.255859375 c 2,37,-1
 214.64453125 225 l 1,38,-1
 90.900390625 348.744140625 l 1,39,40
 83.57421875 356.0703125 83.57421875 356.0703125 83.57421875 366.42578125 c 128,-1,41
 83.57421875 376.7734375 83.57421875 376.7734375 90.900390625 384.099609375 c 128,-1,42
 98.2265625 391.42578125 98.2265625 391.42578125 108.58203125 391.42578125 c 128,-1,43
 118.9296875 391.42578125 118.9296875 391.42578125 126.255859375 384.099609375 c 2,44,-1
 225 285.35546875 l 1,45,-1
 225 425 l 2,46,47
 225 435 225 435 232.5 442.5 c 128,-1,0
 240 450 240 450 250 450 c 128,-1,1
EndSplineSet
EndChar

StartChar: plus
Encoding: 43 43 11
Width: 500
Flags: W
LayerCount: 2
Fore
SplineSet
250 450 m 128,-1,1
 260 450 260 450 267.5 442.5 c 128,-1,2
 275 435 275 435 275 425 c 2,3,-1
 275 250 l 1,4,-1
 450 250 l 2,5,6
 460 250 460 250 467.5 242.5 c 128,-1,7
 475 235 475 235 475 225 c 128,-1,8
 475 215 475 215 467.5 207.5 c 128,-1,9
 460 200 460 200 450 200 c 2,10,-1
 275 200 l 1,11,-1
 275 25 l 2,12,13
 275 15 275 15 267.5 7.5 c 128,-1,14
 260 0 260 0 250 0 c 128,-1,15
 240 0 240 0 232.5 7.5 c 128,-1,16
 225 15 225 15 225 25 c 2,17,-1
 225 200 l 1,18,-1
 50 200 l 2,19,20
 40 200 40 200 32.5 207.5 c 128,-1,21
 25 215 25 215 25 225 c 128,-1,22
 25 235 25 235 32.5 242.5 c 128,-1,23
 40 250 40 250 50 250 c 2,24,-1
 225 250 l 1,25,-1
 225 425 l 2,26,27
 225 435 225 435 232.5 442.5 c 128,-1,0
 240 450 240 450 250 450 c 128,-1,1
EndSplineSet
EndChar

StartChar: comma
Encoding: 44 44 12
Width: 500
Flags: W
LayerCount: 2
Fore
SplineSet
50 250 m 128,-1,1
 60 250 60 250 67.5 242.5 c 128,-1,2
 75 235 75 235 75 225 c 128,-1,3
 75 215 75 215 67.5 207.5 c 128,-1,4
 60 200 60 200 50 200 c 128,-1,5
 40 200 40 200 32.5 207.5 c 128,-1,6
 25 215 25 215 25 225 c 128,-1,7
 25 235 25 235 32.5 242.5 c 128,-1,0
 40 250 40 250 50 250 c 128,-1,1
250 250 m 128,-1,9
 260 250 260 250 267.5 242.5 c 128,-1,10
 275 235 275 235 275 225 c 128,-1,11
 275 215 275 215 267.5 207.5 c 128,-1,12
 260 200 260 200 250 200 c 128,-1,13
 240 200 240 200 232.5 207.5 c 128,-1,14
 225 215 225 215 225 225 c 128,-1,15
 225 235 225 235 232.5 242.5 c 128,-1,8
 240 250 240 250 250 250 c 128,-1,9
450 250 m 128,-1,17
 460 250 460 250 467.5 242.5 c 128,-1,18
 475 235 475 235 475 225 c 128,-1,19
 475 215 475 215 467.5 207.5 c 128,-1,20
 460 200 460 200 450 200 c 128,-1,21
 440 200 440 200 432.5 207.5 c 128,-1,22
 425 215 425 215 425 225 c 128,-1,23
 425 235 425 235 432.5 242.5 c 128,-1,16
 440 250 440 250 450 250 c 128,-1,17
EndSplineSet
EndChar

StartChar: hyphen
Encoding: 45 45 13
Width: 500
Flags: W
LayerCount: 2
Fore
SplineSet
50 250 m 2,0,-1
 450 250 l 2,1,2
 460 250 460 250 467.5 242.5 c 128,-1,3
 475 235 475 235 475 225 c 128,-1,4
 475 215 475 215 467.5 207.5 c 128,-1,5
 460 200 460 200 450 200 c 2,6,-1
 50 200 l 2,7,8
 40 200 40 200 32.5 207.5 c 128,-1,9
 25 215 25 215 25 225 c 128,-1,10
 25 235 25 235 32.5 242.5 c 128,-1,11
 40 250 40 250 50 250 c 2,0,-1
EndSplineSet
EndChar

StartChar: period
Encoding: 46 46 14
Width: 500
Flags: W
LayerCount: 2
Fore
SplineSet
250 450 m 128,-1,1
 260 450 260 450 267.5 442.5 c 128,-1,2
 275 435 275 435 275 425 c 128,-1,3
 275 415 275 415 267.5 407.5 c 128,-1,4
 260 400 260 400 250 400 c 128,-1,5
 240 400 240 400 232.5 407.5 c 128,-1,6
 225 415 225 415 225 425 c 128,-1,7
 225 435 225 435 232.5 442.5 c 128,-1,0
 240 450 240 450 250 450 c 128,-1,1
50 250 m 128,-1,9
 60 250 60 250 67.5 242.5 c 128,-1,10
 75 235 75 235 75 225 c 128,-1,11
 75 215 75 215 67.5 207.5 c 128,-1,12
 60 200 60 200 50 200 c 128,-1,13
 40 200 40 200 32.5 207.5 c 128,-1,14
 25 215 25 215 25 225 c 128,-1,15
 25 235 25 235 32.5 242.5 c 128,-1,8
 40 250 40 250 50 250 c 128,-1,9
250 250 m 128,-1,17
 260 250 260 250 267.5 242.5 c 128,-1,18
 275 235 275 235 275 225 c 128,-1,19
 275 215 275 215 267.5 207.5 c 128,-1,20
 260 200 260 200 250 200 c 128,-1,21
 240 200 240 200 232.5 207.5 c 128,-1,22
 225 215 225 215 225 225 c 128,-1,23
 225 235 225 235 232.5 242.5 c 128,-1,16
 240 250 240 250 250 250 c 128,-1,17
450 250 m 128,-1,25
 460 250 460 250 467.5 242.5 c 128,-1,26
 475 235 475 235 475 225 c 128,-1,27
 475 215 475 215 467.5 207.5 c 128,-1,28
 460 200 460 200 450 200 c 128,-1,29
 440 200 440 200 432.5 207.5 c 128,-1,30
 425 215 425 215 425 225 c 128,-1,31
 425 235 425 235 432.5 242.5 c 128,-1,24
 440 250 440 250 450 250 c 128,-1,25
250 50 m 128,-1,33
 260 50 260 50 267.5 42.5 c 128,-1,34
 275 35 275 35 275 25 c 128,-1,35
 275 15 275 15 267.5 7.5 c 128,-1,36
 260 0 260 0 250 0 c 128,-1,37
 240 0 240 0 232.5 7.5 c 128,-1,38
 225 15 225 15 225 25 c 128,-1,39
 225 35 225 35 232.5 42.5 c 128,-1,32
 240 50 240 50 250 50 c 128,-1,33
EndSplineSet
EndChar

StartChar: slash
Encoding: 47 47 15
Width: 500
Flags: W
LayerCount: 2
Fore
SplineSet
90.9013671875 101.255859375 m 2,0,-1
 161.613579644 171.966552734 l 0,1,2
 232.325792101 242.677246094 232.325792101 242.677246094 303.03648546 313.387939453 c 128,-1,3
 373.747178819 384.098632812 373.747178819 384.098632812 373.744140625 384.098632812 c 1,4,5
 381.068731539 391.424804688 381.068731539 391.424804688 391.424804688 391.424804688 c 128,-1,6
 401.774041898 391.424804688 401.774041898 391.424804688 409.098632812 384.098632812 c 128,-1,7
 416.424804688 376.774041898 416.424804688 376.774041898 416.424804688 366.41796875 c 128,-1,8
 416.424804688 356.068731539 416.424804688 356.068731539 409.098632812 348.744140625 c 2,9,-1
 338.386420356 278.033447266 l 0,10,11
 267.674207899 207.322753906 267.674207899 207.322753906 196.96351454 136.612060547 c 128,-1,12
 126.252821181 65.9013671875 126.252821181 65.9013671875 126.255859375 65.9013671875 c 1,13,14
 118.931268461 58.5751953125 118.931268461 58.5751953125 108.575195312 58.5751953125 c 128,-1,15
 98.2259581018 58.5751953125 98.2259581018 58.5751953125 90.9013671875 65.9013671875 c 128,-1,16
 83.5751953125 73.2259581018 83.5751953125 73.2259581018 83.5751953125 83.58203125 c 128,-1,17
 83.5751953125 93.9312684607 83.5751953125 93.9312684607 90.9013671875 101.255859375 c 2,0,-1
EndSplineSet
EndChar

StartChar: zero
Encoding: 48 48 16
Width: 500
Flags: W
LayerCount: 2
Fore
SplineSet
250 350 m 128,-1,1
 302 350 302 350 338.5 313.5 c 128,-1,2
 375 277 375 277 375 225 c 128,-1,3
 375 173 375 173 338.5 136.5 c 128,-1,4
 302 100 302 100 250 100 c 128,-1,5
 198 100 198 100 161.5 136.5 c 128,-1,6
 125 173 125 173 125 225 c 128,-1,7
 125 277 125 277 161.5 313.5 c 128,-1,0
 198 350 198 350 250 350 c 128,-1,1
250 300 m 128,-1,9
 219 300 219 300 197 278 c 128,-1,10
 175 256 175 256 175 225 c 128,-1,11
 175 194 175 194 197 172 c 128,-1,12
 219 150 219 150 250 150 c 128,-1,13
 281 150 281 150 303 172 c 128,-1,14
 325 194 325 194 325 225 c 128,-1,15
 325 256 325 256 303 278 c 128,-1,8
 281 300 281 300 250 300 c 128,-1,9
EndSplineSet
EndChar

StartChar: one
Encoding: 49 49 17
Width: 500
Flags: W
LayerCount: 2
Fore
SplineSet
250 450 m 0,0,1
 343 450 343 450 409 384 c 128,-1,2
 475 318 475 318 475 225 c 128,-1,3
 475 132 475 132 409 66 c 128,-1,4
 343 0 343 0 250 0 c 128,-1,5
 157 0 157 0 91 66 c 128,-1,6
 25 132 25 132 25 225 c 0,7,8
 25 235 25 235 32.5 242.5 c 128,-1,9
 40 250 40 250 50 250 c 128,-1,10
 60 250 60 250 67.5 242.5 c 128,-1,11
 75 235 75 235 75 225 c 0,12,13
 75 153 75 153 126.5 101.5 c 128,-1,14
 178 50 178 50 250 50 c 128,-1,15
 322 50 322 50 373.5 101.5 c 128,-1,16
 425 153 425 153 425 225 c 128,-1,17
 425 297 425 297 373.5 348.5 c 128,-1,18
 322 400 322 400 250 400 c 0,19,20
 240 400 240 400 232.5 407.5 c 128,-1,21
 225 415 225 415 225 425 c 128,-1,22
 225 435 225 435 232.5 442.5 c 128,-1,23
 240 450 240 450 250 450 c 0,0,1
250 350 m 128,-1,25
 302 350 302 350 338.5 313.5 c 128,-1,26
 375 277 375 277 375 225 c 128,-1,27
 375 173 375 173 338.5 136.5 c 128,-1,28
 302 100 302 100 250 100 c 128,-1,29
 198 100 198 100 161.5 136.5 c 128,-1,30
 125 173 125 173 125 225 c 128,-1,31
 125 277 125 277 161.5 313.5 c 128,-1,24
 198 350 198 350 250 350 c 128,-1,25
250 300 m 128,-1,33
 219 300 219 300 197 278 c 128,-1,34
 175 256 175 256 175 225 c 128,-1,35
 175 194 175 194 197 172 c 128,-1,36
 219 150 219 150 250 150 c 128,-1,37
 281 150 281 150 303 172 c 128,-1,38
 325 194 325 194 325 225 c 128,-1,39
 325 256 325 256 303 278 c 128,-1,32
 281 300 281 300 250 300 c 128,-1,33
EndSplineSet
EndChar

StartChar: two
Encoding: 50 50 18
Width: 500
Flags: W
LayerCount: 2
Fore
SplineSet
108.578125 391.421875 m 128,-1,1
 118.926513672 391.421875 118.926513672 391.421875 126.252319336 384.096069336 c 128,-1,2
 133.578125 376.770263672 133.578125 376.770263672 133.578125 366.421875 c 128,-1,3
 133.578125 356.06640625 133.578125 356.06640625 126.255859375 348.744140625 c 0,4,5
 75 297.48828125 75 297.48828125 75 225 c 0,6,7
 75 153 75 153 126.5 101.5 c 128,-1,8
 178 50 178 50 250 50 c 128,-1,9
 322 50 322 50 373.5 101.5 c 128,-1,10
 425 153 425 153 425 225 c 0,11,12
 425 297.48828125 425 297.48828125 373.744140625 348.744140625 c 0,13,14
 366.421875 356.06640625 366.421875 356.06640625 366.421875 366.421875 c 128,-1,15
 366.421875 376.770263672 366.421875 376.770263672 373.747680664 384.096069336 c 128,-1,16
 381.073486328 391.421875 381.073486328 391.421875 391.421875 391.421875 c 128,-1,17
 401.77734375 391.421875 401.77734375 391.421875 409.099609375 384.099609375 c 0,18,19
 475 318.197638556 475 318.197638556 475 225 c 128,-1,20
 475 132 475 132 409 66 c 128,-1,21
 343 0 343 0 250 0 c 128,-1,22
 157 0 157 0 91 66 c 128,-1,23
 25 132 25 132 25 225 c 128,-1,24
 25 318.197638556 25 318.197638556 90.900390625 384.099609375 c 0,25,0
 98.22265625 391.421875 98.22265625 391.421875 108.578125 391.421875 c 128,-1,1
250 350 m 128,-1,27
 302 350 302 350 338.5 313.5 c 128,-1,28
 375 277 375 277 375 225 c 128,-1,29
 375 173 375 173 338.5 136.5 c 128,-1,30
 302 100 302 100 250 100 c 128,-1,31
 198 100 198 100 161.5 136.5 c 128,-1,32
 125 173 125 173 125 225 c 128,-1,33
 125 277 125 277 161.5 313.5 c 128,-1,26
 198 350 198 350 250 350 c 128,-1,27
250 300 m 128,-1,35
 219 300 219 300 197 278 c 128,-1,36
 175 256 175 256 175 225 c 128,-1,37
 175 194 175 194 197 172 c 128,-1,38
 219 150 219 150 250 150 c 128,-1,39
 281 150 281 150 303 172 c 128,-1,40
 325 194 325 194 325 225 c 128,-1,41
 325 256 325 256 303 278 c 128,-1,34
 281 300 281 300 250 300 c 128,-1,35
EndSplineSet
EndChar

StartChar: three
Encoding: 51 51 19
Width: 500
Flags: W
LayerCount: 2
Fore
SplineSet
250 450 m 0,0,1
 260 450 260 450 267.5 442.5 c 128,-1,2
 275 435 275 435 275 425 c 128,-1,3
 275 415 275 415 267.5 407.5 c 128,-1,4
 260 400 260 400 250 400 c 0,5,6
 178 400 178 400 126.5 348.5 c 128,-1,7
 75 297 75 297 75 225 c 128,-1,8
 75 153 75 153 126.5 101.5 c 128,-1,9
 178 50 178 50 250 50 c 128,-1,10
 322 50 322 50 373.5 101.5 c 128,-1,11
 425 153 425 153 425 225 c 0,12,13
 425 235 425 235 432.5 242.5 c 128,-1,14
 440 250 440 250 450 250 c 128,-1,15
 460 250 460 250 467.5 242.5 c 128,-1,16
 475 235 475 235 475 225 c 0,17,18
 475 132 475 132 409 66 c 128,-1,19
 343 0 343 0 250 0 c 128,-1,20
 157 0 157 0 91 66 c 128,-1,21
 25 132 25 132 25 225 c 128,-1,22
 25 318 25 318 91 384 c 128,-1,23
 157 450 157 450 250 450 c 0,0,1
250 350 m 128,-1,25
 302 350 302 350 338.5 313.5 c 128,-1,26
 375 277 375 277 375 225 c 128,-1,27
 375 173 375 173 338.5 136.5 c 128,-1,28
 302 100 302 100 250 100 c 128,-1,29
 198 100 198 100 161.5 136.5 c 128,-1,30
 125 173 125 173 125 225 c 128,-1,31
 125 277 125 277 161.5 313.5 c 128,-1,24
 198 350 198 350 250 350 c 128,-1,25
250 300 m 128,-1,33
 219 300 219 300 197 278 c 128,-1,34
 175 256 175 256 175 225 c 128,-1,35
 175 194 175 194 197 172 c 128,-1,36
 219 150 219 150 250 150 c 128,-1,37
 281 150 281 150 303 172 c 128,-1,38
 325 194 325 194 325 225 c 128,-1,39
 325 256 325 256 303 278 c 128,-1,32
 281 300 281 300 250 300 c 128,-1,33
EndSplineSet
EndChar

StartChar: four
Encoding: 52 52 20
Width: 500
Flags: W
LayerCount: 2
Fore
SplineSet
250 450 m 128,-1,1
 343 450 343 450 409 384 c 128,-1,2
 475 318 475 318 475 225 c 128,-1,3
 475 132 475 132 409 66 c 128,-1,4
 343 0 343 0 250 0 c 128,-1,5
 156.802361444 0 156.802361444 0 90.900390625 65.900390625 c 0,6,7
 83.578125 73.22265625 83.578125 73.22265625 83.578125 83.578125 c 128,-1,8
 83.578125 93.9265136719 83.578125 93.9265136719 90.9039306641 101.252319336 c 128,-1,9
 98.2297363281 108.578125 98.2297363281 108.578125 108.578125 108.578125 c 128,-1,10
 118.93359375 108.578125 118.93359375 108.578125 126.255859375 101.255859375 c 0,11,12
 177.51171875 50 177.51171875 50 250 50 c 0,13,14
 322 50 322 50 373.5 101.5 c 128,-1,15
 425 153 425 153 425 225 c 128,-1,16
 425 297 425 297 373.5 348.5 c 128,-1,17
 322 400 322 400 250 400 c 0,18,19
 177.51171875 400 177.51171875 400 126.255859375 348.744140625 c 0,20,21
 118.93359375 341.421875 118.93359375 341.421875 108.578125 341.421875 c 128,-1,22
 98.2297363281 341.421875 98.2297363281 341.421875 90.9039306641 348.747680664 c 128,-1,23
 83.578125 356.073486328 83.578125 356.073486328 83.578125 366.421875 c 128,-1,24
 83.578125 376.77734375 83.578125 376.77734375 90.900390625 384.099609375 c 0,25,0
 156.802361444 450 156.802361444 450 250 450 c 128,-1,1
250 350 m 128,-1,27
 302 350 302 350 338.5 313.5 c 128,-1,28
 375 277 375 277 375 225 c 128,-1,29
 375 173 375 173 338.5 136.5 c 128,-1,30
 302 100 302 100 250 100 c 128,-1,31
 198 100 198 100 161.5 136.5 c 128,-1,32
 125 173 125 173 125 225 c 128,-1,33
 125 277 125 277 161.5 313.5 c 128,-1,26
 198 350 198 350 250 350 c 128,-1,27
250 300 m 128,-1,35
 219 300 219 300 197 278 c 128,-1,36
 175 256 175 256 175 225 c 128,-1,37
 175 194 175 194 197 172 c 128,-1,38
 219 150 219 150 250 150 c 128,-1,39
 281 150 281 150 303 172 c 128,-1,40
 325 194 325 194 325 225 c 128,-1,41
 325 256 325 256 303 278 c 128,-1,34
 281 300 281 300 250 300 c 128,-1,35
EndSplineSet
EndChar

StartChar: five
Encoding: 53 53 21
Width: 500
Flags: W
LayerCount: 2
Fore
SplineSet
250 450 m 128,-1,1
 343 450 343 450 409 384 c 128,-1,2
 475 318 475 318 475 225 c 128,-1,3
 475 132 475 132 409 66 c 128,-1,4
 343 0 343 0 250 0 c 128,-1,5
 157 0 157 0 91 66 c 128,-1,6
 25 132 25 132 25 225 c 128,-1,7
 25 318 25 318 91 384 c 128,-1,0
 157 450 157 450 250 450 c 128,-1,1
250 400 m 128,-1,9
 178 400 178 400 126.5 348.5 c 128,-1,10
 75 297 75 297 75 225 c 128,-1,11
 75 153 75 153 126.5 101.5 c 128,-1,12
 178 50 178 50 250 50 c 128,-1,13
 322 50 322 50 373.5 101.5 c 128,-1,14
 425 153 425 153 425 225 c 128,-1,15
 425 297 425 297 373.5 348.5 c 128,-1,8
 322 400 322 400 250 400 c 128,-1,9
250 350 m 128,-1,17
 302 350 302 350 338.5 313.5 c 128,-1,18
 375 277 375 277 375 225 c 128,-1,19
 375 173 375 173 338.5 136.5 c 128,-1,20
 302 100 302 100 250 100 c 128,-1,21
 198 100 198 100 161.5 136.5 c 128,-1,22
 125 173 125 173 125 225 c 128,-1,23
 125 277 125 277 161.5 313.5 c 128,-1,16
 198 350 198 350 250 350 c 128,-1,17
250 300 m 128,-1,25
 219 300 219 300 197 278 c 128,-1,26
 175 256 175 256 175 225 c 128,-1,27
 175 194 175 194 197 172 c 128,-1,28
 219 150 219 150 250 150 c 128,-1,29
 281 150 281 150 303 172 c 128,-1,30
 325 194 325 194 325 225 c 128,-1,31
 325 256 325 256 303 278 c 128,-1,24
 281 300 281 300 250 300 c 128,-1,25
EndSplineSet
EndChar

StartChar: six
Encoding: 54 54 22
Width: 500
Flags: W
LayerCount: 2
Fore
SplineSet
250 450 m 128,-1,1
 343.197638556 450 343.197638556 450 409.099609375 384.099609375 c 0,2,3
 416.421875 376.77734375 416.421875 376.77734375 416.421875 366.421875 c 128,-1,4
 416.421875 356.073486328 416.421875 356.073486328 409.096069336 348.747680664 c 128,-1,5
 401.770263672 341.421875 401.770263672 341.421875 391.421875 341.421875 c 128,-1,6
 381.06640625 341.421875 381.06640625 341.421875 373.744140625 348.744140625 c 0,7,8
 322.48828125 400 322.48828125 400 250 400 c 0,9,10
 178 400 178 400 126.5 348.5 c 128,-1,11
 75 297 75 297 75 225 c 128,-1,12
 75 153 75 153 126.5 101.5 c 128,-1,13
 178 50 178 50 250 50 c 0,14,15
 322.48828125 50 322.48828125 50 373.744140625 101.255859375 c 0,16,17
 381.06640625 108.578125 381.06640625 108.578125 391.421875 108.578125 c 128,-1,18
 401.770263672 108.578125 401.770263672 108.578125 409.096069336 101.252319336 c 128,-1,19
 416.421875 93.9265136719 416.421875 93.9265136719 416.421875 83.578125 c 128,-1,20
 416.421875 73.22265625 416.421875 73.22265625 409.099609375 65.900390625 c 0,21,22
 343.197638556 0 343.197638556 0 250 0 c 128,-1,23
 157 0 157 0 91 66 c 128,-1,24
 25 132 25 132 25 225 c 128,-1,25
 25 318 25 318 91 384 c 128,-1,0
 157 450 157 450 250 450 c 128,-1,1
250 350 m 128,-1,27
 302 350 302 350 338.5 313.5 c 128,-1,28
 375 277 375 277 375 225 c 128,-1,29
 375 173 375 173 338.5 136.5 c 128,-1,30
 302 100 302 100 250 100 c 128,-1,31
 198 100 198 100 161.5 136.5 c 128,-1,32
 125 173 125 173 125 225 c 128,-1,33
 125 277 125 277 161.5 313.5 c 128,-1,26
 198 350 198 350 250 350 c 128,-1,27
250 300 m 128,-1,35
 219 300 219 300 197 278 c 128,-1,36
 175 256 175 256 175 225 c 128,-1,37
 175 194 175 194 197 172 c 128,-1,38
 219 150 219 150 250 150 c 128,-1,39
 281 150 281 150 303 172 c 128,-1,40
 325 194 325 194 325 225 c 128,-1,41
 325 256 325 256 303 278 c 128,-1,34
 281 300 281 300 250 300 c 128,-1,35
EndSplineSet
EndChar

StartChar: seven
Encoding: 55 55 23
Width: 500
Flags: W
LayerCount: 2
Fore
SplineSet
250 450 m 128,-1,1
 343 450 343 450 409 384 c 128,-1,2
 475 318 475 318 475 225 c 128,-1,3
 475 132 475 132 409 66 c 128,-1,4
 343 0 343 0 250 0 c 0,5,6
 240 0 240 0 232.5 7.5 c 128,-1,7
 225 15 225 15 225 25 c 128,-1,8
 225 35 225 35 232.5 42.5 c 128,-1,9
 240 50 240 50 250 50 c 0,10,11
 322 50 322 50 373.5 101.5 c 128,-1,12
 425 153 425 153 425 225 c 128,-1,13
 425 297 425 297 373.5 348.5 c 128,-1,14
 322 400 322 400 250 400 c 128,-1,15
 178 400 178 400 126.5 348.5 c 128,-1,16
 75 297 75 297 75 225 c 0,17,18
 75 215 75 215 67.5 207.5 c 128,-1,19
 60 200 60 200 50 200 c 128,-1,20
 40 200 40 200 32.5 207.5 c 128,-1,21
 25 215 25 215 25 225 c 0,22,23
 25 318 25 318 91 384 c 128,-1,0
 157 450 157 450 250 450 c 128,-1,1
250 350 m 128,-1,25
 302 350 302 350 338.5 313.5 c 128,-1,26
 375 277 375 277 375 225 c 128,-1,27
 375 173 375 173 338.5 136.5 c 128,-1,28
 302 100 302 100 250 100 c 128,-1,29
 198 100 198 100 161.5 136.5 c 128,-1,30
 125 173 125 173 125 225 c 128,-1,31
 125 277 125 277 161.5 313.5 c 128,-1,24
 198 350 198 350 250 350 c 128,-1,25
250 300 m 128,-1,33
 219 300 219 300 197 278 c 128,-1,34
 175 256 175 256 175 225 c 128,-1,35
 175 194 175 194 197 172 c 128,-1,36
 219 150 219 150 250 150 c 128,-1,37
 281 150 281 150 303 172 c 128,-1,38
 325 194 325 194 325 225 c 128,-1,39
 325 256 325 256 303 278 c 128,-1,32
 281 300 281 300 250 300 c 128,-1,33
EndSplineSet
EndChar

StartChar: eight
Encoding: 56 56 24
Width: 500
Flags: W
LayerCount: 2
Fore
SplineSet
250 450 m 128,-1,1
 343 450 343 450 409 384 c 128,-1,2
 475 318 475 318 475 225 c 128,-1,3
 475 131.802361444 475 131.802361444 409.099609375 65.900390625 c 0,4,5
 401.77734375 58.578125 401.77734375 58.578125 391.421875 58.578125 c 128,-1,6
 381.073486328 58.578125 381.073486328 58.578125 373.747680664 65.9039306641 c 128,-1,7
 366.421875 73.2297363281 366.421875 73.2297363281 366.421875 83.578125 c 128,-1,8
 366.421875 93.93359375 366.421875 93.93359375 373.744140625 101.255859375 c 0,9,10
 425 152.51171875 425 152.51171875 425 225 c 0,11,12
 425 297 425 297 373.5 348.5 c 128,-1,13
 322 400 322 400 250 400 c 128,-1,14
 178 400 178 400 126.5 348.5 c 128,-1,15
 75 297 75 297 75 225 c 0,16,17
 75 152.51171875 75 152.51171875 126.255859375 101.255859375 c 0,18,19
 133.578125 93.93359375 133.578125 93.93359375 133.578125 83.578125 c 128,-1,20
 133.578125 73.2297363281 133.578125 73.2297363281 126.252319336 65.9039306641 c 128,-1,21
 118.926513672 58.578125 118.926513672 58.578125 108.578125 58.578125 c 128,-1,22
 98.22265625 58.578125 98.22265625 58.578125 90.900390625 65.900390625 c 0,23,24
 25 131.802361444 25 131.802361444 25 225 c 128,-1,25
 25 318 25 318 91 384 c 128,-1,0
 157 450 157 450 250 450 c 128,-1,1
250 350 m 128,-1,27
 302 350 302 350 338.5 313.5 c 128,-1,28
 375 277 375 277 375 225 c 128,-1,29
 375 173 375 173 338.5 136.5 c 128,-1,30
 302 100 302 100 250 100 c 128,-1,31
 198 100 198 100 161.5 136.5 c 128,-1,32
 125 173 125 173 125 225 c 128,-1,33
 125 277 125 277 161.5 313.5 c 128,-1,26
 198 350 198 350 250 350 c 128,-1,27
250 300 m 128,-1,35
 219 300 219 300 197 278 c 128,-1,36
 175 256 175 256 175 225 c 128,-1,37
 175 194 175 194 197 172 c 128,-1,38
 219 150 219 150 250 150 c 128,-1,39
 281 150 281 150 303 172 c 128,-1,40
 325 194 325 194 325 225 c 128,-1,41
 325 256 325 256 303 278 c 128,-1,34
 281 300 281 300 250 300 c 128,-1,35
EndSplineSet
EndChar

StartChar: nine
Encoding: 57 57 25
Width: 500
Flags: W
LayerCount: 2
Fore
SplineSet
250 450 m 128,-1,1
 343 450 343 450 409 384 c 128,-1,2
 475 318 475 318 475 225 c 0,3,4
 475 215 475 215 467.5 207.5 c 128,-1,5
 460 200 460 200 450 200 c 128,-1,6
 440 200 440 200 432.5 207.5 c 128,-1,7
 425 215 425 215 425 225 c 0,8,9
 425 297 425 297 373.5 348.5 c 128,-1,10
 322 400 322 400 250 400 c 128,-1,11
 178 400 178 400 126.5 348.5 c 128,-1,12
 75 297 75 297 75 225 c 128,-1,13
 75 153 75 153 126.5 101.5 c 128,-1,14
 178 50 178 50 250 50 c 0,15,16
 260 50 260 50 267.5 42.5 c 128,-1,17
 275 35 275 35 275 25 c 128,-1,18
 275 15 275 15 267.5 7.5 c 128,-1,19
 260 0 260 0 250 0 c 0,20,21
 157 0 157 0 91 66 c 128,-1,22
 25 132 25 132 25 225 c 128,-1,23
 25 318 25 318 91 384 c 128,-1,0
 157 450 157 450 250 450 c 128,-1,1
250 350 m 128,-1,25
 302 350 302 350 338.5 313.5 c 128,-1,26
 375 277 375 277 375 225 c 128,-1,27
 375 173 375 173 338.5 136.5 c 128,-1,28
 302 100 302 100 250 100 c 128,-1,29
 198 100 198 100 161.5 136.5 c 128,-1,30
 125 173 125 173 125 225 c 128,-1,31
 125 277 125 277 161.5 313.5 c 128,-1,24
 198 350 198 350 250 350 c 128,-1,25
250 300 m 128,-1,33
 219 300 219 300 197 278 c 128,-1,34
 175 256 175 256 175 225 c 128,-1,35
 175 194 175 194 197 172 c 128,-1,36
 219 150 219 150 250 150 c 128,-1,37
 281 150 281 150 303 172 c 128,-1,38
 325 194 325 194 325 225 c 128,-1,39
 325 256 325 256 303 278 c 128,-1,32
 281 300 281 300 250 300 c 128,-1,33
EndSplineSet
EndChar

StartChar: colon
Encoding: 58 58 26
Width: 500
Flags: W
LayerCount: 2
Fore
SplineSet
250 450 m 128,-1,1
 260 450 260 450 267.5 442.5 c 128,-1,2
 275 435 275 435 275 425 c 128,-1,3
 275 415 275 415 267.5 407.5 c 128,-1,4
 260 400 260 400 250 400 c 128,-1,5
 240 400 240 400 232.5 407.5 c 128,-1,6
 225 415 225 415 225 425 c 128,-1,7
 225 435 225 435 232.5 442.5 c 128,-1,0
 240 450 240 450 250 450 c 128,-1,1
50 250 m 128,-1,9
 60 250 60 250 67.5 242.5 c 128,-1,10
 75 235 75 235 75 225 c 128,-1,11
 75 215 75 215 67.5 207.5 c 128,-1,12
 60 200 60 200 50 200 c 128,-1,13
 40 200 40 200 32.5 207.5 c 128,-1,14
 25 215 25 215 25 225 c 128,-1,15
 25 235 25 235 32.5 242.5 c 128,-1,8
 40 250 40 250 50 250 c 128,-1,9
250 250 m 128,-1,17
 260 250 260 250 267.5 242.5 c 128,-1,18
 275 235 275 235 275 225 c 128,-1,19
 275 215 275 215 267.5 207.5 c 128,-1,20
 260 200 260 200 250 200 c 128,-1,21
 240 200 240 200 232.5 207.5 c 128,-1,22
 225 215 225 215 225 225 c 128,-1,23
 225 235 225 235 232.5 242.5 c 128,-1,16
 240 250 240 250 250 250 c 128,-1,17
450 250 m 128,-1,25
 460 250 460 250 467.5 242.5 c 128,-1,26
 475 235 475 235 475 225 c 128,-1,27
 475 215 475 215 467.5 207.5 c 128,-1,28
 460 200 460 200 450 200 c 128,-1,29
 440 200 440 200 432.5 207.5 c 128,-1,30
 425 215 425 215 425 225 c 128,-1,31
 425 235 425 235 432.5 242.5 c 128,-1,24
 440 250 440 250 450 250 c 128,-1,25
250 50 m 128,-1,33
 260 50 260 50 267.5 42.5 c 128,-1,34
 275 35 275 35 275 25 c 128,-1,35
 275 15 275 15 267.5 7.5 c 128,-1,36
 260 0 260 0 250 0 c 128,-1,37
 240 0 240 0 232.5 7.5 c 128,-1,38
 225 15 225 15 225 25 c 128,-1,39
 225 35 225 35 232.5 42.5 c 128,-1,32
 240 50 240 50 250 50 c 128,-1,33
250 350 m 128,-1,41
 302 350 302 350 338.5 313.5 c 128,-1,42
 375 277 375 277 375 225 c 128,-1,43
 375 173 375 173 338.5 136.5 c 128,-1,44
 302 100 302 100 250 100 c 128,-1,45
 198 100 198 100 161.5 136.5 c 128,-1,46
 125 173 125 173 125 225 c 128,-1,47
 125 277 125 277 161.5 313.5 c 128,-1,40
 198 350 198 350 250 350 c 128,-1,41
250 300 m 128,-1,49
 219 300 219 300 197 278 c 128,-1,50
 175 256 175 256 175 225 c 128,-1,51
 175 194 175 194 197 172 c 128,-1,52
 219 150 219 150 250 150 c 128,-1,53
 281 150 281 150 303 172 c 128,-1,54
 325 194 325 194 325 225 c 128,-1,55
 325 256 325 256 303 278 c 128,-1,48
 281 300 281 300 250 300 c 128,-1,49
EndSplineSet
EndChar

StartChar: semicolon
Encoding: 59 59 27
Width: 500
Flags: W
LayerCount: 2
Fore
SplineSet
50 250 m 128,-1,1
 60 250 60 250 67.5 242.5 c 128,-1,2
 75 235 75 235 75 225 c 128,-1,3
 75 215 75 215 67.5 207.5 c 128,-1,4
 60 200 60 200 50 200 c 128,-1,5
 40 200 40 200 32.5 207.5 c 128,-1,6
 25 215 25 215 25 225 c 128,-1,7
 25 235 25 235 32.5 242.5 c 128,-1,0
 40 250 40 250 50 250 c 128,-1,1
250 250 m 128,-1,9
 260 250 260 250 267.5 242.5 c 128,-1,10
 275 235 275 235 275 225 c 128,-1,11
 275 215 275 215 267.5 207.5 c 128,-1,12
 260 200 260 200 250 200 c 128,-1,13
 240 200 240 200 232.5 207.5 c 128,-1,14
 225 215 225 215 225 225 c 128,-1,15
 225 235 225 235 232.5 242.5 c 128,-1,8
 240 250 240 250 250 250 c 128,-1,9
450 250 m 128,-1,17
 460 250 460 250 467.5 242.5 c 128,-1,18
 475 235 475 235 475 225 c 128,-1,19
 475 215 475 215 467.5 207.5 c 128,-1,20
 460 200 460 200 450 200 c 128,-1,21
 440 200 440 200 432.5 207.5 c 128,-1,22
 425 215 425 215 425 225 c 128,-1,23
 425 235 425 235 432.5 242.5 c 128,-1,16
 440 250 440 250 450 250 c 128,-1,17
250 350 m 128,-1,25
 302 350 302 350 338.5 313.5 c 128,-1,26
 375 277 375 277 375 225 c 128,-1,27
 375 173 375 173 338.5 136.5 c 128,-1,28
 302 100 302 100 250 100 c 128,-1,29
 198 100 198 100 161.5 136.5 c 128,-1,30
 125 173 125 173 125 225 c 128,-1,31
 125 277 125 277 161.5 313.5 c 128,-1,24
 198 350 198 350 250 350 c 128,-1,25
250 300 m 128,-1,33
 219 300 219 300 197 278 c 128,-1,34
 175 256 175 256 175 225 c 128,-1,35
 175 194 175 194 197 172 c 128,-1,36
 219 150 219 150 250 150 c 128,-1,37
 281 150 281 150 303 172 c 128,-1,38
 325 194 325 194 325 225 c 128,-1,39
 325 256 325 256 303 278 c 128,-1,32
 281 300 281 300 250 300 c 128,-1,33
EndSplineSet
EndChar

StartChar: less
Encoding: 60 60 28
Width: 500
Flags: W
LayerCount: 2
Fore
SplineSet
250 350 m 0,0,1
 301.77734375 350 301.77734375 350 338.388671875 313.388671875 c 0,2,3
 345.7109375 306.06640625 345.7109375 306.06640625 345.7109375 295.7109375 c 128,-1,4
 345.7109375 285.362548828 345.7109375 285.362548828 338.385131836 278.036743164 c 128,-1,5
 331.059326172 270.7109375 331.059326172 270.7109375 320.7109375 270.7109375 c 128,-1,6
 310.35546875 270.7109375 310.35546875 270.7109375 303.033203125 278.033203125 c 0,7,8
 281.064826019 300 281.064826019 300 250 300 c 128,-1,9
 219 300 219 300 197 278 c 128,-1,10
 175 256 175 256 175 225 c 128,-1,11
 175 194 175 194 197 172 c 128,-1,12
 219 150 219 150 250 150 c 128,-1,13
 281.064826019 150 281.064826019 150 303.033203125 171.966796875 c 0,14,15
 310.35546875 179.2890625 310.35546875 179.2890625 320.7109375 179.2890625 c 128,-1,16
 331.059326172 179.2890625 331.059326172 179.2890625 338.385131836 171.963256836 c 128,-1,17
 345.7109375 164.637451172 345.7109375 164.637451172 345.7109375 154.2890625 c 128,-1,18
 345.7109375 143.93359375 345.7109375 143.93359375 338.388671875 136.611328125 c 0,19,20
 301.77734375 100 301.77734375 100 250 100 c 0,21,22
 198 100 198 100 161.5 136.5 c 128,-1,23
 125 173 125 173 125 225 c 128,-1,24
 125 277 125 277 161.5 313.5 c 128,-1,25
 198 350 198 350 250 350 c 0,0,1
EndSplineSet
EndChar

StartChar: equal
Encoding: 61 61 29
Width: 500
Flags: W
LayerCount: 2
Fore
SplineSet
250 350 m 128,-1,1
 301.77734375 350 301.77734375 350 338.388671875 313.388671875 c 0,2,3
 345.7109375 306.06640625 345.7109375 306.06640625 345.7109375 295.7109375 c 128,-1,4
 345.7109375 285.362548828 345.7109375 285.362548828 338.385131836 278.036743164 c 128,-1,5
 331.059326172 270.7109375 331.059326172 270.7109375 320.7109375 270.7109375 c 128,-1,6
 310.35546875 270.7109375 310.35546875 270.7109375 303.033203125 278.033203125 c 0,7,8
 281.064826019 300 281.064826019 300 250 300 c 128,-1,9
 218.935173981 300 218.935173981 300 196.966796875 278.033203125 c 0,10,11
 189.64453125 270.7109375 189.64453125 270.7109375 179.2890625 270.7109375 c 128,-1,12
 168.940673828 270.7109375 168.940673828 270.7109375 161.614868164 278.036743164 c 128,-1,13
 154.2890625 285.362548828 154.2890625 285.362548828 154.2890625 295.7109375 c 128,-1,14
 154.2890625 306.06640625 154.2890625 306.06640625 161.611328125 313.388671875 c 0,15,0
 198.22265625 350 198.22265625 350 250 350 c 128,-1,1
179.2890625 179.2890625 m 128,-1,17
 189.64453125 179.2890625 189.64453125 179.2890625 196.966796875 171.966796875 c 0,18,19
 218.935173981 150 218.935173981 150 250 150 c 128,-1,20
 281.064826019 150 281.064826019 150 303.033203125 171.966796875 c 0,21,22
 310.35546875 179.2890625 310.35546875 179.2890625 320.7109375 179.2890625 c 128,-1,23
 331.059326172 179.2890625 331.059326172 179.2890625 338.385131836 171.963256836 c 128,-1,24
 345.7109375 164.637451172 345.7109375 164.637451172 345.7109375 154.2890625 c 128,-1,25
 345.7109375 143.93359375 345.7109375 143.93359375 338.388671875 136.611328125 c 0,26,27
 301.77734375 100 301.77734375 100 250 100 c 128,-1,28
 198.22265625 100 198.22265625 100 161.611328125 136.611328125 c 0,29,30
 154.2890625 143.93359375 154.2890625 143.93359375 154.2890625 154.2890625 c 128,-1,31
 154.2890625 164.637451172 154.2890625 164.637451172 161.614868164 171.963256836 c 128,-1,16
 168.940673828 179.2890625 168.940673828 179.2890625 179.2890625 179.2890625 c 128,-1,17
EndSplineSet
EndChar

StartChar: greater
Encoding: 62 62 30
Width: 500
Flags: W
LayerCount: 2
Fore
SplineSet
250 350 m 0,0,1
 302 350 302 350 338.5 313.5 c 128,-1,2
 375 277 375 277 375 225 c 128,-1,3
 375 173 375 173 338.5 136.5 c 128,-1,4
 302 100 302 100 250 100 c 0,5,6
 198.22265625 100 198.22265625 100 161.611328125 136.611328125 c 0,7,8
 154.2890625 143.93359375 154.2890625 143.93359375 154.2890625 154.2890625 c 128,-1,9
 154.2890625 164.637451172 154.2890625 164.637451172 161.614868164 171.963256836 c 128,-1,10
 168.940673828 179.2890625 168.940673828 179.2890625 179.2890625 179.2890625 c 128,-1,11
 189.64453125 179.2890625 189.64453125 179.2890625 196.966796875 171.966796875 c 0,12,13
 218.935173981 150 218.935173981 150 250 150 c 128,-1,14
 281 150 281 150 303 172 c 128,-1,15
 325 194 325 194 325 225 c 128,-1,16
 325 256 325 256 303 278 c 128,-1,17
 281 300 281 300 250 300 c 128,-1,18
 218.935173981 300 218.935173981 300 196.966796875 278.033203125 c 0,19,20
 189.64453125 270.7109375 189.64453125 270.7109375 179.2890625 270.7109375 c 128,-1,21
 168.940673828 270.7109375 168.940673828 270.7109375 161.614868164 278.036743164 c 128,-1,22
 154.2890625 285.362548828 154.2890625 285.362548828 154.2890625 295.7109375 c 128,-1,23
 154.2890625 306.06640625 154.2890625 306.06640625 161.611328125 313.388671875 c 0,24,25
 198.22265625 350 198.22265625 350 250 350 c 0,0,1
EndSplineSet
EndChar

StartChar: question
Encoding: 63 63 31
Width: 500
Flags: W
LayerCount: 2
Fore
SplineSet
250 450 m 128,-1,1
 260 450 260 450 267.5 442.5 c 128,-1,2
 275 435 275 435 275 425 c 128,-1,3
 275 415 275 415 267.5 407.5 c 128,-1,4
 260 400 260 400 250 400 c 128,-1,5
 240 400 240 400 232.5 407.5 c 128,-1,6
 225 415 225 415 225 425 c 128,-1,7
 225 435 225 435 232.5 442.5 c 128,-1,0
 240 450 240 450 250 450 c 128,-1,1
250 250 m 128,-1,9
 260 250 260 250 267.5 242.5 c 128,-1,10
 275 235 275 235 275 225 c 128,-1,11
 275 215 275 215 267.5 207.5 c 128,-1,12
 260 200 260 200 250 200 c 128,-1,13
 240 200 240 200 232.5 207.5 c 128,-1,14
 225 215 225 215 225 225 c 128,-1,15
 225 235 225 235 232.5 242.5 c 128,-1,8
 240 250 240 250 250 250 c 128,-1,9
250 50 m 128,-1,17
 260 50 260 50 267.5 42.5 c 128,-1,18
 275 35 275 35 275 25 c 128,-1,19
 275 15 275 15 267.5 7.5 c 128,-1,20
 260 0 260 0 250 0 c 128,-1,21
 240 0 240 0 232.5 7.5 c 128,-1,22
 225 15 225 15 225 25 c 128,-1,23
 225 35 225 35 232.5 42.5 c 128,-1,16
 240 50 240 50 250 50 c 128,-1,17
EndSplineSet
EndChar

StartChar: at
Encoding: 64 64 32
Width: 500
Flags: W
LayerCount: 2
Fore
SplineSet
250 450 m 128,-1,1
 343 450 343 450 409 384 c 128,-1,2
 475 318 475 318 475 225 c 128,-1,3
 475 132 475 132 409 66 c 128,-1,4
 343 0 343 0 250 0 c 128,-1,5
 157 0 157 0 91 66 c 128,-1,6
 25 132 25 132 25 225 c 128,-1,7
 25 318 25 318 91 384 c 128,-1,0
 157 450 157 450 250 450 c 128,-1,1
250 400 m 128,-1,9
 178 400 178 400 126.5 348.5 c 128,-1,10
 75 297 75 297 75 225 c 128,-1,11
 75 153 75 153 126.5 101.5 c 128,-1,12
 178 50 178 50 250 50 c 128,-1,13
 322 50 322 50 373.5 101.5 c 128,-1,14
 425 153 425 153 425 225 c 128,-1,15
 425 297 425 297 373.5 348.5 c 128,-1,8
 322 400 322 400 250 400 c 128,-1,9
250 350 m 128,-1,17
 302 350 302 350 338.5 313.5 c 128,-1,18
 375 277 375 277 375 225 c 128,-1,19
 375 173 375 173 338.5 136.5 c 128,-1,20
 302 100 302 100 250 100 c 128,-1,21
 198 100 198 100 161.5 136.5 c 128,-1,22
 125 173 125 173 125 225 c 128,-1,23
 125 277 125 277 161.5 313.5 c 128,-1,16
 198 350 198 350 250 350 c 128,-1,17
250 300 m 128,-1,25
 219 300 219 300 197 278 c 128,-1,26
 175 256 175 256 175 225 c 128,-1,27
 175 194 175 194 197 172 c 128,-1,28
 219 150 219 150 250 150 c 128,-1,29
 281 150 281 150 303 172 c 128,-1,30
 325 194 325 194 325 225 c 128,-1,31
 325 256 325 256 303 278 c 128,-1,24
 281 300 281 300 250 300 c 128,-1,25
126.255859375 384.098632812 m 2,32,-1
 409.098632812 101.255859375 l 1,33,34
 416.424804688 93.9312684607 416.424804688 93.9312684607 416.424804688 83.5751953125 c 128,-1,35
 416.424804688 73.2259581018 416.424804688 73.2259581018 409.098632812 65.9013671875 c 128,-1,36
 401.774041898 58.5751953125 401.774041898 58.5751953125 391.41796875 58.5751953125 c 128,-1,37
 381.068731539 58.5751953125 381.068731539 58.5751953125 373.744140625 65.9013671875 c 2,38,-1
 90.9013671875 348.744140625 l 1,39,40
 83.5751953125 356.068731539 83.5751953125 356.068731539 83.5751953125 366.424804688 c 128,-1,41
 83.5751953125 376.774041898 83.5751953125 376.774041898 90.9013671875 384.098632812 c 128,-1,42
 98.2259581018 391.424804688 98.2259581018 391.424804688 108.58203125 391.424804688 c 128,-1,43
 118.931268461 391.424804688 118.931268461 391.424804688 126.255859375 384.098632812 c 2,32,-1
EndSplineSet
EndChar

StartChar: A
Encoding: 65 65 33
Width: 500
Flags: W
LayerCount: 2
Fore
SplineSet
250 450 m 128,-1,1
 343 450 343 450 409 384 c 128,-1,2
 475 318 475 318 475 225 c 0,3,4
 475 215 475 215 467.5 207.5 c 128,-1,5
 460 200 460 200 450 200 c 128,-1,6
 440 200 440 200 432.5 207.5 c 128,-1,7
 425 215 425 215 425 225 c 0,8,9
 425 297 425 297 373.5 348.5 c 128,-1,10
 322 400 322 400 250 400 c 128,-1,11
 178 400 178 400 126.5 348.5 c 128,-1,12
 75 297 75 297 75 225 c 0,13,14
 75 215 75 215 67.5 207.5 c 128,-1,15
 60 200 60 200 50 200 c 128,-1,16
 40 200 40 200 32.5 207.5 c 128,-1,17
 25 215 25 215 25 225 c 0,18,19
 25 318 25 318 91 384 c 128,-1,0
 157 450 157 450 250 450 c 128,-1,1
106.794921875 391.357421875 m 0,20,21
 107.730624112 391.424804688 107.730624112 391.424804688 108.58203125 391.424804688 c 0,22,23
 118.929082971 391.424804688 118.929082971 391.424804688 126.255859375 384.099609375 c 2,24,-1
 267.677734375 242.677734375 l 1,25,26
 275 235.35546875 275 235.35546875 275 225 c 0,27,28
 275 215 275 215 267.5 207.5 c 128,-1,29
 260 200 260 200 250 200 c 0,30,31
 239.6598045 200.03666216 239.6598045 200.03666216 232.3671875 207.3671875 c 1,32,-1
 232.322265625 207.322265625 l 1,33,-1
 90.900390625 348.744140625 l 1,34,35
 83.57421875 356.0703125 83.57421875 356.0703125 83.57421875 366.42578125 c 128,-1,36
 83.57421875 376.7734375 83.57421875 376.7734375 90.900390625 384.099609375 c 0,37,38
 97.4938401442 390.693058894 97.4938401442 390.693058894 106.794921875 391.357421875 c 0,20,21
EndSplineSet
EndChar

StartChar: B
Encoding: 66 66 34
Width: 500
Flags: W
LayerCount: 2
Fore
SplineSet
250 450 m 128,-1,1
 343.197638556 450 343.197638556 450 409.099609375 384.099609375 c 0,2,3
 416.421875 376.77734375 416.421875 376.77734375 416.421875 366.421875 c 128,-1,4
 416.421875 356.073486328 416.421875 356.073486328 409.096069336 348.747680664 c 128,-1,5
 401.770263672 341.421875 401.770263672 341.421875 391.421875 341.421875 c 128,-1,6
 381.06640625 341.421875 381.06640625 341.421875 373.744140625 348.744140625 c 0,7,8
 322.48828125 400 322.48828125 400 250 400 c 0,9,10
 178 400 178 400 126.5 348.5 c 128,-1,11
 75 297 75 297 75 225 c 128,-1,12
 75 153 75 153 126.5 101.5 c 128,-1,13
 178 50 178 50 250 50 c 0,14,15
 322.48828125 50 322.48828125 50 373.744140625 101.255859375 c 0,16,17
 381.06640625 108.578125 381.06640625 108.578125 391.421875 108.578125 c 128,-1,18
 401.770263672 108.578125 401.770263672 108.578125 409.096069336 101.252319336 c 128,-1,19
 416.421875 93.9265136719 416.421875 93.9265136719 416.421875 83.578125 c 128,-1,20
 416.421875 73.22265625 416.421875 73.22265625 409.099609375 65.900390625 c 0,21,22
 343.197638556 0 343.197638556 0 250 0 c 128,-1,23
 157 0 157 0 91 66 c 128,-1,24
 25 132 25 132 25 225 c 128,-1,25
 25 318 25 318 91 384 c 128,-1,0
 157 450 157 450 250 450 c 128,-1,1
126.255859375 384.098632812 m 2,26,-1
 409.098632812 101.255859375 l 1,27,28
 416.424804688 93.9312684607 416.424804688 93.9312684607 416.424804688 83.5751953125 c 128,-1,29
 416.424804688 73.2259581018 416.424804688 73.2259581018 409.098632812 65.9013671875 c 128,-1,30
 401.774041898 58.5751953125 401.774041898 58.5751953125 391.41796875 58.5751953125 c 128,-1,31
 381.068731539 58.5751953125 381.068731539 58.5751953125 373.744140625 65.9013671875 c 2,32,-1
 90.9013671875 348.744140625 l 1,33,34
 83.5751953125 356.068731539 83.5751953125 356.068731539 83.5751953125 366.424804688 c 128,-1,35
 83.5751953125 376.774041898 83.5751953125 376.774041898 90.9013671875 384.098632812 c 128,-1,36
 98.2259581018 391.424804688 98.2259581018 391.424804688 108.58203125 391.424804688 c 128,-1,37
 118.931268461 391.424804688 118.931268461 391.424804688 126.255859375 384.098632812 c 2,26,-1
EndSplineSet
EndChar

StartChar: C
Encoding: 67 67 35
Width: 500
Flags: W
LayerCount: 2
Fore
SplineSet
250 450 m 128,-1,1
 343 450 343 450 409 384 c 128,-1,2
 475 318 475 318 475 225 c 128,-1,3
 475 132 475 132 409 66 c 128,-1,4
 343 0 343 0 250 0 c 128,-1,5
 156.802361444 0 156.802361444 0 90.900390625 65.900390625 c 0,6,7
 83.578125 73.22265625 83.578125 73.22265625 83.578125 83.578125 c 128,-1,8
 83.578125 93.9265136719 83.578125 93.9265136719 90.9039306641 101.252319336 c 128,-1,9
 98.2297363281 108.578125 98.2297363281 108.578125 108.578125 108.578125 c 128,-1,10
 118.93359375 108.578125 118.93359375 108.578125 126.255859375 101.255859375 c 0,11,12
 177.51171875 50 177.51171875 50 250 50 c 0,13,14
 322 50 322 50 373.5 101.5 c 128,-1,15
 425 153 425 153 425 225 c 128,-1,16
 425 297 425 297 373.5 348.5 c 128,-1,17
 322 400 322 400 250 400 c 0,18,19
 177.51171875 400 177.51171875 400 126.255859375 348.744140625 c 0,20,21
 118.93359375 341.421875 118.93359375 341.421875 108.578125 341.421875 c 128,-1,22
 98.2297363281 341.421875 98.2297363281 341.421875 90.9039306641 348.747680664 c 128,-1,23
 83.578125 356.073486328 83.578125 356.073486328 83.578125 366.421875 c 128,-1,24
 83.578125 376.77734375 83.578125 376.77734375 90.900390625 384.099609375 c 0,25,0
 156.802361444 450 156.802361444 450 250 450 c 128,-1,1
126.255859375 384.098632812 m 2,26,-1
 409.098632812 101.255859375 l 1,27,28
 416.424804688 93.9312684607 416.424804688 93.9312684607 416.424804688 83.5751953125 c 128,-1,29
 416.424804688 73.2259581018 416.424804688 73.2259581018 409.098632812 65.9013671875 c 128,-1,30
 401.774041898 58.5751953125 401.774041898 58.5751953125 391.41796875 58.5751953125 c 128,-1,31
 381.068731539 58.5751953125 381.068731539 58.5751953125 373.744140625 65.9013671875 c 2,32,-1
 90.9013671875 348.744140625 l 1,33,34
 83.5751953125 356.068731539 83.5751953125 356.068731539 83.5751953125 366.424804688 c 128,-1,35
 83.5751953125 376.774041898 83.5751953125 376.774041898 90.9013671875 384.098632812 c 128,-1,36
 98.2259581018 391.424804688 98.2259581018 391.424804688 108.58203125 391.424804688 c 128,-1,37
 118.931268461 391.424804688 118.931268461 391.424804688 126.255859375 384.098632812 c 2,26,-1
EndSplineSet
EndChar

StartChar: D
Encoding: 68 68 36
Width: 500
Flags: W
LayerCount: 2
Fore
SplineSet
108.578125 391.421875 m 128,-1,1
 118.926513672 391.421875 118.926513672 391.421875 126.252319336 384.096069336 c 128,-1,2
 133.578125 376.770263672 133.578125 376.770263672 133.578125 366.421875 c 128,-1,3
 133.578125 356.06640625 133.578125 356.06640625 126.255859375 348.744140625 c 0,4,5
 75 297.48828125 75 297.48828125 75 225 c 0,6,7
 75 153 75 153 126.5 101.5 c 128,-1,8
 178 50 178 50 250 50 c 128,-1,9
 322 50 322 50 373.5 101.5 c 128,-1,10
 425 153 425 153 425 225 c 0,11,12
 425 297.48828125 425 297.48828125 373.744140625 348.744140625 c 0,13,14
 366.421875 356.06640625 366.421875 356.06640625 366.421875 366.421875 c 128,-1,15
 366.421875 376.770263672 366.421875 376.770263672 373.747680664 384.096069336 c 128,-1,16
 381.073486328 391.421875 381.073486328 391.421875 391.421875 391.421875 c 128,-1,17
 401.77734375 391.421875 401.77734375 391.421875 409.099609375 384.099609375 c 0,18,19
 475 318.197638556 475 318.197638556 475 225 c 128,-1,20
 475 132 475 132 409 66 c 128,-1,21
 343 0 343 0 250 0 c 128,-1,22
 157 0 157 0 91 66 c 128,-1,23
 25 132 25 132 25 225 c 128,-1,24
 25 318.197638556 25 318.197638556 90.900390625 384.099609375 c 0,25,0
 98.22265625 391.421875 98.22265625 391.421875 108.578125 391.421875 c 128,-1,1
126.255859375 384.098632812 m 2,26,-1
 409.098632812 101.255859375 l 1,27,28
 416.424804688 93.9312684607 416.424804688 93.9312684607 416.424804688 83.5751953125 c 128,-1,29
 416.424804688 73.2259581018 416.424804688 73.2259581018 409.098632812 65.9013671875 c 128,-1,30
 401.774041898 58.5751953125 401.774041898 58.5751953125 391.41796875 58.5751953125 c 128,-1,31
 381.068731539 58.5751953125 381.068731539 58.5751953125 373.744140625 65.9013671875 c 2,32,-1
 90.9013671875 348.744140625 l 1,33,34
 83.5751953125 356.068731539 83.5751953125 356.068731539 83.5751953125 366.424804688 c 128,-1,35
 83.5751953125 376.774041898 83.5751953125 376.774041898 90.9013671875 384.098632812 c 128,-1,36
 98.2259581018 391.424804688 98.2259581018 391.424804688 108.58203125 391.424804688 c 128,-1,37
 118.931268461 391.424804688 118.931268461 391.424804688 126.255859375 384.098632812 c 2,26,-1
EndSplineSet
EndChar

StartChar: E
Encoding: 69 69 37
Width: 500
Flags: W
LayerCount: 2
Fore
SplineSet
106.794921875 391.357421875 m 0,0,1
 107.730624112 391.424804688 107.730624112 391.424804688 108.58203125 391.424804688 c 0,2,3
 118.929082971 391.424804688 118.929082971 391.424804688 126.255859375 384.099609375 c 2,4,-1
 267.677734375 242.677734375 l 1,5,6
 275 235.35546875 275 235.35546875 275 225 c 0,7,8
 275 215 275 215 267.5 207.5 c 128,-1,9
 260 200 260 200 250 200 c 0,10,11
 239.6598045 200.03666216 239.6598045 200.03666216 232.3671875 207.3671875 c 1,12,-1
 232.322265625 207.322265625 l 1,13,-1
 90.900390625 348.744140625 l 1,14,15
 83.57421875 356.0703125 83.57421875 356.0703125 83.57421875 366.42578125 c 128,-1,16
 83.57421875 376.7734375 83.57421875 376.7734375 90.900390625 384.099609375 c 0,17,18
 97.4938401442 390.693058894 97.4938401442 390.693058894 106.794921875 391.357421875 c 0,0,1
EndSplineSet
EndChar

StartChar: F
Encoding: 70 70 38
Width: 500
Flags: W
LayerCount: 2
Fore
SplineSet
250 450 m 128,-1,1
 343 450 343 450 409 384 c 128,-1,2
 475 318 475 318 475 225 c 128,-1,3
 475 131.802361444 475 131.802361444 409.099609375 65.900390625 c 0,4,5
 401.77734375 58.578125 401.77734375 58.578125 391.421875 58.578125 c 128,-1,6
 381.073486328 58.578125 381.073486328 58.578125 373.747680664 65.9039306641 c 128,-1,7
 366.421875 73.2297363281 366.421875 73.2297363281 366.421875 83.578125 c 128,-1,8
 366.421875 93.93359375 366.421875 93.93359375 373.744140625 101.255859375 c 0,9,10
 425 152.51171875 425 152.51171875 425 225 c 0,11,12
 425 297 425 297 373.5 348.5 c 128,-1,13
 322 400 322 400 250 400 c 128,-1,14
 178 400 178 400 126.5 348.5 c 128,-1,15
 75 297 75 297 75 225 c 0,16,17
 75 152.51171875 75 152.51171875 126.255859375 101.255859375 c 0,18,19
 133.578125 93.93359375 133.578125 93.93359375 133.578125 83.578125 c 128,-1,20
 133.578125 73.2297363281 133.578125 73.2297363281 126.252319336 65.9039306641 c 128,-1,21
 118.926513672 58.578125 118.926513672 58.578125 108.578125 58.578125 c 128,-1,22
 98.22265625 58.578125 98.22265625 58.578125 90.900390625 65.900390625 c 0,23,24
 25 131.802361444 25 131.802361444 25 225 c 128,-1,25
 25 318 25 318 91 384 c 128,-1,0
 157 450 157 450 250 450 c 128,-1,1
EndSplineSet
EndChar

StartChar: G
Encoding: 71 71 39
Width: 500
Flags: W
LayerCount: 2
Fore
SplineSet
250 450 m 0,0,1
 343 450 343 450 409 384 c 128,-1,2
 475 318 475 318 475 225 c 128,-1,3
 475 132 475 132 409 66 c 128,-1,4
 343 0 343 0 250 0 c 128,-1,5
 157 0 157 0 91 66 c 128,-1,6
 25 132 25 132 25 225 c 0,7,8
 25 235 25 235 32.5 242.5 c 128,-1,9
 40 250 40 250 50 250 c 128,-1,10
 60 250 60 250 67.5 242.5 c 128,-1,11
 75 235 75 235 75 225 c 0,12,13
 75 153 75 153 126.5 101.5 c 128,-1,14
 178 50 178 50 250 50 c 128,-1,15
 322 50 322 50 373.5 101.5 c 128,-1,16
 425 153 425 153 425 225 c 128,-1,17
 425 297 425 297 373.5 348.5 c 128,-1,18
 322 400 322 400 250 400 c 0,19,20
 240 400 240 400 232.5 407.5 c 128,-1,21
 225 415 225 415 225 425 c 128,-1,22
 225 435 225 435 232.5 442.5 c 128,-1,23
 240 450 240 450 250 450 c 0,0,1
126.255859375 384.098632812 m 2,24,-1
 409.098632812 101.255859375 l 1,25,26
 416.424804688 93.9312684607 416.424804688 93.9312684607 416.424804688 83.5751953125 c 128,-1,27
 416.424804688 73.2259581018 416.424804688 73.2259581018 409.098632812 65.9013671875 c 128,-1,28
 401.774041898 58.5751953125 401.774041898 58.5751953125 391.41796875 58.5751953125 c 128,-1,29
 381.068731539 58.5751953125 381.068731539 58.5751953125 373.744140625 65.9013671875 c 2,30,-1
 90.9013671875 348.744140625 l 1,31,32
 83.5751953125 356.068731539 83.5751953125 356.068731539 83.5751953125 366.424804688 c 128,-1,33
 83.5751953125 376.774041898 83.5751953125 376.774041898 90.9013671875 384.098632812 c 128,-1,34
 98.2259581018 391.424804688 98.2259581018 391.424804688 108.58203125 391.424804688 c 128,-1,35
 118.931268461 391.424804688 118.931268461 391.424804688 126.255859375 384.098632812 c 2,24,-1
EndSplineSet
EndChar

StartChar: H
Encoding: 72 72 40
Width: 500
Flags: W
LayerCount: 2
Fore
SplineSet
250 450 m 128,-1,1
 343 450 343 450 409 384 c 128,-1,2
 475 318 475 318 475 225 c 128,-1,3
 475 132 475 132 409 66 c 128,-1,4
 343 0 343 0 250 0 c 0,5,6
 240 0 240 0 232.5 7.5 c 128,-1,7
 225 15 225 15 225 25 c 128,-1,8
 225 35 225 35 232.5 42.5 c 128,-1,9
 240 50 240 50 250 50 c 0,10,11
 322 50 322 50 373.5 101.5 c 128,-1,12
 425 153 425 153 425 225 c 128,-1,13
 425 297 425 297 373.5 348.5 c 128,-1,14
 322 400 322 400 250 400 c 128,-1,15
 178 400 178 400 126.5 348.5 c 128,-1,16
 75 297 75 297 75 225 c 0,17,18
 75 215 75 215 67.5 207.5 c 128,-1,19
 60 200 60 200 50 200 c 128,-1,20
 40 200 40 200 32.5 207.5 c 128,-1,21
 25 215 25 215 25 225 c 0,22,23
 25 318 25 318 91 384 c 128,-1,0
 157 450 157 450 250 450 c 128,-1,1
EndSplineSet
EndChar

StartChar: I
Encoding: 73 73 41
Width: 500
Flags: W
LayerCount: 2
Fore
SplineSet
250 450 m 128,-1,1
 343 450 343 450 409 384 c 128,-1,2
 475 318 475 318 475 225 c 0,3,4
 475 215 475 215 467.5 207.5 c 128,-1,5
 460 200 460 200 450 200 c 128,-1,6
 440 200 440 200 432.5 207.5 c 128,-1,7
 425 215 425 215 425 225 c 0,8,9
 425 297 425 297 373.5 348.5 c 128,-1,10
 322 400 322 400 250 400 c 128,-1,11
 178 400 178 400 126.5 348.5 c 128,-1,12
 75 297 75 297 75 225 c 0,13,14
 75 215 75 215 67.5 207.5 c 128,-1,15
 60 200 60 200 50 200 c 128,-1,16
 40 200 40 200 32.5 207.5 c 128,-1,17
 25 215 25 215 25 225 c 0,18,19
 25 318 25 318 91 384 c 128,-1,0
 157 450 157 450 250 450 c 128,-1,1
EndSplineSet
EndChar

StartChar: J
Encoding: 74 74 42
Width: 500
Flags: W
LayerCount: 2
Fore
SplineSet
250 450 m 0,0,1
 260 450 260 450 267.5 442.5 c 128,-1,2
 275 435 275 435 275 425 c 128,-1,3
 275 415 275 415 267.5 407.5 c 128,-1,4
 260 400 260 400 250 400 c 0,5,6
 178 400 178 400 126.5 348.5 c 128,-1,7
 75 297 75 297 75 225 c 128,-1,8
 75 153 75 153 126.5 101.5 c 128,-1,9
 178 50 178 50 250 50 c 128,-1,10
 322 50 322 50 373.5 101.5 c 128,-1,11
 425 153 425 153 425 225 c 0,12,13
 425 235 425 235 432.5 242.5 c 128,-1,14
 440 250 440 250 450 250 c 128,-1,15
 460 250 460 250 467.5 242.5 c 128,-1,16
 475 235 475 235 475 225 c 0,17,18
 475 132 475 132 409 66 c 128,-1,19
 343 0 343 0 250 0 c 128,-1,20
 157 0 157 0 91 66 c 128,-1,21
 25 132 25 132 25 225 c 128,-1,22
 25 318 25 318 91 384 c 128,-1,23
 157 450 157 450 250 450 c 0,0,1
126.255859375 384.098632812 m 2,24,-1
 409.098632812 101.255859375 l 1,25,26
 416.424804688 93.9312684607 416.424804688 93.9312684607 416.424804688 83.5751953125 c 128,-1,27
 416.424804688 73.2259581018 416.424804688 73.2259581018 409.098632812 65.9013671875 c 128,-1,28
 401.774041898 58.5751953125 401.774041898 58.5751953125 391.41796875 58.5751953125 c 128,-1,29
 381.068731539 58.5751953125 381.068731539 58.5751953125 373.744140625 65.9013671875 c 2,30,-1
 90.9013671875 348.744140625 l 1,31,32
 83.5751953125 356.068731539 83.5751953125 356.068731539 83.5751953125 366.424804688 c 128,-1,33
 83.5751953125 376.774041898 83.5751953125 376.774041898 90.9013671875 384.098632812 c 128,-1,34
 98.2259581018 391.424804688 98.2259581018 391.424804688 108.58203125 391.424804688 c 128,-1,35
 118.931268461 391.424804688 118.931268461 391.424804688 126.255859375 384.098632812 c 2,24,-1
250 350 m 128,-1,37
 302 350 302 350 338.5 313.5 c 128,-1,38
 375 277 375 277 375 225 c 128,-1,39
 375 173 375 173 338.5 136.5 c 128,-1,40
 302 100 302 100 250 100 c 128,-1,41
 198 100 198 100 161.5 136.5 c 128,-1,42
 125 173 125 173 125 225 c 128,-1,43
 125 277 125 277 161.5 313.5 c 128,-1,36
 198 350 198 350 250 350 c 128,-1,37
250 300 m 128,-1,45
 219 300 219 300 197 278 c 128,-1,46
 175 256 175 256 175 225 c 128,-1,47
 175 194 175 194 197 172 c 128,-1,48
 219 150 219 150 250 150 c 128,-1,49
 281 150 281 150 303 172 c 128,-1,50
 325 194 325 194 325 225 c 128,-1,51
 325 256 325 256 303 278 c 128,-1,44
 281 300 281 300 250 300 c 128,-1,45
EndSplineSet
EndChar

StartChar: K
Encoding: 75 75 43
Width: 500
Flags: W
LayerCount: 2
Fore
SplineSet
250 450 m 0,0,1
 343 450 343 450 409 384 c 128,-1,2
 475 318 475 318 475 225 c 128,-1,3
 475 132 475 132 409 66 c 128,-1,4
 343 0 343 0 250 0 c 128,-1,5
 157 0 157 0 91 66 c 128,-1,6
 25 132 25 132 25 225 c 0,7,8
 25 235 25 235 32.5 242.5 c 128,-1,9
 40 250 40 250 50 250 c 128,-1,10
 60 250 60 250 67.5 242.5 c 128,-1,11
 75 235 75 235 75 225 c 0,12,13
 75 153 75 153 126.5 101.5 c 128,-1,14
 178 50 178 50 250 50 c 128,-1,15
 322 50 322 50 373.5 101.5 c 128,-1,16
 425 153 425 153 425 225 c 128,-1,17
 425 297 425 297 373.5 348.5 c 128,-1,18
 322 400 322 400 250 400 c 0,19,20
 240 400 240 400 232.5 407.5 c 128,-1,21
 225 415 225 415 225 425 c 128,-1,22
 225 435 225 435 232.5 442.5 c 128,-1,23
 240 450 240 450 250 450 c 0,0,1
EndSplineSet
EndChar

StartChar: L
Encoding: 76 76 44
Width: 500
Flags: W
LayerCount: 2
Fore
SplineSet
250 450 m 128,-1,1
 343 450 343 450 409 384 c 128,-1,2
 475 318 475 318 475 225 c 128,-1,3
 475 132 475 132 409 66 c 128,-1,4
 343 0 343 0 250 0 c 128,-1,5
 157 0 157 0 91 66 c 128,-1,6
 25 132 25 132 25 225 c 128,-1,7
 25 318 25 318 91 384 c 128,-1,0
 157 450 157 450 250 450 c 128,-1,1
250 400 m 128,-1,9
 178 400 178 400 126.5 348.5 c 128,-1,10
 75 297 75 297 75 225 c 128,-1,11
 75 153 75 153 126.5 101.5 c 128,-1,12
 178 50 178 50 250 50 c 128,-1,13
 322 50 322 50 373.5 101.5 c 128,-1,14
 425 153 425 153 425 225 c 128,-1,15
 425 297 425 297 373.5 348.5 c 128,-1,8
 322 400 322 400 250 400 c 128,-1,9
126.255859375 384.098632812 m 2,16,-1
 409.098632812 101.255859375 l 1,17,18
 416.424804688 93.9312684607 416.424804688 93.9312684607 416.424804688 83.5751953125 c 128,-1,19
 416.424804688 73.2259581018 416.424804688 73.2259581018 409.098632812 65.9013671875 c 128,-1,20
 401.774041898 58.5751953125 401.774041898 58.5751953125 391.41796875 58.5751953125 c 128,-1,21
 381.068731539 58.5751953125 381.068731539 58.5751953125 373.744140625 65.9013671875 c 2,22,-1
 90.9013671875 348.744140625 l 1,23,24
 83.5751953125 356.068731539 83.5751953125 356.068731539 83.5751953125 366.424804688 c 128,-1,25
 83.5751953125 376.774041898 83.5751953125 376.774041898 90.9013671875 384.098632812 c 128,-1,26
 98.2259581018 391.424804688 98.2259581018 391.424804688 108.58203125 391.424804688 c 128,-1,27
 118.931268461 391.424804688 118.931268461 391.424804688 126.255859375 384.098632812 c 2,16,-1
EndSplineSet
EndChar

StartChar: M
Encoding: 77 77 45
Width: 500
Flags: W
LayerCount: 2
Fore
SplineSet
250 450 m 128,-1,1
 343 450 343 450 409 384 c 128,-1,2
 475 318 475 318 475 225 c 0,3,4
 475 215 475 215 467.5 207.5 c 128,-1,5
 460 200 460 200 450 200 c 128,-1,6
 440 200 440 200 432.5 207.5 c 128,-1,7
 425 215 425 215 425 225 c 0,8,9
 425 297 425 297 373.5 348.5 c 128,-1,10
 322 400 322 400 250 400 c 128,-1,11
 178 400 178 400 126.5 348.5 c 128,-1,12
 75 297 75 297 75 225 c 128,-1,13
 75 153 75 153 126.5 101.5 c 128,-1,14
 178 50 178 50 250 50 c 0,15,16
 260 50 260 50 267.5 42.5 c 128,-1,17
 275 35 275 35 275 25 c 128,-1,18
 275 15 275 15 267.5 7.5 c 128,-1,19
 260 0 260 0 250 0 c 0,20,21
 157 0 157 0 91 66 c 128,-1,22
 25 132 25 132 25 225 c 128,-1,23
 25 318 25 318 91 384 c 128,-1,0
 157 450 157 450 250 450 c 128,-1,1
EndSplineSet
EndChar

StartChar: N
Encoding: 78 78 46
Width: 500
Flags: W
LayerCount: 2
Fore
SplineSet
250 450 m 128,-1,1
 343 450 343 450 409 384 c 128,-1,2
 475 318 475 318 475 225 c 0,3,4
 475 215 475 215 467.5 207.5 c 128,-1,5
 460 200 460 200 450 200 c 128,-1,6
 440 200 440 200 432.5 207.5 c 128,-1,7
 425 215 425 215 425 225 c 0,8,9
 425 297 425 297 373.5 348.5 c 128,-1,10
 322 400 322 400 250 400 c 128,-1,11
 178 400 178 400 126.5 348.5 c 128,-1,12
 75 297 75 297 75 225 c 128,-1,13
 75 153 75 153 126.5 101.5 c 128,-1,14
 178 50 178 50 250 50 c 0,15,16
 260 50 260 50 267.5 42.5 c 128,-1,17
 275 35 275 35 275 25 c 128,-1,18
 275 15 275 15 267.5 7.5 c 128,-1,19
 260 0 260 0 250 0 c 0,20,21
 157 0 157 0 91 66 c 128,-1,22
 25 132 25 132 25 225 c 128,-1,23
 25 318 25 318 91 384 c 128,-1,0
 157 450 157 450 250 450 c 128,-1,1
126.255859375 384.098632812 m 2,24,-1
 409.098632812 101.255859375 l 1,25,26
 416.424804688 93.9312684607 416.424804688 93.9312684607 416.424804688 83.5751953125 c 128,-1,27
 416.424804688 73.2259581018 416.424804688 73.2259581018 409.098632812 65.9013671875 c 128,-1,28
 401.774041898 58.5751953125 401.774041898 58.5751953125 391.41796875 58.5751953125 c 128,-1,29
 381.068731539 58.5751953125 381.068731539 58.5751953125 373.744140625 65.9013671875 c 2,30,-1
 90.9013671875 348.744140625 l 1,31,32
 83.5751953125 356.068731539 83.5751953125 356.068731539 83.5751953125 366.424804688 c 128,-1,33
 83.5751953125 376.774041898 83.5751953125 376.774041898 90.9013671875 384.098632812 c 128,-1,34
 98.2259581018 391.424804688 98.2259581018 391.424804688 108.58203125 391.424804688 c 128,-1,35
 118.931268461 391.424804688 118.931268461 391.424804688 126.255859375 384.098632812 c 2,24,-1
EndSplineSet
EndChar

StartChar: O
Encoding: 79 79 47
Width: 500
Flags: W
LayerCount: 2
Fore
SplineSet
50 250 m 128,-1,1
 60 250 60 250 67.5 242.5 c 128,-1,2
 75 235 75 235 75 225 c 0,3,4
 75 153 75 153 126.5 101.5 c 128,-1,5
 178 50 178 50 250 50 c 128,-1,6
 322 50 322 50 373.5 101.5 c 128,-1,7
 425 153 425 153 425 225 c 0,8,9
 425 235 425 235 432.5 242.5 c 128,-1,10
 440 250 440 250 450 250 c 128,-1,11
 460 250 460 250 467.5 242.5 c 128,-1,12
 475 235 475 235 475 225 c 0,13,14
 475 132 475 132 409 66 c 128,-1,15
 343 0 343 0 250 0 c 128,-1,16
 157 0 157 0 91 66 c 128,-1,17
 25 132 25 132 25 225 c 0,18,19
 25 235 25 235 32.5 242.5 c 128,-1,0
 40 250 40 250 50 250 c 128,-1,1
250 250 m 0,20,21
 260.35546875 250 260.35546875 250 267.677734375 242.677734375 c 2,22,-1
 409.099609375 101.255859375 l 1,23,24
 416.42578125 93.9296875 416.42578125 93.9296875 416.42578125 83.57421875 c 128,-1,25
 416.42578125 73.2265625 416.42578125 73.2265625 409.099609375 65.900390625 c 128,-1,26
 401.7734375 58.57421875 401.7734375 58.57421875 391.41796875 58.57421875 c 128,-1,27
 381.0703125 58.57421875 381.0703125 58.57421875 373.744140625 65.900390625 c 2,28,-1
 232.322265625 207.322265625 l 1,29,-1
 232.3671875 207.3671875 l 1,30,31
 225.03666216 214.6598045 225.03666216 214.6598045 225 225 c 0,32,33
 225 235 225 235 232.5 242.5 c 128,-1,34
 240 250 240 250 250 250 c 0,20,21
EndSplineSet
EndChar

StartChar: P
Encoding: 80 80 48
Width: 500
Flags: W
LayerCount: 2
Fore
SplineSet
250 450 m 128,-1,1
 343.197638556 450 343.197638556 450 409.099609375 384.099609375 c 0,2,3
 416.421875 376.77734375 416.421875 376.77734375 416.421875 366.421875 c 128,-1,4
 416.421875 356.073486328 416.421875 356.073486328 409.096069336 348.747680664 c 128,-1,5
 401.770263672 341.421875 401.770263672 341.421875 391.421875 341.421875 c 128,-1,6
 381.06640625 341.421875 381.06640625 341.421875 373.744140625 348.744140625 c 0,7,8
 322.48828125 400 322.48828125 400 250 400 c 0,9,10
 178 400 178 400 126.5 348.5 c 128,-1,11
 75 297 75 297 75 225 c 128,-1,12
 75 153 75 153 126.5 101.5 c 128,-1,13
 178 50 178 50 250 50 c 0,14,15
 322.48828125 50 322.48828125 50 373.744140625 101.255859375 c 0,16,17
 381.06640625 108.578125 381.06640625 108.578125 391.421875 108.578125 c 128,-1,18
 401.770263672 108.578125 401.770263672 108.578125 409.096069336 101.252319336 c 128,-1,19
 416.421875 93.9265136719 416.421875 93.9265136719 416.421875 83.578125 c 128,-1,20
 416.421875 73.22265625 416.421875 73.22265625 409.099609375 65.900390625 c 0,21,22
 343.197638556 0 343.197638556 0 250 0 c 128,-1,23
 157 0 157 0 91 66 c 128,-1,24
 25 132 25 132 25 225 c 128,-1,25
 25 318 25 318 91 384 c 128,-1,0
 157 450 157 450 250 450 c 128,-1,1
EndSplineSet
EndChar

StartChar: Q
Encoding: 81 81 49
Width: 500
Flags: W
LayerCount: 2
Fore
SplineSet
250 450 m 128,-1,1
 343 450 343 450 409 384 c 128,-1,2
 475 318 475 318 475 225 c 128,-1,3
 475 132 475 132 409 66 c 128,-1,4
 343 0 343 0 250 0 c 128,-1,5
 156.802361444 0 156.802361444 0 90.900390625 65.900390625 c 0,6,7
 83.578125 73.22265625 83.578125 73.22265625 83.578125 83.578125 c 128,-1,8
 83.578125 93.9265136719 83.578125 93.9265136719 90.9039306641 101.252319336 c 128,-1,9
 98.2297363281 108.578125 98.2297363281 108.578125 108.578125 108.578125 c 128,-1,10
 118.93359375 108.578125 118.93359375 108.578125 126.255859375 101.255859375 c 0,11,12
 177.51171875 50 177.51171875 50 250 50 c 0,13,14
 322 50 322 50 373.5 101.5 c 128,-1,15
 425 153 425 153 425 225 c 128,-1,16
 425 297 425 297 373.5 348.5 c 128,-1,17
 322 400 322 400 250 400 c 0,18,19
 177.51171875 400 177.51171875 400 126.255859375 348.744140625 c 0,20,21
 118.93359375 341.421875 118.93359375 341.421875 108.578125 341.421875 c 128,-1,22
 98.2297363281 341.421875 98.2297363281 341.421875 90.9039306641 348.747680664 c 128,-1,23
 83.578125 356.073486328 83.578125 356.073486328 83.578125 366.421875 c 128,-1,24
 83.578125 376.77734375 83.578125 376.77734375 90.900390625 384.099609375 c 0,25,0
 156.802361444 450 156.802361444 450 250 450 c 128,-1,1
EndSplineSet
EndChar

StartChar: R
Encoding: 82 82 50
Width: 500
Flags: W
LayerCount: 2
Fore
SplineSet
250 450 m 128,-1,1
 343 450 343 450 409 384 c 128,-1,2
 475 318 475 318 475 225 c 128,-1,3
 475 132 475 132 409 66 c 128,-1,4
 343 0 343 0 250 0 c 128,-1,5
 157 0 157 0 91 66 c 128,-1,6
 25 132 25 132 25 225 c 128,-1,7
 25 318 25 318 91 384 c 128,-1,0
 157 450 157 450 250 450 c 128,-1,1
250 400 m 128,-1,9
 178 400 178 400 126.5 348.5 c 128,-1,10
 75 297 75 297 75 225 c 128,-1,11
 75 153 75 153 126.5 101.5 c 128,-1,12
 178 50 178 50 250 50 c 128,-1,13
 322 50 322 50 373.5 101.5 c 128,-1,14
 425 153 425 153 425 225 c 128,-1,15
 425 297 425 297 373.5 348.5 c 128,-1,8
 322 400 322 400 250 400 c 128,-1,9
EndSplineSet
EndChar

StartChar: S
Encoding: 83 83 51
Width: 500
Flags: W
LayerCount: 2
Fore
SplineSet
250 450 m 0,0,1
 260 450 260 450 267.5 442.5 c 128,-1,2
 275 435 275 435 275 425 c 128,-1,3
 275 415 275 415 267.5 407.5 c 128,-1,4
 260 400 260 400 250 400 c 0,5,6
 178 400 178 400 126.5 348.5 c 128,-1,7
 75 297 75 297 75 225 c 128,-1,8
 75 153 75 153 126.5 101.5 c 128,-1,9
 178 50 178 50 250 50 c 128,-1,10
 322 50 322 50 373.5 101.5 c 128,-1,11
 425 153 425 153 425 225 c 0,12,13
 425 235 425 235 432.5 242.5 c 128,-1,14
 440 250 440 250 450 250 c 128,-1,15
 460 250 460 250 467.5 242.5 c 128,-1,16
 475 235 475 235 475 225 c 0,17,18
 475 132 475 132 409 66 c 128,-1,19
 343 0 343 0 250 0 c 128,-1,20
 157 0 157 0 91 66 c 128,-1,21
 25 132 25 132 25 225 c 128,-1,22
 25 318 25 318 91 384 c 128,-1,23
 157 450 157 450 250 450 c 0,0,1
EndSplineSet
EndChar

StartChar: T
Encoding: 84 84 52
Width: 500
Flags: W
LayerCount: 2
Fore
SplineSet
108.578125 391.421875 m 128,-1,1
 118.926513672 391.421875 118.926513672 391.421875 126.252319336 384.096069336 c 128,-1,2
 133.578125 376.770263672 133.578125 376.770263672 133.578125 366.421875 c 128,-1,3
 133.578125 356.06640625 133.578125 356.06640625 126.255859375 348.744140625 c 0,4,5
 75 297.48828125 75 297.48828125 75 225 c 0,6,7
 75 153 75 153 126.5 101.5 c 128,-1,8
 178 50 178 50 250 50 c 128,-1,9
 322 50 322 50 373.5 101.5 c 128,-1,10
 425 153 425 153 425 225 c 0,11,12
 425 297.48828125 425 297.48828125 373.744140625 348.744140625 c 0,13,14
 366.421875 356.06640625 366.421875 356.06640625 366.421875 366.421875 c 128,-1,15
 366.421875 376.770263672 366.421875 376.770263672 373.747680664 384.096069336 c 128,-1,16
 381.073486328 391.421875 381.073486328 391.421875 391.421875 391.421875 c 128,-1,17
 401.77734375 391.421875 401.77734375 391.421875 409.099609375 384.099609375 c 0,18,19
 475 318.197638556 475 318.197638556 475 225 c 128,-1,20
 475 132 475 132 409 66 c 128,-1,21
 343 0 343 0 250 0 c 128,-1,22
 157 0 157 0 91 66 c 128,-1,23
 25 132 25 132 25 225 c 128,-1,24
 25 318.197638556 25 318.197638556 90.900390625 384.099609375 c 0,25,0
 98.22265625 391.421875 98.22265625 391.421875 108.578125 391.421875 c 128,-1,1
EndSplineSet
EndChar

StartChar: U
Encoding: 85 85 53
Width: 500
Flags: W
LayerCount: 2
Fore
SplineSet
250 250 m 0,0,1
 260.35546875 250 260.35546875 250 267.677734375 242.677734375 c 2,2,-1
 409.099609375 101.255859375 l 1,3,4
 416.42578125 93.9296875 416.42578125 93.9296875 416.42578125 83.57421875 c 128,-1,5
 416.42578125 73.2265625 416.42578125 73.2265625 409.099609375 65.900390625 c 128,-1,6
 401.7734375 58.57421875 401.7734375 58.57421875 391.41796875 58.57421875 c 128,-1,7
 381.0703125 58.57421875 381.0703125 58.57421875 373.744140625 65.900390625 c 2,8,-1
 232.322265625 207.322265625 l 1,9,-1
 232.3671875 207.3671875 l 1,10,11
 225.03666216 214.6598045 225.03666216 214.6598045 225 225 c 0,12,13
 225 235 225 235 232.5 242.5 c 128,-1,14
 240 250 240 250 250 250 c 0,0,1
EndSplineSet
EndChar

StartChar: V
Encoding: 86 86 54
Width: 500
Flags: W
LayerCount: 2
Fore
SplineSet
250 450 m 128,-1,1
 343 450 343 450 409 384 c 128,-1,2
 475 318 475 318 475 225 c 128,-1,3
 475 131.802361444 475 131.802361444 409.099609375 65.900390625 c 0,4,5
 401.77734375 58.578125 401.77734375 58.578125 391.421875 58.578125 c 128,-1,6
 381.073486328 58.578125 381.073486328 58.578125 373.747680664 65.9039306641 c 128,-1,7
 366.421875 73.2297363281 366.421875 73.2297363281 366.421875 83.578125 c 128,-1,8
 366.421875 93.93359375 366.421875 93.93359375 373.744140625 101.255859375 c 0,9,10
 425 152.51171875 425 152.51171875 425 225 c 0,11,12
 425 297 425 297 373.5 348.5 c 128,-1,13
 322 400 322 400 250 400 c 128,-1,14
 178 400 178 400 126.5 348.5 c 128,-1,15
 75 297 75 297 75 225 c 0,16,17
 75 152.51171875 75 152.51171875 126.255859375 101.255859375 c 0,18,19
 133.578125 93.93359375 133.578125 93.93359375 133.578125 83.578125 c 128,-1,20
 133.578125 73.2297363281 133.578125 73.2297363281 126.252319336 65.9039306641 c 128,-1,21
 118.926513672 58.578125 118.926513672 58.578125 108.578125 58.578125 c 128,-1,22
 98.22265625 58.578125 98.22265625 58.578125 90.900390625 65.900390625 c 0,23,24
 25 131.802361444 25 131.802361444 25 225 c 128,-1,25
 25 318 25 318 91 384 c 128,-1,0
 157 450 157 450 250 450 c 128,-1,1
126.255859375 384.098632812 m 2,26,-1
 409.098632812 101.255859375 l 1,27,28
 416.424804688 93.9312684607 416.424804688 93.9312684607 416.424804688 83.5751953125 c 128,-1,29
 416.424804688 73.2259581018 416.424804688 73.2259581018 409.098632812 65.9013671875 c 128,-1,30
 401.774041898 58.5751953125 401.774041898 58.5751953125 391.41796875 58.5751953125 c 128,-1,31
 381.068731539 58.5751953125 381.068731539 58.5751953125 373.744140625 65.9013671875 c 2,32,-1
 90.9013671875 348.744140625 l 1,33,34
 83.5751953125 356.068731539 83.5751953125 356.068731539 83.5751953125 366.424804688 c 128,-1,35
 83.5751953125 376.774041898 83.5751953125 376.774041898 90.9013671875 384.098632812 c 128,-1,36
 98.2259581018 391.424804688 98.2259581018 391.424804688 108.58203125 391.424804688 c 128,-1,37
 118.931268461 391.424804688 118.931268461 391.424804688 126.255859375 384.098632812 c 2,26,-1
EndSplineSet
EndChar

StartChar: W
Encoding: 87 87 55
Width: 500
Flags: W
LayerCount: 2
Fore
SplineSet
50 250 m 128,-1,1
 60 250 60 250 67.5 242.5 c 128,-1,2
 75 235 75 235 75 225 c 0,3,4
 75 153 75 153 126.5 101.5 c 128,-1,5
 178 50 178 50 250 50 c 128,-1,6
 322 50 322 50 373.5 101.5 c 128,-1,7
 425 153 425 153 425 225 c 0,8,9
 425 235 425 235 432.5 242.5 c 128,-1,10
 440 250 440 250 450 250 c 128,-1,11
 460 250 460 250 467.5 242.5 c 128,-1,12
 475 235 475 235 475 225 c 0,13,14
 475 132 475 132 409 66 c 128,-1,15
 343 0 343 0 250 0 c 128,-1,16
 157 0 157 0 91 66 c 128,-1,17
 25 132 25 132 25 225 c 0,18,19
 25 235 25 235 32.5 242.5 c 128,-1,0
 40 250 40 250 50 250 c 128,-1,1
EndSplineSet
EndChar

StartChar: X
Encoding: 88 88 56
Width: 500
Flags: W
LayerCount: 2
Fore
SplineSet
250 450 m 128,-1,1
 343 450 343 450 409 384 c 128,-1,2
 475 318 475 318 475 225 c 128,-1,3
 475 132 475 132 409 66 c 128,-1,4
 343 0 343 0 250 0 c 0,5,6
 240 0 240 0 232.5 7.5 c 128,-1,7
 225 15 225 15 225 25 c 128,-1,8
 225 35 225 35 232.5 42.5 c 128,-1,9
 240 50 240 50 250 50 c 0,10,11
 322 50 322 50 373.5 101.5 c 128,-1,12
 425 153 425 153 425 225 c 128,-1,13
 425 297 425 297 373.5 348.5 c 128,-1,14
 322 400 322 400 250 400 c 128,-1,15
 178 400 178 400 126.5 348.5 c 128,-1,16
 75 297 75 297 75 225 c 0,17,18
 75 215 75 215 67.5 207.5 c 128,-1,19
 60 200 60 200 50 200 c 128,-1,20
 40 200 40 200 32.5 207.5 c 128,-1,21
 25 215 25 215 25 225 c 0,22,23
 25 318 25 318 91 384 c 128,-1,0
 157 450 157 450 250 450 c 128,-1,1
126.255859375 384.098632812 m 2,24,-1
 409.098632812 101.255859375 l 1,25,26
 416.424804688 93.9312684607 416.424804688 93.9312684607 416.424804688 83.5751953125 c 128,-1,27
 416.424804688 73.2259581018 416.424804688 73.2259581018 409.098632812 65.9013671875 c 128,-1,28
 401.774041898 58.5751953125 401.774041898 58.5751953125 391.41796875 58.5751953125 c 128,-1,29
 381.068731539 58.5751953125 381.068731539 58.5751953125 373.744140625 65.9013671875 c 2,30,-1
 90.9013671875 348.744140625 l 1,31,32
 83.5751953125 356.068731539 83.5751953125 356.068731539 83.5751953125 366.424804688 c 128,-1,33
 83.5751953125 376.774041898 83.5751953125 376.774041898 90.9013671875 384.098632812 c 128,-1,34
 98.2259581018 391.424804688 98.2259581018 391.424804688 108.58203125 391.424804688 c 128,-1,35
 118.931268461 391.424804688 118.931268461 391.424804688 126.255859375 384.098632812 c 2,24,-1
EndSplineSet
EndChar

StartChar: Y
Encoding: 89 89 57
Width: 500
Flags: W
LayerCount: 2
Fore
SplineSet
250 450 m 128,-1,1
 343 450 343 450 409 384 c 128,-1,2
 475 318 475 318 475 225 c 128,-1,3
 475 132 475 132 409 66 c 128,-1,4
 343 0 343 0 250 0 c 128,-1,5
 156.802361444 0 156.802361444 0 90.900390625 65.900390625 c 0,6,7
 83.578125 73.22265625 83.578125 73.22265625 83.578125 83.578125 c 128,-1,8
 83.578125 93.9265136719 83.578125 93.9265136719 90.9039306641 101.252319336 c 128,-1,9
 98.2297363281 108.578125 98.2297363281 108.578125 108.578125 108.578125 c 128,-1,10
 118.93359375 108.578125 118.93359375 108.578125 126.255859375 101.255859375 c 0,11,12
 177.51171875 50 177.51171875 50 250 50 c 0,13,14
 322 50 322 50 373.5 101.5 c 128,-1,15
 425 153 425 153 425 225 c 128,-1,16
 425 297 425 297 373.5 348.5 c 128,-1,17
 322 400 322 400 250 400 c 0,18,19
 177.51171875 400 177.51171875 400 126.255859375 348.744140625 c 0,20,21
 118.93359375 341.421875 118.93359375 341.421875 108.578125 341.421875 c 128,-1,22
 98.2297363281 341.421875 98.2297363281 341.421875 90.9039306641 348.747680664 c 128,-1,23
 83.578125 356.073486328 83.578125 356.073486328 83.578125 366.421875 c 128,-1,24
 83.578125 376.77734375 83.578125 376.77734375 90.900390625 384.099609375 c 0,25,0
 156.802361444 450 156.802361444 450 250 450 c 128,-1,1
126.255859375 384.098632812 m 2,26,-1
 409.098632812 101.255859375 l 1,27,28
 416.424804688 93.9312684607 416.424804688 93.9312684607 416.424804688 83.5751953125 c 128,-1,29
 416.424804688 73.2259581018 416.424804688 73.2259581018 409.098632812 65.9013671875 c 128,-1,30
 401.774041898 58.5751953125 401.774041898 58.5751953125 391.41796875 58.5751953125 c 128,-1,31
 381.068731539 58.5751953125 381.068731539 58.5751953125 373.744140625 65.9013671875 c 2,32,-1
 90.9013671875 348.744140625 l 1,33,34
 83.5751953125 356.068731539 83.5751953125 356.068731539 83.5751953125 366.424804688 c 128,-1,35
 83.5751953125 376.774041898 83.5751953125 376.774041898 90.9013671875 384.098632812 c 128,-1,36
 98.2259581018 391.424804688 98.2259581018 391.424804688 108.58203125 391.424804688 c 128,-1,37
 118.931268461 391.424804688 118.931268461 391.424804688 126.255859375 384.098632812 c 2,26,-1
250 350 m 128,-1,39
 302 350 302 350 338.5 313.5 c 128,-1,40
 375 277 375 277 375 225 c 128,-1,41
 375 173 375 173 338.5 136.5 c 128,-1,42
 302 100 302 100 250 100 c 128,-1,43
 198 100 198 100 161.5 136.5 c 128,-1,44
 125 173 125 173 125 225 c 128,-1,45
 125 277 125 277 161.5 313.5 c 128,-1,38
 198 350 198 350 250 350 c 128,-1,39
250 300 m 128,-1,47
 219 300 219 300 197 278 c 128,-1,48
 175 256 175 256 175 225 c 128,-1,49
 175 194 175 194 197 172 c 128,-1,50
 219 150 219 150 250 150 c 128,-1,51
 281 150 281 150 303 172 c 128,-1,52
 325 194 325 194 325 225 c 128,-1,53
 325 256 325 256 303 278 c 128,-1,46
 281 300 281 300 250 300 c 128,-1,47
EndSplineSet
EndChar

StartChar: Z
Encoding: 90 90 58
Width: 500
Flags: W
LayerCount: 2
Fore
SplineSet
250 450 m 0,0,1
 260 450 260 450 267.5 442.5 c 128,-1,2
 275 435 275 435 275 425 c 128,-1,3
 275 415 275 415 267.5 407.5 c 128,-1,4
 260 400 260 400 250 400 c 0,5,6
 178 400 178 400 126.5 348.5 c 128,-1,7
 75 297 75 297 75 225 c 128,-1,8
 75 153 75 153 126.5 101.5 c 128,-1,9
 178 50 178 50 250 50 c 128,-1,10
 322 50 322 50 373.5 101.5 c 128,-1,11
 425 153 425 153 425 225 c 0,12,13
 425 235 425 235 432.5 242.5 c 128,-1,14
 440 250 440 250 450 250 c 128,-1,15
 460 250 460 250 467.5 242.5 c 128,-1,16
 475 235 475 235 475 225 c 0,17,18
 475 132 475 132 409 66 c 128,-1,19
 343 0 343 0 250 0 c 128,-1,20
 157 0 157 0 91 66 c 128,-1,21
 25 132 25 132 25 225 c 128,-1,22
 25 318 25 318 91 384 c 128,-1,23
 157 450 157 450 250 450 c 0,0,1
126.255859375 384.098632812 m 2,24,-1
 409.098632812 101.255859375 l 1,25,26
 416.424804688 93.9312684607 416.424804688 93.9312684607 416.424804688 83.5751953125 c 128,-1,27
 416.424804688 73.2259581018 416.424804688 73.2259581018 409.098632812 65.9013671875 c 128,-1,28
 401.774041898 58.5751953125 401.774041898 58.5751953125 391.41796875 58.5751953125 c 128,-1,29
 381.068731539 58.5751953125 381.068731539 58.5751953125 373.744140625 65.9013671875 c 2,30,-1
 90.9013671875 348.744140625 l 1,31,32
 83.5751953125 356.068731539 83.5751953125 356.068731539 83.5751953125 366.424804688 c 128,-1,33
 83.5751953125 376.774041898 83.5751953125 376.774041898 90.9013671875 384.098632812 c 128,-1,34
 98.2259581018 391.424804688 98.2259581018 391.424804688 108.58203125 391.424804688 c 128,-1,35
 118.931268461 391.424804688 118.931268461 391.424804688 126.255859375 384.098632812 c 2,24,-1
EndSplineSet
EndChar

StartChar: bracketleft
Encoding: 91 91 59
Width: 500
Flags: W
LayerCount: 2
Fore
SplineSet
250 550 m 0,0,1
 301.238592177 549.673127357 301.238592177 549.673127357 338.388671875 513.388671875 c 0,2,3
 345.710693359 506.066650391 345.710693359 506.066650391 345.710693359 495.7109375 c 128,-1,4
 345.710693359 485.355224609 345.710693359 485.355224609 338.388671875 478.033203125 c 128,-1,5
 331.066650391 470.711181641 331.066650391 470.711181641 320.7109375 470.711181641 c 128,-1,6
 310.355224609 470.711181641 310.355224609 470.711181641 303.033203125 478.033203125 c 1,7,-1
 302.83203125 477.83203125 l 1,8,9
 280.997208646 499.834255213 280.997208646 499.834255213 250 500 c 128,-1,10
 219 500 219 500 197 478 c 128,-1,11
 175 456 175 456 175 425 c 2,12,-1
 175 25 l 2,13,14
 175 -6 175 -6 197 -28 c 128,-1,15
 219 -50 219 -50 250 -50 c 128,-1,16
 280.997208646 -49.8342552133 280.997208646 -49.8342552133 302.83203125 -27.83203125 c 1,17,-1
 303.033203125 -28.033203125 l 1,18,19
 310.355224609 -20.7111816406 310.355224609 -20.7111816406 320.7109375 -20.7111816406 c 128,-1,20
 331.066650391 -20.7111816406 331.066650391 -20.7111816406 338.388671875 -28.033203125 c 128,-1,21
 345.710693359 -35.3552246094 345.710693359 -35.3552246094 345.710693359 -45.7109375 c 128,-1,22
 345.710693359 -56.0666503906 345.710693359 -56.0666503906 338.388671875 -63.388671875 c 0,23,24
 301.245595552 -99.6731825953 301.245595552 -99.6731825953 250 -100 c 0,25,26
 198.93259342 -100 198.93259342 -100 162.547007041 -64.25055354 c 128,-1,27
 126.161420663 -28.5011070799 126.161420663 -28.5011070799 125.12890625 22.443359375 c 0,28,29
 125 23.7060546875 125 23.7060546875 125 25 c 2,30,-1
 125 425 l 2,31,32
 125 426.295410156 125 426.295410156 125.12890625 427.556640625 c 0,33,34
 126.161420663 478.50110708 126.161420663 478.50110708 162.547007041 514.25055354 c 128,-1,35
 198.93259342 550 198.93259342 550 250 550 c 0,0,1
EndSplineSet
EndChar

StartChar: backslash
Encoding: 92 92 60
Width: 500
Flags: W
LayerCount: 2
Fore
SplineSet
126.255859375 384.098632812 m 2,0,-1
 409.098632812 101.255859375 l 1,1,2
 416.424804688 93.9312684607 416.424804688 93.9312684607 416.424804688 83.5751953125 c 128,-1,3
 416.424804688 73.2259581018 416.424804688 73.2259581018 409.098632812 65.9013671875 c 128,-1,4
 401.774041898 58.5751953125 401.774041898 58.5751953125 391.41796875 58.5751953125 c 128,-1,5
 381.068731539 58.5751953125 381.068731539 58.5751953125 373.744140625 65.9013671875 c 2,6,-1
 90.9013671875 348.744140625 l 1,7,8
 83.5751953125 356.068731539 83.5751953125 356.068731539 83.5751953125 366.424804688 c 128,-1,9
 83.5751953125 376.774041898 83.5751953125 376.774041898 90.9013671875 384.098632812 c 128,-1,10
 98.2259581018 391.424804688 98.2259581018 391.424804688 108.58203125 391.424804688 c 128,-1,11
 118.931268461 391.424804688 118.931268461 391.424804688 126.255859375 384.098632812 c 2,0,-1
EndSplineSet
EndChar

StartChar: bracketright
Encoding: 93 93 61
Width: 500
Flags: W
LayerCount: 2
Fore
SplineSet
250 550 m 0,0,1
 301.06740658 550 301.06740658 550 337.452992959 514.25055354 c 128,-1,2
 373.838579337 478.50110708 373.838579337 478.50110708 374.87109375 427.556640625 c 0,3,4
 374.878976988 427.17123786 374.878976988 427.17123786 374.939488494 426.31718929 c 128,-1,5
 375 425.46314072 375 425.46314072 375 425 c 2,6,-1
 375 25 l 2,7,8
 375 24.536990282 375 24.536990282 374.93949115 23.6832251626 c 128,-1,9
 374.878982299 22.8294600431 374.878982299 22.8294600431 374.87109375 22.443359375 c 0,10,11
 373.838579337 -28.5011070799 373.838579337 -28.5011070799 337.452992959 -64.25055354 c 128,-1,12
 301.06740658 -100 301.06740658 -100 250 -100 c 0,13,14
 198.75689324 -99.6730985567 198.75689324 -99.6730985567 161.611328125 -63.388671875 c 0,15,16
 154.289306641 -56.0666503906 154.289306641 -56.0666503906 154.289306641 -45.7109375 c 128,-1,17
 154.289306641 -35.3552246094 154.289306641 -35.3552246094 161.611328125 -28.033203125 c 128,-1,18
 168.933349609 -20.7111816406 168.933349609 -20.7111816406 179.2890625 -20.7111816406 c 128,-1,19
 189.644775391 -20.7111816406 189.644775391 -20.7111816406 196.966796875 -28.033203125 c 1,20,-1
 197.16796875 -27.83203125 l 1,21,22
 219.002791354 -49.8342552133 219.002791354 -49.8342552133 250 -50 c 128,-1,23
 281 -50 281 -50 303 -28 c 128,-1,24
 325 -6 325 -6 325 25 c 2,25,-1
 325 425 l 2,26,27
 325 456 325 456 303 478 c 128,-1,28
 281 500 281 500 250 500 c 128,-1,29
 219.002791354 499.834255213 219.002791354 499.834255213 197.16796875 477.83203125 c 1,30,-1
 196.966796875 478.033203125 l 1,31,32
 189.644775391 470.711181641 189.644775391 470.711181641 179.2890625 470.711181641 c 128,-1,33
 168.933349609 470.711181641 168.933349609 470.711181641 161.611328125 478.033203125 c 128,-1,34
 154.289306641 485.355224609 154.289306641 485.355224609 154.289306641 495.7109375 c 128,-1,35
 154.289306641 506.066650391 154.289306641 506.066650391 161.611328125 513.388671875 c 0,36,37
 198.754404448 549.673182595 198.754404448 549.673182595 250 550 c 0,0,1
EndSplineSet
EndChar

StartChar: asciicircum
Encoding: 94 94 62
Width: 500
Flags: W
LayerCount: 2
Fore
SplineSet
250 450 m 128,-1,1
 260 450 260 450 267.5 442.5 c 128,-1,2
 275 435 275 435 275 425 c 128,-1,3
 275 415 275 415 267.5 407.5 c 128,-1,4
 260 400 260 400 250 400 c 128,-1,5
 240 400 240 400 232.5 407.5 c 128,-1,6
 225 415 225 415 225 425 c 128,-1,7
 225 435 225 435 232.5 442.5 c 128,-1,0
 240 450 240 450 250 450 c 128,-1,1
EndSplineSet
EndChar

StartChar: underscore
Encoding: 95 95 63
Width: 500
Flags: W
LayerCount: 2
Fore
SplineSet
250 50 m 128,-1,1
 260 50 260 50 267.5 42.5 c 128,-1,2
 275 35 275 35 275 25 c 128,-1,3
 275 15 275 15 267.5 7.5 c 128,-1,4
 260 0 260 0 250 0 c 128,-1,5
 240 0 240 0 232.5 7.5 c 128,-1,6
 225 15 225 15 225 25 c 128,-1,7
 225 35 225 35 232.5 42.5 c 128,-1,0
 240 50 240 50 250 50 c 128,-1,1
EndSplineSet
EndChar

StartChar: grave
Encoding: 96 96 64
Width: 500
Flags: W
LayerCount: 2
Fore
SplineSet
50 250 m 128,-1,1
 60 250 60 250 67.5 242.5 c 128,-1,2
 75 235 75 235 75 225 c 128,-1,3
 75 215 75 215 67.5 207.5 c 128,-1,4
 60 200 60 200 50 200 c 128,-1,5
 40 200 40 200 32.5 207.5 c 128,-1,6
 25 215 25 215 25 225 c 128,-1,7
 25 235 25 235 32.5 242.5 c 128,-1,0
 40 250 40 250 50 250 c 128,-1,1
EndSplineSet
EndChar

StartChar: a
Encoding: 97 97 65
Width: 500
Flags: W
LayerCount: 2
Fore
SplineSet
250 450 m 128,-1,1
 343 450 343 450 409 384 c 128,-1,2
 475 318 475 318 475 225 c 0,3,4
 475 215 475 215 467.5 207.5 c 128,-1,5
 460 200 460 200 450 200 c 128,-1,6
 440 200 440 200 432.5 207.5 c 128,-1,7
 425 215 425 215 425 225 c 0,8,9
 425 297 425 297 373.5 348.5 c 128,-1,10
 322 400 322 400 250 400 c 128,-1,11
 178 400 178 400 126.5 348.5 c 128,-1,12
 75 297 75 297 75 225 c 0,13,14
 75 215 75 215 67.5 207.5 c 128,-1,15
 60 200 60 200 50 200 c 128,-1,16
 40 200 40 200 32.5 207.5 c 128,-1,17
 25 215 25 215 25 225 c 0,18,19
 25 318 25 318 91 384 c 128,-1,0
 157 450 157 450 250 450 c 128,-1,1
106.794921875 391.357421875 m 0,20,21
 107.730624112 391.424804688 107.730624112 391.424804688 108.58203125 391.424804688 c 0,22,23
 118.929082971 391.424804688 118.929082971 391.424804688 126.255859375 384.099609375 c 2,24,-1
 267.677734375 242.677734375 l 1,25,26
 275 235.35546875 275 235.35546875 275 225 c 0,27,28
 275 215 275 215 267.5 207.5 c 128,-1,29
 260 200 260 200 250 200 c 0,30,31
 239.6598045 200.03666216 239.6598045 200.03666216 232.3671875 207.3671875 c 1,32,-1
 232.322265625 207.322265625 l 1,33,-1
 90.900390625 348.744140625 l 1,34,35
 83.57421875 356.0703125 83.57421875 356.0703125 83.57421875 366.42578125 c 128,-1,36
 83.57421875 376.7734375 83.57421875 376.7734375 90.900390625 384.099609375 c 0,37,38
 97.4938401442 390.693058894 97.4938401442 390.693058894 106.794921875 391.357421875 c 0,20,21
EndSplineSet
EndChar

StartChar: b
Encoding: 98 98 66
Width: 500
Flags: W
LayerCount: 2
Fore
SplineSet
250 450 m 128,-1,1
 343.197638556 450 343.197638556 450 409.099609375 384.099609375 c 0,2,3
 416.421875 376.77734375 416.421875 376.77734375 416.421875 366.421875 c 128,-1,4
 416.421875 356.073486328 416.421875 356.073486328 409.096069336 348.747680664 c 128,-1,5
 401.770263672 341.421875 401.770263672 341.421875 391.421875 341.421875 c 128,-1,6
 381.06640625 341.421875 381.06640625 341.421875 373.744140625 348.744140625 c 0,7,8
 322.48828125 400 322.48828125 400 250 400 c 0,9,10
 178 400 178 400 126.5 348.5 c 128,-1,11
 75 297 75 297 75 225 c 128,-1,12
 75 153 75 153 126.5 101.5 c 128,-1,13
 178 50 178 50 250 50 c 0,14,15
 322.48828125 50 322.48828125 50 373.744140625 101.255859375 c 0,16,17
 381.06640625 108.578125 381.06640625 108.578125 391.421875 108.578125 c 128,-1,18
 401.770263672 108.578125 401.770263672 108.578125 409.096069336 101.252319336 c 128,-1,19
 416.421875 93.9265136719 416.421875 93.9265136719 416.421875 83.578125 c 128,-1,20
 416.421875 73.22265625 416.421875 73.22265625 409.099609375 65.900390625 c 0,21,22
 343.197638556 0 343.197638556 0 250 0 c 128,-1,23
 157 0 157 0 91 66 c 128,-1,24
 25 132 25 132 25 225 c 128,-1,25
 25 318 25 318 91 384 c 128,-1,0
 157 450 157 450 250 450 c 128,-1,1
126.255859375 384.098632812 m 2,26,-1
 409.098632812 101.255859375 l 1,27,28
 416.424804688 93.9312684607 416.424804688 93.9312684607 416.424804688 83.5751953125 c 128,-1,29
 416.424804688 73.2259581018 416.424804688 73.2259581018 409.098632812 65.9013671875 c 128,-1,30
 401.774041898 58.5751953125 401.774041898 58.5751953125 391.41796875 58.5751953125 c 128,-1,31
 381.068731539 58.5751953125 381.068731539 58.5751953125 373.744140625 65.9013671875 c 2,32,-1
 90.9013671875 348.744140625 l 1,33,34
 83.5751953125 356.068731539 83.5751953125 356.068731539 83.5751953125 366.424804688 c 128,-1,35
 83.5751953125 376.774041898 83.5751953125 376.774041898 90.9013671875 384.098632812 c 128,-1,36
 98.2259581018 391.424804688 98.2259581018 391.424804688 108.58203125 391.424804688 c 128,-1,37
 118.931268461 391.424804688 118.931268461 391.424804688 126.255859375 384.098632812 c 2,26,-1
EndSplineSet
EndChar

StartChar: c
Encoding: 99 99 67
Width: 500
Flags: W
LayerCount: 2
Fore
SplineSet
250 450 m 128,-1,1
 343 450 343 450 409 384 c 128,-1,2
 475 318 475 318 475 225 c 128,-1,3
 475 132 475 132 409 66 c 128,-1,4
 343 0 343 0 250 0 c 128,-1,5
 156.802361444 0 156.802361444 0 90.900390625 65.900390625 c 0,6,7
 83.578125 73.22265625 83.578125 73.22265625 83.578125 83.578125 c 128,-1,8
 83.578125 93.9265136719 83.578125 93.9265136719 90.9039306641 101.252319336 c 128,-1,9
 98.2297363281 108.578125 98.2297363281 108.578125 108.578125 108.578125 c 128,-1,10
 118.93359375 108.578125 118.93359375 108.578125 126.255859375 101.255859375 c 0,11,12
 177.51171875 50 177.51171875 50 250 50 c 0,13,14
 322 50 322 50 373.5 101.5 c 128,-1,15
 425 153 425 153 425 225 c 128,-1,16
 425 297 425 297 373.5 348.5 c 128,-1,17
 322 400 322 400 250 400 c 0,18,19
 177.51171875 400 177.51171875 400 126.255859375 348.744140625 c 0,20,21
 118.93359375 341.421875 118.93359375 341.421875 108.578125 341.421875 c 128,-1,22
 98.2297363281 341.421875 98.2297363281 341.421875 90.9039306641 348.747680664 c 128,-1,23
 83.578125 356.073486328 83.578125 356.073486328 83.578125 366.421875 c 128,-1,24
 83.578125 376.77734375 83.578125 376.77734375 90.900390625 384.099609375 c 0,25,0
 156.802361444 450 156.802361444 450 250 450 c 128,-1,1
126.255859375 384.098632812 m 2,26,-1
 409.098632812 101.255859375 l 1,27,28
 416.424804688 93.9312684607 416.424804688 93.9312684607 416.424804688 83.5751953125 c 128,-1,29
 416.424804688 73.2259581018 416.424804688 73.2259581018 409.098632812 65.9013671875 c 128,-1,30
 401.774041898 58.5751953125 401.774041898 58.5751953125 391.41796875 58.5751953125 c 128,-1,31
 381.068731539 58.5751953125 381.068731539 58.5751953125 373.744140625 65.9013671875 c 2,32,-1
 90.9013671875 348.744140625 l 1,33,34
 83.5751953125 356.068731539 83.5751953125 356.068731539 83.5751953125 366.424804688 c 128,-1,35
 83.5751953125 376.774041898 83.5751953125 376.774041898 90.9013671875 384.098632812 c 128,-1,36
 98.2259581018 391.424804688 98.2259581018 391.424804688 108.58203125 391.424804688 c 128,-1,37
 118.931268461 391.424804688 118.931268461 391.424804688 126.255859375 384.098632812 c 2,26,-1
EndSplineSet
EndChar

StartChar: d
Encoding: 100 100 68
Width: 500
Flags: W
LayerCount: 2
Fore
SplineSet
108.578125 391.421875 m 128,-1,1
 118.926513672 391.421875 118.926513672 391.421875 126.252319336 384.096069336 c 128,-1,2
 133.578125 376.770263672 133.578125 376.770263672 133.578125 366.421875 c 128,-1,3
 133.578125 356.06640625 133.578125 356.06640625 126.255859375 348.744140625 c 0,4,5
 75 297.48828125 75 297.48828125 75 225 c 0,6,7
 75 153 75 153 126.5 101.5 c 128,-1,8
 178 50 178 50 250 50 c 128,-1,9
 322 50 322 50 373.5 101.5 c 128,-1,10
 425 153 425 153 425 225 c 0,11,12
 425 297.48828125 425 297.48828125 373.744140625 348.744140625 c 0,13,14
 366.421875 356.06640625 366.421875 356.06640625 366.421875 366.421875 c 128,-1,15
 366.421875 376.770263672 366.421875 376.770263672 373.747680664 384.096069336 c 128,-1,16
 381.073486328 391.421875 381.073486328 391.421875 391.421875 391.421875 c 128,-1,17
 401.77734375 391.421875 401.77734375 391.421875 409.099609375 384.099609375 c 0,18,19
 475 318.197638556 475 318.197638556 475 225 c 128,-1,20
 475 132 475 132 409 66 c 128,-1,21
 343 0 343 0 250 0 c 128,-1,22
 157 0 157 0 91 66 c 128,-1,23
 25 132 25 132 25 225 c 128,-1,24
 25 318.197638556 25 318.197638556 90.900390625 384.099609375 c 0,25,0
 98.22265625 391.421875 98.22265625 391.421875 108.578125 391.421875 c 128,-1,1
126.255859375 384.098632812 m 2,26,-1
 409.098632812 101.255859375 l 1,27,28
 416.424804688 93.9312684607 416.424804688 93.9312684607 416.424804688 83.5751953125 c 128,-1,29
 416.424804688 73.2259581018 416.424804688 73.2259581018 409.098632812 65.9013671875 c 128,-1,30
 401.774041898 58.5751953125 401.774041898 58.5751953125 391.41796875 58.5751953125 c 128,-1,31
 381.068731539 58.5751953125 381.068731539 58.5751953125 373.744140625 65.9013671875 c 2,32,-1
 90.9013671875 348.744140625 l 1,33,34
 83.5751953125 356.068731539 83.5751953125 356.068731539 83.5751953125 366.424804688 c 128,-1,35
 83.5751953125 376.774041898 83.5751953125 376.774041898 90.9013671875 384.098632812 c 128,-1,36
 98.2259581018 391.424804688 98.2259581018 391.424804688 108.58203125 391.424804688 c 128,-1,37
 118.931268461 391.424804688 118.931268461 391.424804688 126.255859375 384.098632812 c 2,26,-1
EndSplineSet
EndChar

StartChar: e
Encoding: 101 101 69
Width: 500
Flags: W
LayerCount: 2
Fore
SplineSet
106.794921875 391.357421875 m 0,0,1
 107.730624112 391.424804688 107.730624112 391.424804688 108.58203125 391.424804688 c 0,2,3
 118.929082971 391.424804688 118.929082971 391.424804688 126.255859375 384.099609375 c 2,4,-1
 267.677734375 242.677734375 l 1,5,6
 275 235.35546875 275 235.35546875 275 225 c 0,7,8
 275 215 275 215 267.5 207.5 c 128,-1,9
 260 200 260 200 250 200 c 0,10,11
 239.6598045 200.03666216 239.6598045 200.03666216 232.3671875 207.3671875 c 1,12,-1
 232.322265625 207.322265625 l 1,13,-1
 90.900390625 348.744140625 l 1,14,15
 83.57421875 356.0703125 83.57421875 356.0703125 83.57421875 366.42578125 c 128,-1,16
 83.57421875 376.7734375 83.57421875 376.7734375 90.900390625 384.099609375 c 0,17,18
 97.4938401442 390.693058894 97.4938401442 390.693058894 106.794921875 391.357421875 c 0,0,1
EndSplineSet
EndChar

StartChar: f
Encoding: 102 102 70
Width: 500
Flags: W
LayerCount: 2
Fore
SplineSet
250 450 m 128,-1,1
 343 450 343 450 409 384 c 128,-1,2
 475 318 475 318 475 225 c 128,-1,3
 475 131.802361444 475 131.802361444 409.099609375 65.900390625 c 0,4,5
 401.77734375 58.578125 401.77734375 58.578125 391.421875 58.578125 c 128,-1,6
 381.073486328 58.578125 381.073486328 58.578125 373.747680664 65.9039306641 c 128,-1,7
 366.421875 73.2297363281 366.421875 73.2297363281 366.421875 83.578125 c 128,-1,8
 366.421875 93.93359375 366.421875 93.93359375 373.744140625 101.255859375 c 0,9,10
 425 152.51171875 425 152.51171875 425 225 c 0,11,12
 425 297 425 297 373.5 348.5 c 128,-1,13
 322 400 322 400 250 400 c 128,-1,14
 178 400 178 400 126.5 348.5 c 128,-1,15
 75 297 75 297 75 225 c 0,16,17
 75 152.51171875 75 152.51171875 126.255859375 101.255859375 c 0,18,19
 133.578125 93.93359375 133.578125 93.93359375 133.578125 83.578125 c 128,-1,20
 133.578125 73.2297363281 133.578125 73.2297363281 126.252319336 65.9039306641 c 128,-1,21
 118.926513672 58.578125 118.926513672 58.578125 108.578125 58.578125 c 128,-1,22
 98.22265625 58.578125 98.22265625 58.578125 90.900390625 65.900390625 c 0,23,24
 25 131.802361444 25 131.802361444 25 225 c 128,-1,25
 25 318 25 318 91 384 c 128,-1,0
 157 450 157 450 250 450 c 128,-1,1
EndSplineSet
EndChar

StartChar: g
Encoding: 103 103 71
Width: 500
Flags: W
LayerCount: 2
Fore
SplineSet
250 450 m 0,0,1
 343 450 343 450 409 384 c 128,-1,2
 475 318 475 318 475 225 c 128,-1,3
 475 132 475 132 409 66 c 128,-1,4
 343 0 343 0 250 0 c 128,-1,5
 157 0 157 0 91 66 c 128,-1,6
 25 132 25 132 25 225 c 0,7,8
 25 235 25 235 32.5 242.5 c 128,-1,9
 40 250 40 250 50 250 c 128,-1,10
 60 250 60 250 67.5 242.5 c 128,-1,11
 75 235 75 235 75 225 c 0,12,13
 75 153 75 153 126.5 101.5 c 128,-1,14
 178 50 178 50 250 50 c 128,-1,15
 322 50 322 50 373.5 101.5 c 128,-1,16
 425 153 425 153 425 225 c 128,-1,17
 425 297 425 297 373.5 348.5 c 128,-1,18
 322 400 322 400 250 400 c 0,19,20
 240 400 240 400 232.5 407.5 c 128,-1,21
 225 415 225 415 225 425 c 128,-1,22
 225 435 225 435 232.5 442.5 c 128,-1,23
 240 450 240 450 250 450 c 0,0,1
126.255859375 384.098632812 m 2,24,-1
 409.098632812 101.255859375 l 1,25,26
 416.424804688 93.9312684607 416.424804688 93.9312684607 416.424804688 83.5751953125 c 128,-1,27
 416.424804688 73.2259581018 416.424804688 73.2259581018 409.098632812 65.9013671875 c 128,-1,28
 401.774041898 58.5751953125 401.774041898 58.5751953125 391.41796875 58.5751953125 c 128,-1,29
 381.068731539 58.5751953125 381.068731539 58.5751953125 373.744140625 65.9013671875 c 2,30,-1
 90.9013671875 348.744140625 l 1,31,32
 83.5751953125 356.068731539 83.5751953125 356.068731539 83.5751953125 366.424804688 c 128,-1,33
 83.5751953125 376.774041898 83.5751953125 376.774041898 90.9013671875 384.098632812 c 128,-1,34
 98.2259581018 391.424804688 98.2259581018 391.424804688 108.58203125 391.424804688 c 128,-1,35
 118.931268461 391.424804688 118.931268461 391.424804688 126.255859375 384.098632812 c 2,24,-1
EndSplineSet
EndChar

StartChar: h
Encoding: 104 104 72
Width: 500
Flags: W
LayerCount: 2
Fore
SplineSet
250 450 m 128,-1,1
 343 450 343 450 409 384 c 128,-1,2
 475 318 475 318 475 225 c 128,-1,3
 475 132 475 132 409 66 c 128,-1,4
 343 0 343 0 250 0 c 0,5,6
 240 0 240 0 232.5 7.5 c 128,-1,7
 225 15 225 15 225 25 c 128,-1,8
 225 35 225 35 232.5 42.5 c 128,-1,9
 240 50 240 50 250 50 c 0,10,11
 322 50 322 50 373.5 101.5 c 128,-1,12
 425 153 425 153 425 225 c 128,-1,13
 425 297 425 297 373.5 348.5 c 128,-1,14
 322 400 322 400 250 400 c 128,-1,15
 178 400 178 400 126.5 348.5 c 128,-1,16
 75 297 75 297 75 225 c 0,17,18
 75 215 75 215 67.5 207.5 c 128,-1,19
 60 200 60 200 50 200 c 128,-1,20
 40 200 40 200 32.5 207.5 c 128,-1,21
 25 215 25 215 25 225 c 0,22,23
 25 318 25 318 91 384 c 128,-1,0
 157 450 157 450 250 450 c 128,-1,1
EndSplineSet
EndChar

StartChar: i
Encoding: 105 105 73
Width: 500
Flags: W
LayerCount: 2
Fore
SplineSet
250 450 m 128,-1,1
 343 450 343 450 409 384 c 128,-1,2
 475 318 475 318 475 225 c 0,3,4
 475 215 475 215 467.5 207.5 c 128,-1,5
 460 200 460 200 450 200 c 128,-1,6
 440 200 440 200 432.5 207.5 c 128,-1,7
 425 215 425 215 425 225 c 0,8,9
 425 297 425 297 373.5 348.5 c 128,-1,10
 322 400 322 400 250 400 c 128,-1,11
 178 400 178 400 126.5 348.5 c 128,-1,12
 75 297 75 297 75 225 c 0,13,14
 75 215 75 215 67.5 207.5 c 128,-1,15
 60 200 60 200 50 200 c 128,-1,16
 40 200 40 200 32.5 207.5 c 128,-1,17
 25 215 25 215 25 225 c 0,18,19
 25 318 25 318 91 384 c 128,-1,0
 157 450 157 450 250 450 c 128,-1,1
EndSplineSet
EndChar

StartChar: j
Encoding: 106 106 74
Width: 500
Flags: W
LayerCount: 2
Fore
SplineSet
250 450 m 0,0,1
 260 450 260 450 267.5 442.5 c 128,-1,2
 275 435 275 435 275 425 c 128,-1,3
 275 415 275 415 267.5 407.5 c 128,-1,4
 260 400 260 400 250 400 c 0,5,6
 178 400 178 400 126.5 348.5 c 128,-1,7
 75 297 75 297 75 225 c 128,-1,8
 75 153 75 153 126.5 101.5 c 128,-1,9
 178 50 178 50 250 50 c 128,-1,10
 322 50 322 50 373.5 101.5 c 128,-1,11
 425 153 425 153 425 225 c 0,12,13
 425 235 425 235 432.5 242.5 c 128,-1,14
 440 250 440 250 450 250 c 128,-1,15
 460 250 460 250 467.5 242.5 c 128,-1,16
 475 235 475 235 475 225 c 0,17,18
 475 132 475 132 409 66 c 128,-1,19
 343 0 343 0 250 0 c 128,-1,20
 157 0 157 0 91 66 c 128,-1,21
 25 132 25 132 25 225 c 128,-1,22
 25 318 25 318 91 384 c 128,-1,23
 157 450 157 450 250 450 c 0,0,1
126.255859375 384.098632812 m 2,24,-1
 409.098632812 101.255859375 l 1,25,26
 416.424804688 93.9312684607 416.424804688 93.9312684607 416.424804688 83.5751953125 c 128,-1,27
 416.424804688 73.2259581018 416.424804688 73.2259581018 409.098632812 65.9013671875 c 128,-1,28
 401.774041898 58.5751953125 401.774041898 58.5751953125 391.41796875 58.5751953125 c 128,-1,29
 381.068731539 58.5751953125 381.068731539 58.5751953125 373.744140625 65.9013671875 c 2,30,-1
 90.9013671875 348.744140625 l 1,31,32
 83.5751953125 356.068731539 83.5751953125 356.068731539 83.5751953125 366.424804688 c 128,-1,33
 83.5751953125 376.774041898 83.5751953125 376.774041898 90.9013671875 384.098632812 c 128,-1,34
 98.2259581018 391.424804688 98.2259581018 391.424804688 108.58203125 391.424804688 c 128,-1,35
 118.931268461 391.424804688 118.931268461 391.424804688 126.255859375 384.098632812 c 2,24,-1
250 350 m 128,-1,37
 302 350 302 350 338.5 313.5 c 128,-1,38
 375 277 375 277 375 225 c 128,-1,39
 375 173 375 173 338.5 136.5 c 128,-1,40
 302 100 302 100 250 100 c 128,-1,41
 198 100 198 100 161.5 136.5 c 128,-1,42
 125 173 125 173 125 225 c 128,-1,43
 125 277 125 277 161.5 313.5 c 128,-1,36
 198 350 198 350 250 350 c 128,-1,37
250 300 m 128,-1,45
 219 300 219 300 197 278 c 128,-1,46
 175 256 175 256 175 225 c 128,-1,47
 175 194 175 194 197 172 c 128,-1,48
 219 150 219 150 250 150 c 128,-1,49
 281 150 281 150 303 172 c 128,-1,50
 325 194 325 194 325 225 c 128,-1,51
 325 256 325 256 303 278 c 128,-1,44
 281 300 281 300 250 300 c 128,-1,45
EndSplineSet
EndChar

StartChar: k
Encoding: 107 107 75
Width: 500
Flags: W
LayerCount: 2
Fore
SplineSet
250 450 m 0,0,1
 343 450 343 450 409 384 c 128,-1,2
 475 318 475 318 475 225 c 128,-1,3
 475 132 475 132 409 66 c 128,-1,4
 343 0 343 0 250 0 c 128,-1,5
 157 0 157 0 91 66 c 128,-1,6
 25 132 25 132 25 225 c 0,7,8
 25 235 25 235 32.5 242.5 c 128,-1,9
 40 250 40 250 50 250 c 128,-1,10
 60 250 60 250 67.5 242.5 c 128,-1,11
 75 235 75 235 75 225 c 0,12,13
 75 153 75 153 126.5 101.5 c 128,-1,14
 178 50 178 50 250 50 c 128,-1,15
 322 50 322 50 373.5 101.5 c 128,-1,16
 425 153 425 153 425 225 c 128,-1,17
 425 297 425 297 373.5 348.5 c 128,-1,18
 322 400 322 400 250 400 c 0,19,20
 240 400 240 400 232.5 407.5 c 128,-1,21
 225 415 225 415 225 425 c 128,-1,22
 225 435 225 435 232.5 442.5 c 128,-1,23
 240 450 240 450 250 450 c 0,0,1
EndSplineSet
EndChar

StartChar: l
Encoding: 108 108 76
Width: 500
Flags: W
LayerCount: 2
Fore
SplineSet
250 450 m 128,-1,1
 343 450 343 450 409 384 c 128,-1,2
 475 318 475 318 475 225 c 128,-1,3
 475 132 475 132 409 66 c 128,-1,4
 343 0 343 0 250 0 c 128,-1,5
 157 0 157 0 91 66 c 128,-1,6
 25 132 25 132 25 225 c 128,-1,7
 25 318 25 318 91 384 c 128,-1,0
 157 450 157 450 250 450 c 128,-1,1
250 400 m 128,-1,9
 178 400 178 400 126.5 348.5 c 128,-1,10
 75 297 75 297 75 225 c 128,-1,11
 75 153 75 153 126.5 101.5 c 128,-1,12
 178 50 178 50 250 50 c 128,-1,13
 322 50 322 50 373.5 101.5 c 128,-1,14
 425 153 425 153 425 225 c 128,-1,15
 425 297 425 297 373.5 348.5 c 128,-1,8
 322 400 322 400 250 400 c 128,-1,9
126.255859375 384.098632812 m 2,16,-1
 409.098632812 101.255859375 l 1,17,18
 416.424804688 93.9312684607 416.424804688 93.9312684607 416.424804688 83.5751953125 c 128,-1,19
 416.424804688 73.2259581018 416.424804688 73.2259581018 409.098632812 65.9013671875 c 128,-1,20
 401.774041898 58.5751953125 401.774041898 58.5751953125 391.41796875 58.5751953125 c 128,-1,21
 381.068731539 58.5751953125 381.068731539 58.5751953125 373.744140625 65.9013671875 c 2,22,-1
 90.9013671875 348.744140625 l 1,23,24
 83.5751953125 356.068731539 83.5751953125 356.068731539 83.5751953125 366.424804688 c 128,-1,25
 83.5751953125 376.774041898 83.5751953125 376.774041898 90.9013671875 384.098632812 c 128,-1,26
 98.2259581018 391.424804688 98.2259581018 391.424804688 108.58203125 391.424804688 c 128,-1,27
 118.931268461 391.424804688 118.931268461 391.424804688 126.255859375 384.098632812 c 2,16,-1
EndSplineSet
EndChar

StartChar: m
Encoding: 109 109 77
Width: 500
Flags: W
LayerCount: 2
Fore
SplineSet
250 450 m 128,-1,1
 343 450 343 450 409 384 c 128,-1,2
 475 318 475 318 475 225 c 0,3,4
 475 215 475 215 467.5 207.5 c 128,-1,5
 460 200 460 200 450 200 c 128,-1,6
 440 200 440 200 432.5 207.5 c 128,-1,7
 425 215 425 215 425 225 c 0,8,9
 425 297 425 297 373.5 348.5 c 128,-1,10
 322 400 322 400 250 400 c 128,-1,11
 178 400 178 400 126.5 348.5 c 128,-1,12
 75 297 75 297 75 225 c 128,-1,13
 75 153 75 153 126.5 101.5 c 128,-1,14
 178 50 178 50 250 50 c 0,15,16
 260 50 260 50 267.5 42.5 c 128,-1,17
 275 35 275 35 275 25 c 128,-1,18
 275 15 275 15 267.5 7.5 c 128,-1,19
 260 0 260 0 250 0 c 0,20,21
 157 0 157 0 91 66 c 128,-1,22
 25 132 25 132 25 225 c 128,-1,23
 25 318 25 318 91 384 c 128,-1,0
 157 450 157 450 250 450 c 128,-1,1
EndSplineSet
EndChar

StartChar: n
Encoding: 110 110 78
Width: 500
Flags: W
LayerCount: 2
Fore
SplineSet
250 450 m 128,-1,1
 343 450 343 450 409 384 c 128,-1,2
 475 318 475 318 475 225 c 0,3,4
 475 215 475 215 467.5 207.5 c 128,-1,5
 460 200 460 200 450 200 c 128,-1,6
 440 200 440 200 432.5 207.5 c 128,-1,7
 425 215 425 215 425 225 c 0,8,9
 425 297 425 297 373.5 348.5 c 128,-1,10
 322 400 322 400 250 400 c 128,-1,11
 178 400 178 400 126.5 348.5 c 128,-1,12
 75 297 75 297 75 225 c 128,-1,13
 75 153 75 153 126.5 101.5 c 128,-1,14
 178 50 178 50 250 50 c 0,15,16
 260 50 260 50 267.5 42.5 c 128,-1,17
 275 35 275 35 275 25 c 128,-1,18
 275 15 275 15 267.5 7.5 c 128,-1,19
 260 0 260 0 250 0 c 0,20,21
 157 0 157 0 91 66 c 128,-1,22
 25 132 25 132 25 225 c 128,-1,23
 25 318 25 318 91 384 c 128,-1,0
 157 450 157 450 250 450 c 128,-1,1
126.255859375 384.098632812 m 2,24,-1
 409.098632812 101.255859375 l 1,25,26
 416.424804688 93.9312684607 416.424804688 93.9312684607 416.424804688 83.5751953125 c 128,-1,27
 416.424804688 73.2259581018 416.424804688 73.2259581018 409.098632812 65.9013671875 c 128,-1,28
 401.774041898 58.5751953125 401.774041898 58.5751953125 391.41796875 58.5751953125 c 128,-1,29
 381.068731539 58.5751953125 381.068731539 58.5751953125 373.744140625 65.9013671875 c 2,30,-1
 90.9013671875 348.744140625 l 1,31,32
 83.5751953125 356.068731539 83.5751953125 356.068731539 83.5751953125 366.424804688 c 128,-1,33
 83.5751953125 376.774041898 83.5751953125 376.774041898 90.9013671875 384.098632812 c 128,-1,34
 98.2259581018 391.424804688 98.2259581018 391.424804688 108.58203125 391.424804688 c 128,-1,35
 118.931268461 391.424804688 118.931268461 391.424804688 126.255859375 384.098632812 c 2,24,-1
EndSplineSet
EndChar

StartChar: o
Encoding: 111 111 79
Width: 500
Flags: W
LayerCount: 2
Fore
SplineSet
50 250 m 128,-1,1
 60 250 60 250 67.5 242.5 c 128,-1,2
 75 235 75 235 75 225 c 0,3,4
 75 153 75 153 126.5 101.5 c 128,-1,5
 178 50 178 50 250 50 c 128,-1,6
 322 50 322 50 373.5 101.5 c 128,-1,7
 425 153 425 153 425 225 c 0,8,9
 425 235 425 235 432.5 242.5 c 128,-1,10
 440 250 440 250 450 250 c 128,-1,11
 460 250 460 250 467.5 242.5 c 128,-1,12
 475 235 475 235 475 225 c 0,13,14
 475 132 475 132 409 66 c 128,-1,15
 343 0 343 0 250 0 c 128,-1,16
 157 0 157 0 91 66 c 128,-1,17
 25 132 25 132 25 225 c 0,18,19
 25 235 25 235 32.5 242.5 c 128,-1,0
 40 250 40 250 50 250 c 128,-1,1
250 250 m 0,20,21
 260.35546875 250 260.35546875 250 267.677734375 242.677734375 c 2,22,-1
 409.099609375 101.255859375 l 1,23,24
 416.42578125 93.9296875 416.42578125 93.9296875 416.42578125 83.57421875 c 128,-1,25
 416.42578125 73.2265625 416.42578125 73.2265625 409.099609375 65.900390625 c 128,-1,26
 401.7734375 58.57421875 401.7734375 58.57421875 391.41796875 58.57421875 c 128,-1,27
 381.0703125 58.57421875 381.0703125 58.57421875 373.744140625 65.900390625 c 2,28,-1
 232.322265625 207.322265625 l 1,29,-1
 232.3671875 207.3671875 l 1,30,31
 225.03666216 214.6598045 225.03666216 214.6598045 225 225 c 0,32,33
 225 235 225 235 232.5 242.5 c 128,-1,34
 240 250 240 250 250 250 c 0,20,21
EndSplineSet
EndChar

StartChar: p
Encoding: 112 112 80
Width: 500
Flags: W
LayerCount: 2
Fore
SplineSet
250 450 m 128,-1,1
 343.197638556 450 343.197638556 450 409.099609375 384.099609375 c 0,2,3
 416.421875 376.77734375 416.421875 376.77734375 416.421875 366.421875 c 128,-1,4
 416.421875 356.073486328 416.421875 356.073486328 409.096069336 348.747680664 c 128,-1,5
 401.770263672 341.421875 401.770263672 341.421875 391.421875 341.421875 c 128,-1,6
 381.06640625 341.421875 381.06640625 341.421875 373.744140625 348.744140625 c 0,7,8
 322.48828125 400 322.48828125 400 250 400 c 0,9,10
 178 400 178 400 126.5 348.5 c 128,-1,11
 75 297 75 297 75 225 c 128,-1,12
 75 153 75 153 126.5 101.5 c 128,-1,13
 178 50 178 50 250 50 c 0,14,15
 322.48828125 50 322.48828125 50 373.744140625 101.255859375 c 0,16,17
 381.06640625 108.578125 381.06640625 108.578125 391.421875 108.578125 c 128,-1,18
 401.770263672 108.578125 401.770263672 108.578125 409.096069336 101.252319336 c 128,-1,19
 416.421875 93.9265136719 416.421875 93.9265136719 416.421875 83.578125 c 128,-1,20
 416.421875 73.22265625 416.421875 73.22265625 409.099609375 65.900390625 c 0,21,22
 343.197638556 0 343.197638556 0 250 0 c 128,-1,23
 157 0 157 0 91 66 c 128,-1,24
 25 132 25 132 25 225 c 128,-1,25
 25 318 25 318 91 384 c 128,-1,0
 157 450 157 450 250 450 c 128,-1,1
EndSplineSet
EndChar

StartChar: q
Encoding: 113 113 81
Width: 500
Flags: W
LayerCount: 2
Fore
SplineSet
250 450 m 128,-1,1
 343 450 343 450 409 384 c 128,-1,2
 475 318 475 318 475 225 c 128,-1,3
 475 132 475 132 409 66 c 128,-1,4
 343 0 343 0 250 0 c 128,-1,5
 156.802361444 0 156.802361444 0 90.900390625 65.900390625 c 0,6,7
 83.578125 73.22265625 83.578125 73.22265625 83.578125 83.578125 c 128,-1,8
 83.578125 93.9265136719 83.578125 93.9265136719 90.9039306641 101.252319336 c 128,-1,9
 98.2297363281 108.578125 98.2297363281 108.578125 108.578125 108.578125 c 128,-1,10
 118.93359375 108.578125 118.93359375 108.578125 126.255859375 101.255859375 c 0,11,12
 177.51171875 50 177.51171875 50 250 50 c 0,13,14
 322 50 322 50 373.5 101.5 c 128,-1,15
 425 153 425 153 425 225 c 128,-1,16
 425 297 425 297 373.5 348.5 c 128,-1,17
 322 400 322 400 250 400 c 0,18,19
 177.51171875 400 177.51171875 400 126.255859375 348.744140625 c 0,20,21
 118.93359375 341.421875 118.93359375 341.421875 108.578125 341.421875 c 128,-1,22
 98.2297363281 341.421875 98.2297363281 341.421875 90.9039306641 348.747680664 c 128,-1,23
 83.578125 356.073486328 83.578125 356.073486328 83.578125 366.421875 c 128,-1,24
 83.578125 376.77734375 83.578125 376.77734375 90.900390625 384.099609375 c 0,25,0
 156.802361444 450 156.802361444 450 250 450 c 128,-1,1
EndSplineSet
EndChar

StartChar: r
Encoding: 114 114 82
Width: 500
Flags: W
LayerCount: 2
Fore
SplineSet
250 450 m 128,-1,1
 343 450 343 450 409 384 c 128,-1,2
 475 318 475 318 475 225 c 128,-1,3
 475 132 475 132 409 66 c 128,-1,4
 343 0 343 0 250 0 c 128,-1,5
 157 0 157 0 91 66 c 128,-1,6
 25 132 25 132 25 225 c 128,-1,7
 25 318 25 318 91 384 c 128,-1,0
 157 450 157 450 250 450 c 128,-1,1
250 400 m 128,-1,9
 178 400 178 400 126.5 348.5 c 128,-1,10
 75 297 75 297 75 225 c 128,-1,11
 75 153 75 153 126.5 101.5 c 128,-1,12
 178 50 178 50 250 50 c 128,-1,13
 322 50 322 50 373.5 101.5 c 128,-1,14
 425 153 425 153 425 225 c 128,-1,15
 425 297 425 297 373.5 348.5 c 128,-1,8
 322 400 322 400 250 400 c 128,-1,9
EndSplineSet
EndChar

StartChar: s
Encoding: 115 115 83
Width: 500
Flags: W
LayerCount: 2
Fore
SplineSet
250 450 m 0,0,1
 260 450 260 450 267.5 442.5 c 128,-1,2
 275 435 275 435 275 425 c 128,-1,3
 275 415 275 415 267.5 407.5 c 128,-1,4
 260 400 260 400 250 400 c 0,5,6
 178 400 178 400 126.5 348.5 c 128,-1,7
 75 297 75 297 75 225 c 128,-1,8
 75 153 75 153 126.5 101.5 c 128,-1,9
 178 50 178 50 250 50 c 128,-1,10
 322 50 322 50 373.5 101.5 c 128,-1,11
 425 153 425 153 425 225 c 0,12,13
 425 235 425 235 432.5 242.5 c 128,-1,14
 440 250 440 250 450 250 c 128,-1,15
 460 250 460 250 467.5 242.5 c 128,-1,16
 475 235 475 235 475 225 c 0,17,18
 475 132 475 132 409 66 c 128,-1,19
 343 0 343 0 250 0 c 128,-1,20
 157 0 157 0 91 66 c 128,-1,21
 25 132 25 132 25 225 c 128,-1,22
 25 318 25 318 91 384 c 128,-1,23
 157 450 157 450 250 450 c 0,0,1
EndSplineSet
EndChar

StartChar: t
Encoding: 116 116 84
Width: 500
Flags: W
LayerCount: 2
Fore
SplineSet
108.578125 391.421875 m 128,-1,1
 118.926513672 391.421875 118.926513672 391.421875 126.252319336 384.096069336 c 128,-1,2
 133.578125 376.770263672 133.578125 376.770263672 133.578125 366.421875 c 128,-1,3
 133.578125 356.06640625 133.578125 356.06640625 126.255859375 348.744140625 c 0,4,5
 75 297.48828125 75 297.48828125 75 225 c 0,6,7
 75 153 75 153 126.5 101.5 c 128,-1,8
 178 50 178 50 250 50 c 128,-1,9
 322 50 322 50 373.5 101.5 c 128,-1,10
 425 153 425 153 425 225 c 0,11,12
 425 297.48828125 425 297.48828125 373.744140625 348.744140625 c 0,13,14
 366.421875 356.06640625 366.421875 356.06640625 366.421875 366.421875 c 128,-1,15
 366.421875 376.770263672 366.421875 376.770263672 373.747680664 384.096069336 c 128,-1,16
 381.073486328 391.421875 381.073486328 391.421875 391.421875 391.421875 c 128,-1,17
 401.77734375 391.421875 401.77734375 391.421875 409.099609375 384.099609375 c 0,18,19
 475 318.197638556 475 318.197638556 475 225 c 128,-1,20
 475 132 475 132 409 66 c 128,-1,21
 343 0 343 0 250 0 c 128,-1,22
 157 0 157 0 91 66 c 128,-1,23
 25 132 25 132 25 225 c 128,-1,24
 25 318.197638556 25 318.197638556 90.900390625 384.099609375 c 0,25,0
 98.22265625 391.421875 98.22265625 391.421875 108.578125 391.421875 c 128,-1,1
EndSplineSet
EndChar

StartChar: u
Encoding: 117 117 85
Width: 500
Flags: W
LayerCount: 2
Fore
SplineSet
250 250 m 0,0,1
 260.35546875 250 260.35546875 250 267.677734375 242.677734375 c 2,2,-1
 409.099609375 101.255859375 l 1,3,4
 416.42578125 93.9296875 416.42578125 93.9296875 416.42578125 83.57421875 c 128,-1,5
 416.42578125 73.2265625 416.42578125 73.2265625 409.099609375 65.900390625 c 128,-1,6
 401.7734375 58.57421875 401.7734375 58.57421875 391.41796875 58.57421875 c 128,-1,7
 381.0703125 58.57421875 381.0703125 58.57421875 373.744140625 65.900390625 c 2,8,-1
 232.322265625 207.322265625 l 1,9,-1
 232.3671875 207.3671875 l 1,10,11
 225.03666216 214.6598045 225.03666216 214.6598045 225 225 c 0,12,13
 225 235 225 235 232.5 242.5 c 128,-1,14
 240 250 240 250 250 250 c 0,0,1
EndSplineSet
EndChar

StartChar: v
Encoding: 118 118 86
Width: 500
Flags: W
LayerCount: 2
Fore
SplineSet
250 450 m 128,-1,1
 343 450 343 450 409 384 c 128,-1,2
 475 318 475 318 475 225 c 128,-1,3
 475 131.802361444 475 131.802361444 409.099609375 65.900390625 c 0,4,5
 401.77734375 58.578125 401.77734375 58.578125 391.421875 58.578125 c 128,-1,6
 381.073486328 58.578125 381.073486328 58.578125 373.747680664 65.9039306641 c 128,-1,7
 366.421875 73.2297363281 366.421875 73.2297363281 366.421875 83.578125 c 128,-1,8
 366.421875 93.93359375 366.421875 93.93359375 373.744140625 101.255859375 c 0,9,10
 425 152.51171875 425 152.51171875 425 225 c 0,11,12
 425 297 425 297 373.5 348.5 c 128,-1,13
 322 400 322 400 250 400 c 128,-1,14
 178 400 178 400 126.5 348.5 c 128,-1,15
 75 297 75 297 75 225 c 0,16,17
 75 152.51171875 75 152.51171875 126.255859375 101.255859375 c 0,18,19
 133.578125 93.93359375 133.578125 93.93359375 133.578125 83.578125 c 128,-1,20
 133.578125 73.2297363281 133.578125 73.2297363281 126.252319336 65.9039306641 c 128,-1,21
 118.926513672 58.578125 118.926513672 58.578125 108.578125 58.578125 c 128,-1,22
 98.22265625 58.578125 98.22265625 58.578125 90.900390625 65.900390625 c 0,23,24
 25 131.802361444 25 131.802361444 25 225 c 128,-1,25
 25 318 25 318 91 384 c 128,-1,0
 157 450 157 450 250 450 c 128,-1,1
126.255859375 384.098632812 m 2,26,-1
 409.098632812 101.255859375 l 1,27,28
 416.424804688 93.9312684607 416.424804688 93.9312684607 416.424804688 83.5751953125 c 128,-1,29
 416.424804688 73.2259581018 416.424804688 73.2259581018 409.098632812 65.9013671875 c 128,-1,30
 401.774041898 58.5751953125 401.774041898 58.5751953125 391.41796875 58.5751953125 c 128,-1,31
 381.068731539 58.5751953125 381.068731539 58.5751953125 373.744140625 65.9013671875 c 2,32,-1
 90.9013671875 348.744140625 l 1,33,34
 83.5751953125 356.068731539 83.5751953125 356.068731539 83.5751953125 366.424804688 c 128,-1,35
 83.5751953125 376.774041898 83.5751953125 376.774041898 90.9013671875 384.098632812 c 128,-1,36
 98.2259581018 391.424804688 98.2259581018 391.424804688 108.58203125 391.424804688 c 128,-1,37
 118.931268461 391.424804688 118.931268461 391.424804688 126.255859375 384.098632812 c 2,26,-1
EndSplineSet
EndChar

StartChar: w
Encoding: 119 119 87
Width: 500
Flags: W
LayerCount: 2
Fore
SplineSet
50 250 m 128,-1,1
 60 250 60 250 67.5 242.5 c 128,-1,2
 75 235 75 235 75 225 c 0,3,4
 75 153 75 153 126.5 101.5 c 128,-1,5
 178 50 178 50 250 50 c 128,-1,6
 322 50 322 50 373.5 101.5 c 128,-1,7
 425 153 425 153 425 225 c 0,8,9
 425 235 425 235 432.5 242.5 c 128,-1,10
 440 250 440 250 450 250 c 128,-1,11
 460 250 460 250 467.5 242.5 c 128,-1,12
 475 235 475 235 475 225 c 0,13,14
 475 132 475 132 409 66 c 128,-1,15
 343 0 343 0 250 0 c 128,-1,16
 157 0 157 0 91 66 c 128,-1,17
 25 132 25 132 25 225 c 0,18,19
 25 235 25 235 32.5 242.5 c 128,-1,0
 40 250 40 250 50 250 c 128,-1,1
EndSplineSet
EndChar

StartChar: x
Encoding: 120 120 88
Width: 500
Flags: W
LayerCount: 2
Fore
SplineSet
250 450 m 128,-1,1
 343 450 343 450 409 384 c 128,-1,2
 475 318 475 318 475 225 c 128,-1,3
 475 132 475 132 409 66 c 128,-1,4
 343 0 343 0 250 0 c 0,5,6
 240 0 240 0 232.5 7.5 c 128,-1,7
 225 15 225 15 225 25 c 128,-1,8
 225 35 225 35 232.5 42.5 c 128,-1,9
 240 50 240 50 250 50 c 0,10,11
 322 50 322 50 373.5 101.5 c 128,-1,12
 425 153 425 153 425 225 c 128,-1,13
 425 297 425 297 373.5 348.5 c 128,-1,14
 322 400 322 400 250 400 c 128,-1,15
 178 400 178 400 126.5 348.5 c 128,-1,16
 75 297 75 297 75 225 c 0,17,18
 75 215 75 215 67.5 207.5 c 128,-1,19
 60 200 60 200 50 200 c 128,-1,20
 40 200 40 200 32.5 207.5 c 128,-1,21
 25 215 25 215 25 225 c 0,22,23
 25 318 25 318 91 384 c 128,-1,0
 157 450 157 450 250 450 c 128,-1,1
126.255859375 384.098632812 m 2,24,-1
 409.098632812 101.255859375 l 1,25,26
 416.424804688 93.9312684607 416.424804688 93.9312684607 416.424804688 83.5751953125 c 128,-1,27
 416.424804688 73.2259581018 416.424804688 73.2259581018 409.098632812 65.9013671875 c 128,-1,28
 401.774041898 58.5751953125 401.774041898 58.5751953125 391.41796875 58.5751953125 c 128,-1,29
 381.068731539 58.5751953125 381.068731539 58.5751953125 373.744140625 65.9013671875 c 2,30,-1
 90.9013671875 348.744140625 l 1,31,32
 83.5751953125 356.068731539 83.5751953125 356.068731539 83.5751953125 366.424804688 c 128,-1,33
 83.5751953125 376.774041898 83.5751953125 376.774041898 90.9013671875 384.098632812 c 128,-1,34
 98.2259581018 391.424804688 98.2259581018 391.424804688 108.58203125 391.424804688 c 128,-1,35
 118.931268461 391.424804688 118.931268461 391.424804688 126.255859375 384.098632812 c 2,24,-1
EndSplineSet
EndChar

StartChar: y
Encoding: 121 121 89
Width: 500
Flags: W
LayerCount: 2
Fore
SplineSet
250 450 m 128,-1,1
 343 450 343 450 409 384 c 128,-1,2
 475 318 475 318 475 225 c 128,-1,3
 475 132 475 132 409 66 c 128,-1,4
 343 0 343 0 250 0 c 128,-1,5
 156.802361444 0 156.802361444 0 90.900390625 65.900390625 c 0,6,7
 83.578125 73.22265625 83.578125 73.22265625 83.578125 83.578125 c 128,-1,8
 83.578125 93.9265136719 83.578125 93.9265136719 90.9039306641 101.252319336 c 128,-1,9
 98.2297363281 108.578125 98.2297363281 108.578125 108.578125 108.578125 c 128,-1,10
 118.93359375 108.578125 118.93359375 108.578125 126.255859375 101.255859375 c 0,11,12
 177.51171875 50 177.51171875 50 250 50 c 0,13,14
 322 50 322 50 373.5 101.5 c 128,-1,15
 425 153 425 153 425 225 c 128,-1,16
 425 297 425 297 373.5 348.5 c 128,-1,17
 322 400 322 400 250 400 c 0,18,19
 177.51171875 400 177.51171875 400 126.255859375 348.744140625 c 0,20,21
 118.93359375 341.421875 118.93359375 341.421875 108.578125 341.421875 c 128,-1,22
 98.2297363281 341.421875 98.2297363281 341.421875 90.9039306641 348.747680664 c 128,-1,23
 83.578125 356.073486328 83.578125 356.073486328 83.578125 366.421875 c 128,-1,24
 83.578125 376.77734375 83.578125 376.77734375 90.900390625 384.099609375 c 0,25,0
 156.802361444 450 156.802361444 450 250 450 c 128,-1,1
126.255859375 384.098632812 m 2,26,-1
 409.098632812 101.255859375 l 1,27,28
 416.424804688 93.9312684607 416.424804688 93.9312684607 416.424804688 83.5751953125 c 128,-1,29
 416.424804688 73.2259581018 416.424804688 73.2259581018 409.098632812 65.9013671875 c 128,-1,30
 401.774041898 58.5751953125 401.774041898 58.5751953125 391.41796875 58.5751953125 c 128,-1,31
 381.068731539 58.5751953125 381.068731539 58.5751953125 373.744140625 65.9013671875 c 2,32,-1
 90.9013671875 348.744140625 l 1,33,34
 83.5751953125 356.068731539 83.5751953125 356.068731539 83.5751953125 366.424804688 c 128,-1,35
 83.5751953125 376.774041898 83.5751953125 376.774041898 90.9013671875 384.098632812 c 128,-1,36
 98.2259581018 391.424804688 98.2259581018 391.424804688 108.58203125 391.424804688 c 128,-1,37
 118.931268461 391.424804688 118.931268461 391.424804688 126.255859375 384.098632812 c 2,26,-1
250 350 m 128,-1,39
 302 350 302 350 338.5 313.5 c 128,-1,40
 375 277 375 277 375 225 c 128,-1,41
 375 173 375 173 338.5 136.5 c 128,-1,42
 302 100 302 100 250 100 c 128,-1,43
 198 100 198 100 161.5 136.5 c 128,-1,44
 125 173 125 173 125 225 c 128,-1,45
 125 277 125 277 161.5 313.5 c 128,-1,38
 198 350 198 350 250 350 c 128,-1,39
250 300 m 128,-1,47
 219 300 219 300 197 278 c 128,-1,48
 175 256 175 256 175 225 c 128,-1,49
 175 194 175 194 197 172 c 128,-1,50
 219 150 219 150 250 150 c 128,-1,51
 281 150 281 150 303 172 c 128,-1,52
 325 194 325 194 325 225 c 128,-1,53
 325 256 325 256 303 278 c 128,-1,46
 281 300 281 300 250 300 c 128,-1,47
EndSplineSet
EndChar

StartChar: z
Encoding: 122 122 90
Width: 500
Flags: W
LayerCount: 2
Fore
SplineSet
250 450 m 0,0,1
 260 450 260 450 267.5 442.5 c 128,-1,2
 275 435 275 435 275 425 c 128,-1,3
 275 415 275 415 267.5 407.5 c 128,-1,4
 260 400 260 400 250 400 c 0,5,6
 178 400 178 400 126.5 348.5 c 128,-1,7
 75 297 75 297 75 225 c 128,-1,8
 75 153 75 153 126.5 101.5 c 128,-1,9
 178 50 178 50 250 50 c 128,-1,10
 322 50 322 50 373.5 101.5 c 128,-1,11
 425 153 425 153 425 225 c 0,12,13
 425 235 425 235 432.5 242.5 c 128,-1,14
 440 250 440 250 450 250 c 128,-1,15
 460 250 460 250 467.5 242.5 c 128,-1,16
 475 235 475 235 475 225 c 0,17,18
 475 132 475 132 409 66 c 128,-1,19
 343 0 343 0 250 0 c 128,-1,20
 157 0 157 0 91 66 c 128,-1,21
 25 132 25 132 25 225 c 128,-1,22
 25 318 25 318 91 384 c 128,-1,23
 157 450 157 450 250 450 c 0,0,1
126.255859375 384.098632812 m 2,24,-1
 409.098632812 101.255859375 l 1,25,26
 416.424804688 93.9312684607 416.424804688 93.9312684607 416.424804688 83.5751953125 c 128,-1,27
 416.424804688 73.2259581018 416.424804688 73.2259581018 409.098632812 65.9013671875 c 128,-1,28
 401.774041898 58.5751953125 401.774041898 58.5751953125 391.41796875 58.5751953125 c 128,-1,29
 381.068731539 58.5751953125 381.068731539 58.5751953125 373.744140625 65.9013671875 c 2,30,-1
 90.9013671875 348.744140625 l 1,31,32
 83.5751953125 356.068731539 83.5751953125 356.068731539 83.5751953125 366.424804688 c 128,-1,33
 83.5751953125 376.774041898 83.5751953125 376.774041898 90.9013671875 384.098632812 c 128,-1,34
 98.2259581018 391.424804688 98.2259581018 391.424804688 108.58203125 391.424804688 c 128,-1,35
 118.931268461 391.424804688 118.931268461 391.424804688 126.255859375 384.098632812 c 2,24,-1
EndSplineSet
EndChar

StartChar: braceleft
Encoding: 123 123 91
Width: 500
Flags: W
LayerCount: 2
Fore
SplineSet
350 550 m 0,0,1
 360 550 360 550 367.5 542.5 c 128,-1,2
 375 535 375 535 375 525 c 128,-1,3
 375 515 375 515 367.5 507.5 c 128,-1,4
 360 500 360 500 350 500 c 1,5,-1
 350 499.716796875 l 1,6,-1
 349.703125 499.725585938 l 0,7,8
 318.893008723 499.725585938 318.893008723 499.725585938 296.966796875 478.033203125 c 0,9,10
 275 456.067871094 275 456.067871094 275 425 c 2,11,-1
 275 325 l 2,12,13
 275 273.219726641 275 273.219726641 238.388671875 236.611328125 c 0,14,15
 231.9858793 230.300441663 231.9858793 230.300441663 224.71484375 225.001953125 c 1,16,17
 231.983560396 219.70330331 231.983560396 219.70330331 238.388671875 213.388671875 c 0,18,19
 275 176.775878945 275 176.775878945 275 125 c 2,20,-1
 275 25 l 2,21,22
 275 -6.06640625 275 -6.06640625 296.966796875 -28.033203125 c 0,23,24
 318.88511201 -49.7177734375 318.88511201 -49.7177734375 349.709960938 -49.7177734375 c 0,25,-1
 350 -49.716796875 l 1,26,-1
 350 -50 l 1,27,28
 360.354625616 -50 360.354625616 -50 367.677312808 -57.3236750888 c 128,-1,29
 375 -64.6473501777 375 -64.6473501777 375 -75.001953125 c 128,-1,30
 375 -85.3563698082 375 -85.3563698082 367.677405918 -92.6791614666 c 128,-1,31
 360.354811837 -100.001953125 360.354811837 -100.001953125 350 -100.001953125 c 0,32,33
 298.08038125 -99.3951529751 298.08038125 -99.3951529751 261.611328125 -63.388671875 c 0,34,35
 225 -26.7758789453 225 -26.7758789453 225 25 c 2,36,-1
 225 125 l 2,37,38
 225 156.06640625 225 156.06640625 203.033203125 178.033203125 c 0,39,40
 181.11488799 199.717773438 181.11488799 199.717773438 150.290039062 199.717773438 c 0,41,-1
 150 199.716796875 l 1,42,-1
 150 200 l 0,43,-1
 149.993164062 200 l 0,44,45
 147.440432551 200 147.440432551 200 144.9609375 200.5078125 c 128,-1,46
 142.540472916 201.005669704 142.540472916 201.005669704 140.26953125 201.96484375 c 0,47,48
 135.772078934 203.868457487 135.772078934 203.868457487 132.322265625 207.32421875 c 0,49,50
 130.618393425 209.025168357 130.618393425 209.025168357 129.26953125 211.021484375 c 2,51,-1
 129.26953125 211.0234375 l 1,52,53
 127.909803377 213.037849164 127.909803377 213.037849164 126.96484375 215.26953125 c 2,54,-1
 126.96484375 215.271484375 l 1,55,56
 126.006072949 217.539977905 126.006072949 217.539977905 125.5078125 219.9609375 c 2,57,-1
 125.5078125 219.962890625 l 2,58,59
 125 222.443874863 125 222.443874863 125 225 c 2,60,-1
 125 225.00390625 l 0,61,-1
 125 225.006835938 l 0,62,63
 125 227.559567449 125 227.559567449 125.5078125 230.0390625 c 128,-1,64
 126.004319848 232.452761936 126.004319848 232.452761936 126.9609375 234.71875 c 2,65,-1
 126.96484375 234.73046875 l 1,66,-1
 126.96484375 234.732421875 l 1,67,-1
 126.97265625 234.748046875 l 0,68,69
 128.869241668 239.222757293 128.869241668 239.222757293 132.3046875 242.658203125 c 2,70,-1
 132.322265625 242.677734375 l 1,71,-1
 132.345703125 242.69921875 l 0,72,73
 134.030677857 244.381263091 134.030677857 244.381263091 135.99609375 245.7109375 c 2,74,-1
 136.052734375 245.748046875 l 1,75,76
 138.037912791 247.08382639 138.037912791 247.08382639 140.23828125 248.01953125 c 2,77,-1
 140.3046875 248.048828125 l 2,78,79
 142.547703971 248.992708482 142.547703971 248.992708482 144.923828125 249.482421875 c 2,80,-1
 144.998046875 249.498046875 l 2,81,82
 147.434705671 249.993688798 147.434705671 249.993688798 149.9609375 249.998046875 c 2,83,-1
 150 250.001953125 l 1,84,-1
 150 250.283203125 l 1,85,-1
 150.296875 250.274414062 l 0,86,87
 181.106991277 250.274414062 181.106991277 250.274414062 203.033203125 271.966796875 c 0,88,89
 225 293.932128906 225 293.932128906 225 325 c 2,90,-1
 225 425 l 2,91,92
 225 476.775878945 225 476.775878945 261.611328125 513.388671875 c 0,93,94
 298.078814947 549.394492054 298.078814947 549.394492054 350 550 c 0,0,1
EndSplineSet
EndChar

StartChar: bar
Encoding: 124 124 92
Width: 500
Flags: W
LayerCount: 2
Fore
SplineSet
250 650 m 128,-1,1
 260 650 260 650 267.5 642.5 c 128,-1,2
 275 635 275 635 275 625 c 2,3,-1
 275 -175 l 2,4,5
 275 -185 275 -185 267.5 -192.5 c 128,-1,6
 260 -200 260 -200 250 -200 c 128,-1,7
 240 -200 240 -200 232.5 -192.5 c 128,-1,8
 225 -185 225 -185 225 -175 c 2,9,-1
 225 625 l 2,10,11
 225 635 225 635 232.5 642.5 c 128,-1,0
 240 650 240 650 250 650 c 128,-1,1
EndSplineSet
EndChar

StartChar: braceright
Encoding: 125 125 93
Width: 500
Flags: W
LayerCount: 2
Fore
SplineSet
150 550.001953125 m 0,0,1
 201.91961875 549.395152975 201.91961875 549.395152975 238.388671875 513.388671875 c 0,2,3
 275 476.775878945 275 476.775878945 275 425 c 2,4,-1
 275 325 l 2,5,6
 275 293.93359375 275 293.93359375 296.966796875 271.966796875 c 0,7,8
 318.88511201 250.282226562 318.88511201 250.282226562 349.709960938 250.282226562 c 0,9,-1
 350 250.283203125 l 1,10,-1
 350 250 l 1,11,-1
 350.036132812 250.00390625 l 0,12,13
 360.371748725 250.00390625 360.371748725 250.00390625 367.677734375 242.67578125 c 0,14,15
 369.381606575 240.974831643 369.381606575 240.974831643 370.73046875 238.978515625 c 2,16,-1
 370.73046875 238.9765625 l 1,17,18
 372.090196623 236.962150836 372.090196623 236.962150836 373.03515625 234.73046875 c 2,19,-1
 373.03515625 234.728515625 l 1,20,21
 373.993927051 232.460022095 373.993927051 232.460022095 374.4921875 230.0390625 c 2,22,-1
 374.4921875 230.037109375 l 2,23,24
 375 227.556125137 375 227.556125137 375 225 c 2,25,-1
 375 224.998046875 l 0,26,-1
 375 224.993164062 l 0,27,28
 375 222.440432551 375 222.440432551 374.4921875 219.9609375 c 0,29,30
 372.983779795 212.616095688 372.983779795 212.616095688 367.677734375 207.322265625 c 0,31,32
 360.374062635 199.998046875 360.374062635 199.998046875 350.032226562 199.998046875 c 0,33,-1
 350 199.998046875 l 1,34,-1
 350 199.716796875 l 1,35,-1
 349.703125 199.725585938 l 0,36,37
 318.893008723 199.725585938 318.893008723 199.725585938 296.966796875 178.033203125 c 0,38,39
 275 156.067871094 275 156.067871094 275 125 c 2,40,-1
 275 25 l 2,41,42
 275 -26.7758789453 275 -26.7758789453 238.388671875 -63.388671875 c 0,43,44
 201.921185053 -99.3944920541 201.921185053 -99.3944920541 150 -100 c 0,45,46
 140 -100 140 -100 132.5 -92.5 c 128,-1,47
 125 -85 125 -85 125 -75 c 128,-1,48
 125 -65 125 -65 132.5 -57.5 c 128,-1,49
 140 -50 140 -50 150 -50 c 1,50,-1
 150 -49.716796875 l 1,51,-1
 150.296875 -49.7255859375 l 0,52,53
 181.106991277 -49.7255859375 181.106991277 -49.7255859375 203.033203125 -28.033203125 c 0,54,55
 225 -6.06787109375 225 -6.06787109375 225 25 c 2,56,-1
 225 125 l 2,57,58
 225 176.776367305 225 176.776367305 261.609375 213.388671875 c 0,59,60
 268.014042342 219.702844828 268.014042342 219.702844828 275.28125 225 c 1,61,62
 268.017406564 230.295764012 268.017406564 230.295764012 261.611328125 236.611328125 c 0,63,64
 225.01171875 273.2109375 225.01171875 273.2109375 225.01171875 325 c 1,65,-1
 225 325 l 1,66,-1
 225 425 l 2,67,68
 225 456.06640625 225 456.06640625 203.033203125 478.033203125 c 0,69,70
 181.11488799 499.717773438 181.11488799 499.717773438 150.290039062 499.717773438 c 0,71,-1
 150 499.716796875 l 1,72,-1
 150 500 l 1,73,74
 139.645374384 500 139.645374384 500 132.322687192 507.323675089 c 128,-1,75
 125 514.647350178 125 514.647350178 125 525.001953125 c 128,-1,76
 125 535.356369808 125 535.356369808 132.322594082 542.679161467 c 128,-1,77
 139.645188163 550.001953125 139.645188163 550.001953125 150 550.001953125 c 0,0,1
EndSplineSet
EndChar

StartChar: asciitilde
Encoding: 126 126 94
Width: 500
Flags: W
LayerCount: 2
Fore
SplineSet
108.578125 391.421875 m 0,0,1
 109.352926493 391.293952802 109.352926493 391.293952802 110.130859375 391.11328125 c 0,2,3
 113.244214086 390.889038694 113.244214086 390.889038694 116.21484375 389.90234375 c 0,4,5
 117.551377299 389.549931731 117.551377299 389.549931731 118.8515625 389.046875 c 0,6,7
 123.003937187 387.241749519 123.003937187 387.241749519 126.255859375 384.099609375 c 2,8,-1
 390.123046875 120.232421875 l 1,9,10
 424.995117188 166.869428636 424.995117188 166.869428636 424.995117188 225.053710938 c 0,11,12
 424.995117188 297.467869771 424.995117188 297.467869771 373.744140625 348.744140625 c 0,13,14
 366.41796875 356.0703125 366.41796875 356.0703125 366.41796875 366.42578125 c 128,-1,15
 366.41796875 376.7734375 366.41796875 376.7734375 373.744140625 384.099609375 c 128,-1,16
 381.06640625 391.421875 381.06640625 391.421875 391.421875 391.421875 c 128,-1,17
 401.77734375 391.421875 401.77734375 391.421875 409.099609375 384.099609375 c 1,18,-1
 409.09765625 384.09765625 l 0,19,20
 409.534295214 383.662477617 409.534295214 383.662477617 409.9453125 383.2109375 c 2,21,-1
 409.955078125 383.1953125 l 0,22,23
 413.623081314 379.485215092 413.623081314 379.485215092 417.12890625 375.591796875 c 0,24,25
 417.870942365 374.741285142 417.870942365 374.741285142 418.49609375 374.01171875 c 0,26,27
 421.262127285 370.901578343 421.262127285 370.901578343 423.880859375 367.73046875 c 0,28,29
 425.291161443 365.97490601 425.291161443 365.97490601 426.65625 364.205078125 c 0,30,31
 428.532617335 361.857031373 428.532617335 361.857031373 430.294921875 359.529296875 c 0,32,33
 432.260973094 356.855643019 432.260973094 356.855643019 434.134765625 354.14453125 c 0,34,35
 435.258263858 352.577665928 435.258263858 352.577665928 436.28515625 351.09375 c 0,36,37
 438.717213019 347.47360262 438.717213019 347.47360262 440.986328125 343.798828125 c 0,38,39
 441.493144272 343.006826042 441.493144272 343.006826042 441.890625 342.375 c 0,40,41
 444.601751989 337.937808432 444.601751989 337.937808432 447.095703125 333.3984375 c 0,42,43
 474.852539062 282.813117635 474.852539062 282.813117635 474.852539062 225.112304688 c 0,44,45
 474.852539062 134.056903282 474.852539062 134.056903282 411.4375 68.6015625 c 2,46,-1
 411.283203125 68.423828125 l 0,47,48
 410.299248842 67.1215356911 410.299248842 67.1215356911 409.140625 65.9453125 c 2,49,-1
 409.119140625 65.921875 l 1,50,-1
 409.115234375 65.91796875 l 1,51,-1
 409.09765625 65.900390625 l 1,52,-1
 409.091796875 65.89453125 l 1,53,-1
 409.087890625 65.892578125 l 0,54,55
 405.834578014 62.7520628487 405.834578014 62.7520628487 401.685546875 60.94921875 c 0,56,57
 400.399813257 60.4531013747 400.399813257 60.4531013747 399.07421875 60.1015625 c 0,58,59
 396.094999957 59.1094916607 396.094999957 59.1094916607 392.958984375 58.884765625 c 0,60,61
 392.191909328 58.8369140625 392.191909328 58.8369140625 391.438476562 58.8369140625 c 128,-1,62
 390.651855469 58.8364257812 390.651855469 58.8364257812 389.876953125 58.884765625 c 0,63,64
 386.743777869 59.1094959187 386.743777869 59.1094959187 383.767578125 60.1015625 c 0,65,66
 382.430067683 60.4569539183 382.430067683 60.4569539183 381.150390625 60.953125 c 0,67,68
 376.998360805 62.7574638847 376.998360805 62.7574638847 373.744140625 65.900390625 c 2,69,-1
 109.96875 329.67578125 l 1,70,71
 75.0966796875 283.038774489 75.0966796875 283.038774489 75.0966796875 224.853515625 c 0,72,73
 75.0966796875 152.514625897 75.0966796875 152.514625897 126.255859375 101.255859375 c 0,74,75
 133.58203125 93.9296875 133.58203125 93.9296875 133.58203125 83.57421875 c 128,-1,76
 133.58203125 73.2265625 133.58203125 73.2265625 126.255859375 65.900390625 c 128,-1,77
 118.9296875 58.57421875 118.9296875 58.57421875 108.57421875 58.57421875 c 128,-1,78
 98.2265625 58.57421875 98.2265625 58.57421875 90.900390625 65.900390625 c 1,79,-1
 90.90234375 65.90234375 l 1,80,-1
 90.86328125 65.943359375 l 0,81,82
 86.8084498417 70.3789670661 86.8084498417 70.3789670661 82.984375 75.041015625 c 0,83,84
 75.9905667207 82.4869783499 75.9905667207 82.4869783499 69.712890625 90.517578125 c 0,85,86
 64.6160637971 97.7805563548 64.6160637971 97.7805563548 60.10546875 105.42578125 c 0,87,88
 56.2017750541 111.165645949 56.2017750541 111.165645949 52.65625 117.138671875 c 0,89,90
 47.4730668889 127.073229404 47.4730668889 127.073229404 43.3046875 137.46484375 c 0,91,92
 41.3083623689 141.654169007 41.3083623689 141.654169007 39.49609375 145.900390625 c 0,93,94
 35.1504315946 157.927207764 35.1504315946 157.927207764 32.1953125 170.3671875 c 0,95,96
 31.3022585701 173.301932111 31.3022585701 173.301932111 30.49609375 176.234375 c 0,97,98
 27.5393633884 190.026014813 27.5393633884 190.026014813 26.328125 204.078125 c 0,99,100
 26.0738038237 205.786754052 26.0738038237 205.786754052 25.84375 207.51953125 c 0,101,102
 25.23046875 215.842213729 25.23046875 215.842213729 25.23046875 223.873046875 c 0,103,104
 25.23046875 230.564320959 25.23046875 230.564320959 25.623046875 237.255859375 c 0,105,-1
 25.623046875 237.512695312 l 0,106,107
 25.623046875 238.354003906 25.623046875 238.354003906 25.62890625 239.193359375 c 0,108,109
 26.6369975637 254.674450873 26.6369975637 254.674450873 29.7578125 269.861328125 c 2,110,-1
 29.7578125 269.861328125 l 0,111,-1
 29.86328125 270.583984375 l 1,112,113
 43.136095416 334.508091582 43.136095416 334.508091582 88.5625 381.3984375 c 0,114,115
 89.0459694492 381.991315938 89.0459694492 381.991315938 89.546875 382.53515625 c 128,-1,116
 90.1605623753 383.25045635 90.1605623753 383.25045635 90.890625 384.0859375 c 2,117,-1
 90.900390625 384.099609375 l 1,118,-1
 90.90234375 384.099609375 l 1,119,-1
 90.908203125 384.10546875 l 1,120,-1
 90.912109375 384.107421875 l 0,121,122
 94.1638384371 387.246357049 94.1638384371 387.246357049 98.310546875 389.048828125 c 0,123,124
 99.6012714283 389.548463436 99.6012714283 389.548463436 100.9375 389.90234375 c 0,125,126
 103.905369602 390.888626657 103.905369602 390.888626657 107.02734375 391.11328125 c 0,127,128
 107.801340365 391.293384309 107.801340365 391.293384309 108.578125 391.421875 c 0,0,1
EndSplineSet
EndChar

StartChar: uni25CC
Encoding: 9676 9676 95
Width: 500
Flags: W
LayerCount: 2
Fore
SplineSet
250 450 m 128,-1,1
 260 450 260 450 267.5 442.5 c 128,-1,2
 275 435 275 435 275 425 c 128,-1,3
 275 415 275 415 267.5 407.5 c 128,-1,4
 260 400 260 400 250 400 c 128,-1,5
 240 400 240 400 232.5 407.5 c 128,-1,6
 225 415 225 415 225 425 c 128,-1,7
 225 435 225 435 232.5 442.5 c 128,-1,0
 240 450 240 450 250 450 c 128,-1,1
108.578125 391.421875 m 128,-1,9
 118.926513672 391.421875 118.926513672 391.421875 126.252319336 384.096069336 c 128,-1,10
 133.578125 376.770263672 133.578125 376.770263672 133.578125 366.421875 c 128,-1,11
 133.578125 356.073486328 133.578125 356.073486328 126.252319336 348.747680664 c 128,-1,12
 118.926513672 341.421875 118.926513672 341.421875 108.578125 341.421875 c 128,-1,13
 98.2297363281 341.421875 98.2297363281 341.421875 90.9039306641 348.747680664 c 128,-1,14
 83.578125 356.073486328 83.578125 356.073486328 83.578125 366.421875 c 128,-1,15
 83.578125 376.770263672 83.578125 376.770263672 90.9039306641 384.096069336 c 128,-1,8
 98.2297363281 391.421875 98.2297363281 391.421875 108.578125 391.421875 c 128,-1,9
391.421875 391.421875 m 128,-1,17
 401.770263672 391.421875 401.770263672 391.421875 409.096069336 384.096069336 c 128,-1,18
 416.421875 376.770263672 416.421875 376.770263672 416.421875 366.421875 c 128,-1,19
 416.421875 356.073486328 416.421875 356.073486328 409.096069336 348.747680664 c 128,-1,20
 401.770263672 341.421875 401.770263672 341.421875 391.421875 341.421875 c 128,-1,21
 381.073486328 341.421875 381.073486328 341.421875 373.747680664 348.747680664 c 128,-1,22
 366.421875 356.073486328 366.421875 356.073486328 366.421875 366.421875 c 128,-1,23
 366.421875 376.770263672 366.421875 376.770263672 373.747680664 384.096069336 c 128,-1,16
 381.073486328 391.421875 381.073486328 391.421875 391.421875 391.421875 c 128,-1,17
50 250 m 128,-1,25
 60 250 60 250 67.5 242.5 c 128,-1,26
 75 235 75 235 75 225 c 128,-1,27
 75 215 75 215 67.5 207.5 c 128,-1,28
 60 200 60 200 50 200 c 128,-1,29
 40 200 40 200 32.5 207.5 c 128,-1,30
 25 215 25 215 25 225 c 128,-1,31
 25 235 25 235 32.5 242.5 c 128,-1,24
 40 250 40 250 50 250 c 128,-1,25
450 250 m 128,-1,33
 460 250 460 250 467.5 242.5 c 128,-1,34
 475 235 475 235 475 225 c 128,-1,35
 475 215 475 215 467.5 207.5 c 128,-1,36
 460 200 460 200 450 200 c 128,-1,37
 440 200 440 200 432.5 207.5 c 128,-1,38
 425 215 425 215 425 225 c 128,-1,39
 425 235 425 235 432.5 242.5 c 128,-1,32
 440 250 440 250 450 250 c 128,-1,33
108.578125 108.578125 m 128,-1,41
 118.926513672 108.578125 118.926513672 108.578125 126.252319336 101.252319336 c 128,-1,42
 133.578125 93.9265136719 133.578125 93.9265136719 133.578125 83.578125 c 128,-1,43
 133.578125 73.2297363281 133.578125 73.2297363281 126.252319336 65.9039306641 c 128,-1,44
 118.926513672 58.578125 118.926513672 58.578125 108.578125 58.578125 c 128,-1,45
 98.2297363281 58.578125 98.2297363281 58.578125 90.9039306641 65.9039306641 c 128,-1,46
 83.578125 73.2297363281 83.578125 73.2297363281 83.578125 83.578125 c 128,-1,47
 83.578125 93.9265136719 83.578125 93.9265136719 90.9039306641 101.252319336 c 128,-1,40
 98.2297363281 108.578125 98.2297363281 108.578125 108.578125 108.578125 c 128,-1,41
391.421875 108.578125 m 128,-1,49
 401.770263672 108.578125 401.770263672 108.578125 409.096069336 101.252319336 c 128,-1,50
 416.421875 93.9265136719 416.421875 93.9265136719 416.421875 83.578125 c 128,-1,51
 416.421875 73.2297363281 416.421875 73.2297363281 409.096069336 65.9039306641 c 128,-1,52
 401.770263672 58.578125 401.770263672 58.578125 391.421875 58.578125 c 128,-1,53
 381.073486328 58.578125 381.073486328 58.578125 373.747680664 65.9039306641 c 128,-1,54
 366.421875 73.2297363281 366.421875 73.2297363281 366.421875 83.578125 c 128,-1,55
 366.421875 93.9265136719 366.421875 93.9265136719 373.747680664 101.252319336 c 128,-1,48
 381.073486328 108.578125 381.073486328 108.578125 391.421875 108.578125 c 128,-1,49
250 50 m 128,-1,57
 260 50 260 50 267.5 42.5 c 128,-1,58
 275 35 275 35 275 25 c 128,-1,59
 275 15 275 15 267.5 7.5 c 128,-1,60
 260 0 260 0 250 0 c 128,-1,61
 240 0 240 0 232.5 7.5 c 128,-1,62
 225 15 225 15 225 25 c 128,-1,63
 225 35 225 35 232.5 42.5 c 128,-1,56
 240 50 240 50 250 50 c 128,-1,57
EndSplineSet
EndChar

StartChar: acute
Encoding: 180 180 96
Width: 500
Flags: W
LayerCount: 2
Fore
SplineSet
450 250 m 128,-1,1
 460 250 460 250 467.5 242.5 c 128,-1,2
 475 235 475 235 475 225 c 128,-1,3
 475 215 475 215 467.5 207.5 c 128,-1,4
 460 200 460 200 450 200 c 128,-1,5
 440 200 440 200 432.5 207.5 c 128,-1,6
 425 215 425 215 425 225 c 128,-1,7
 425 235 425 235 432.5 242.5 c 128,-1,0
 440 250 440 250 450 250 c 128,-1,1
EndSplineSet
EndChar

StartChar: paragraph
Encoding: 182 182 97
Width: 500
Flags: W
LayerCount: 2
Fore
SplineSet
250 650 m 128,-1,1
 260 650 260 650 267.5 642.5 c 128,-1,2
 275 635 275 635 275 625 c 2,3,-1
 275 -175 l 2,4,5
 275 -185 275 -185 267.5 -192.5 c 128,-1,6
 260 -200 260 -200 250 -200 c 128,-1,7
 240 -200 240 -200 232.5 -192.5 c 128,-1,8
 225 -185 225 -185 225 -175 c 2,9,-1
 225 625 l 2,10,11
 225 635 225 635 232.5 642.5 c 128,-1,0
 240 650 240 650 250 650 c 128,-1,1
250 350 m 128,-1,13
 302 350 302 350 338.5 313.5 c 128,-1,14
 375 277 375 277 375 225 c 128,-1,15
 375 173 375 173 338.5 136.5 c 128,-1,16
 302 100 302 100 250 100 c 128,-1,17
 198 100 198 100 161.5 136.5 c 128,-1,18
 125 173 125 173 125 225 c 128,-1,19
 125 277 125 277 161.5 313.5 c 128,-1,12
 198 350 198 350 250 350 c 128,-1,13
250 300 m 128,-1,21
 219 300 219 300 197 278 c 128,-1,22
 175 256 175 256 175 225 c 128,-1,23
 175 194 175 194 197 172 c 128,-1,24
 219 150 219 150 250 150 c 128,-1,25
 281 150 281 150 303 172 c 128,-1,26
 325 194 325 194 325 225 c 128,-1,27
 325 256 325 256 303 278 c 128,-1,20
 281 300 281 300 250 300 c 128,-1,21
EndSplineSet
EndChar
